<svg width="73" height="112" viewBox="0 0 73 112" fill="none" xmlns="http://www.w3.org/2000/svg">
<path fill-rule="evenodd" clip-rule="evenodd" d="M36.8576 0.307025C36.6546 0.481571 34.3054 0.846529 31.6358 1.11805C28.615 1.42482 27.4483 1.32874 28.5471 0.862403C30.2379 0.144825 37.6175 -0.348845 36.8576 0.307025ZM25.4583 1.62141C25.4583 2.45711 16.5847 5.52402 15.9634 4.90341C15.6845 4.62484 15.628 4.3974 15.8363 4.3974C16.0454 4.3974 18.2958 3.63839 20.8374 2.71012C23.3791 1.78273 25.4583 1.29259 25.4583 1.62141ZM42.9187 3.1174C42.6522 3.38362 38.7144 3.98395 34.1669 4.45205C26.0398 5.28776 20.5224 6.94947 11.7794 11.195L7.36686 13.3372L9.96585 11.292C13.7333 8.32733 24.2131 4.66451 32.0418 3.57668C39.4743 2.54351 43.6706 2.3672 42.9187 3.1174ZM48.8447 7.04204C49.496 8.0946 47.7663 8.0946 45.3147 7.04204C43.7386 6.36589 43.8038 6.27774 45.9245 6.22221C47.2306 6.18871 48.5447 6.55719 48.8447 7.04204ZM43.0352 6.47785C42.8322 6.65328 39.8873 7.01823 36.4896 7.29063C32.7557 7.59036 31.0101 7.48898 32.0771 7.03499C33.7547 6.32182 43.8074 5.81052 43.0352 6.47785ZM44.246 8.91267C52.185 9.76513 51.0219 10.2826 41.3505 10.2015C36.4993 10.1609 32.5281 9.8718 32.5245 9.55885C32.5148 8.65526 38.6782 8.31498 44.246 8.91267ZM28.9883 8.74695C28.2602 9.17009 26.1387 9.75631 24.2748 10.0507C20.4545 10.652 8.07551 15.5939 7.31655 16.821C7.04385 17.2609 6.36877 17.6206 5.81455 17.6206C2.71342 17.6206 14.2169 11.3537 21.0237 9.33406C26.2463 7.78518 31.2811 7.41405 28.9883 8.74695ZM52.9811 11.1703C52.3448 11.4251 51.5832 11.3934 51.2902 11.1007C50.9972 10.808 51.5179 10.6 52.448 10.6379C53.4762 10.6802 53.6853 10.8891 52.9811 11.1703ZM35.1659 11.4427C39.8237 12.0192 39.7161 12.051 32.5183 12.2264C28.3706 12.3269 23.4391 13.011 21.487 13.7559C19.5455 14.4964 16.2669 15.6512 14.2001 16.3212C12.1342 16.9912 8.95712 18.5938 7.14004 19.8826L3.83683 22.2249L7.36686 19.0751C9.79993 16.9048 13.0899 15.2483 17.957 13.7444C26.8262 11.0037 29.1339 10.6952 35.1659 11.4427ZM49.286 12.5464C51.4702 13.0454 52.8363 13.606 52.3218 13.7912C51.8073 13.9772 49.0274 13.5593 46.1443 12.8629C43.2611 12.1665 41.895 11.6058 43.1084 11.6173C44.3219 11.6287 47.1018 12.0466 49.286 12.5464ZM29.7411 13.5999C29.4278 13.9331 27.1218 14.7459 24.6172 15.4062C22.1127 16.0655 18.7953 17.5562 17.2456 18.7181C12.6381 22.1711 11.5385 22.3686 15.125 19.0989C17.1327 17.2689 20.1332 15.6415 22.6263 15.0315C24.912 14.4726 27.5763 13.785 28.5471 13.5046C29.5178 13.2234 30.0553 13.2666 29.7411 13.5999ZM41.5085 14.6965C40.8722 14.9513 40.1106 14.9195 39.8176 14.6269C39.5246 14.3342 40.0453 14.1261 40.9754 14.164C42.0035 14.2064 42.2127 14.4153 41.5085 14.6965ZM36.7103 14.7018C35.8613 14.9239 34.4704 14.9239 33.6215 14.7018C32.7725 14.4805 33.467 14.2989 35.1659 14.2989C36.8647 14.2989 37.5592 14.4805 36.7103 14.7018ZM30.3121 15.8575C27.8861 16.8986 26.4926 16.8986 28.1058 15.8575C28.8339 15.3876 30.0253 15.0244 30.7533 15.0518C31.6261 15.0835 31.4761 15.3577 30.3121 15.8575ZM57.2286 17.6206C58.8418 18.6617 57.4483 18.6617 55.0223 17.6206C53.8583 17.1208 53.7082 16.8466 54.581 16.8149C55.3091 16.7875 56.5005 17.1507 57.2286 17.6206ZM19.0601 20.6513C12.5595 24.5143 10.3912 26.3796 13.765 25.2054C14.614 24.9101 14.118 25.5281 12.6619 26.5789C11.2058 27.6297 7.66161 30.9037 4.7864 33.8543C1.91119 36.8048 0.410065 37.9843 1.45055 36.4751C2.49102 34.9668 4.62843 32.3882 6.20194 30.745C7.77457 29.1027 9.07718 27.3617 9.0966 26.8768C9.14161 25.759 20.7536 18.0834 23.6933 17.2292C24.9067 16.8757 22.8222 18.4157 19.0601 20.6513ZM51.051 18.5427C52.0174 19.1959 51.6608 19.2779 49.7273 18.8459C46.4823 18.1204 45.778 17.6162 48.0355 17.6338C48.9657 17.6417 50.3229 18.0499 51.051 18.5427ZM30.2168 18.8318C27.2524 19.4604 22.974 21.0084 20.7095 22.2734C18.4441 23.5375 16.8273 24.1907 17.1159 23.7244C18.2685 21.8626 26.3717 18.5691 30.853 18.1416L35.6071 17.6885L30.2168 18.8318ZM12.2207 19.0963C11.0072 19.9814 8.32615 22.2443 6.26373 24.1238C4.2013 26.0041 2.51307 27.1281 2.51307 26.6221C2.51307 25.6074 7.64838 21.3892 11.7794 19.0108C14.3978 17.5033 14.4022 17.5042 12.2207 19.0963ZM42.4466 19.0857C41.8394 19.3308 40.8466 19.3308 40.2403 19.0857C39.6331 18.8415 40.13 18.6414 41.3434 18.6414C42.5569 18.6414 43.0528 18.8415 42.4466 19.0857ZM56.3461 20.2652C57.0741 20.7351 57.2727 21.1194 56.7873 21.1194C56.3019 21.1194 55.3091 20.7351 54.581 20.2652C53.853 19.7954 53.6544 19.411 54.1398 19.411C54.6252 19.411 55.618 19.7954 56.3461 20.2652ZM46.8591 19.9673C46.2519 20.2123 45.2591 20.2123 44.6528 19.9673C44.0457 19.7231 44.5425 19.523 45.756 19.523C46.9694 19.523 47.4654 19.7231 46.8591 19.9673ZM37.576 20.8761C36.7173 21.1 35.5259 21.0851 34.9285 20.8435C34.331 20.602 35.0335 20.4195 36.4896 20.4371C37.9458 20.4548 38.4347 20.6522 37.576 20.8761ZM54.581 22.0283C55.3091 22.4982 55.5077 22.8825 55.0223 22.8825C54.5369 22.8825 53.5441 22.4982 52.816 22.0283C52.088 21.5585 51.8894 21.1741 52.3748 21.1741C52.8602 21.1741 53.853 21.5585 54.581 22.0283ZM45.0941 21.7304C44.4869 21.9754 43.4941 21.9754 42.8878 21.7304C42.2806 21.4862 42.7775 21.2861 43.9909 21.2861C45.2044 21.2861 45.7004 21.4862 45.0941 21.7304ZM28.2708 21.7489C27.6346 22.0036 26.8729 21.9719 26.5799 21.6792C26.2869 21.3866 26.8076 21.1785 27.7378 21.2164C28.7659 21.2587 28.9751 21.4677 28.2708 21.7489ZM7.33158 26.7182C4.9241 29.4598 2.60571 31.7077 2.18035 31.7139C1.27048 31.7271 8.41793 23.7253 10.3727 22.5423C11.1078 22.0971 9.73906 23.9765 7.33158 26.7182ZM58.5462 23.7817C58.855 24.2807 58.5011 24.4288 57.7157 24.1282C56.1872 23.5419 55.9075 22.9099 57.1765 22.9099C57.6336 22.9099 58.2496 23.3022 58.5462 23.7817ZM41.106 23.5208C40.2474 23.7447 39.056 23.7297 38.4585 23.4882C37.8611 23.2466 38.5635 23.0641 40.0197 23.0818C41.4758 23.0994 41.9647 23.2969 41.106 23.5208ZM35.0926 23.2263C34.8896 23.4009 32.739 23.772 30.3121 24.0524C27.473 24.3803 26.5288 24.2895 27.6645 23.7976C29.351 23.0677 35.8577 22.5678 35.0926 23.2263ZM17.5157 26.5515C11.1917 30.5467 7.78253 33.7829 3.93745 39.4389C0.926331 43.8677 0.12764 44.2971 2.14329 40.4024C4.47311 35.9021 11.3064 29.1838 16.86 25.9327C24.0269 21.7365 24.4716 22.1561 17.5157 26.5515ZM50.4836 25.1622C56.7661 27.463 67.8187 35.1686 67.8187 37.2464C67.8187 37.7939 66.5284 37.0499 64.9505 35.5927C59.7702 30.8076 55.2138 27.888 49.7828 25.8701C46.8397 24.7779 45.0279 23.8901 45.756 23.8998C46.484 23.9087 48.6118 24.4764 50.4836 25.1622ZM61.0269 27.8818C63.843 29.6202 65.9751 31.2158 65.7633 31.4274C65.5515 31.6389 62.8502 30.2091 59.7596 28.2503C56.6682 26.2924 54.5369 24.6968 55.0223 24.7047C55.5077 24.7135 58.2099 26.1425 61.0269 27.8818ZM36.269 25.2565C35.6618 25.5016 34.669 25.5016 34.0627 25.2565C33.4556 25.0124 33.9524 24.8122 35.1659 24.8122C36.3793 24.8122 36.8753 25.0124 36.269 25.2565ZM21.9327 26.6362C16.0781 29.5303 6.52406 39.5535 3.39822 46.0787C1.95443 49.0935 1.0172 50.5684 1.31637 49.3562C2.3392 45.2139 5.16413 40.1018 8.71535 35.9673C12.3928 31.6857 22.2371 24.6721 24.5687 24.6738C25.3003 24.6738 24.1142 25.5572 21.9327 26.6362ZM63.4061 26.4361C64.2013 26.9491 64.3107 27.2956 63.6788 27.3044C63.1008 27.3114 62.3824 26.9209 62.0824 26.4361C61.4055 25.3412 61.7108 25.3412 63.4061 26.4361ZM31.8565 26.1381C31.2493 26.3832 30.2565 26.3832 29.6502 26.1381C29.043 25.8939 29.5399 25.6938 30.7533 25.6938C31.9668 25.6938 32.4627 25.8939 31.8565 26.1381ZM11.7794 26.4361C11.4793 26.9209 10.8369 27.3176 10.3515 27.3176C9.86614 27.3176 9.71433 26.9209 10.0144 26.4361C10.3144 25.9512 10.9569 25.5545 11.4423 25.5545C11.9276 25.5545 12.0795 25.9512 11.7794 26.4361ZM49.286 27.3176C50.0141 27.7875 50.2126 28.1718 49.7273 28.1718C49.2419 28.1718 48.2491 27.7875 47.521 27.3176C46.7929 26.8477 46.5943 26.4634 47.0797 26.4634C47.5651 26.4634 48.5579 26.8477 49.286 27.3176ZM43.3291 27.9012C42.7219 28.1463 41.7291 28.1463 41.1228 27.9012C40.5156 27.657 41.0125 27.4569 42.2259 27.4569C43.4394 27.4569 43.9353 27.657 43.3291 27.9012ZM35.3309 27.9197C34.6946 28.1745 33.933 28.1427 33.64 27.8501C33.347 27.5574 33.8677 27.3493 34.7979 27.3872C35.826 27.4295 36.0351 27.6385 35.3309 27.9197ZM25.4583 27.9382C24.7302 28.2027 22.8443 29.1953 21.2664 30.1438C19.6884 31.0933 18.3982 31.5138 18.3982 31.0791C18.3982 30.1676 24.1098 27.2832 25.7089 27.3872C26.309 27.426 26.1978 27.6693 25.4583 27.9382ZM57.8905 32.018C62.633 35.2057 68.4117 41.1367 70.3762 44.8313C71.0601 46.1175 69.6825 45.0314 67.2874 42.3982C64.9099 39.7835 62.8201 37.2658 62.6428 36.8039C62.4654 36.3411 59.9211 34.4149 56.9894 32.5222C54.0586 30.6296 52.0782 29.0807 52.5901 29.0807C53.102 29.0807 55.4874 30.4021 57.8905 32.018ZM55.2897 33.1605C58.8347 35.3899 61.5608 37.3884 61.3481 37.6017C61.0145 37.9341 58.9203 36.7114 48.7318 30.2346C47.8228 29.6572 47.4769 29.1671 47.9622 29.145C48.4476 29.1239 51.7447 30.9302 55.2897 33.1605ZM44.8735 30.2963C46.5723 30.9222 49.9479 32.6774 52.3748 34.1972C54.8017 35.7161 58.2311 37.7498 59.9961 38.716C63.3205 40.5373 66.9706 44.714 70.302 50.5084C73.3096 55.7404 72.5251 55.6187 69.1521 50.3304C67.4842 47.7139 64.7025 44.2785 62.9719 42.6944C58.6538 38.7442 46.0798 31.3251 41.7847 30.1932C39.8432 29.681 39.0489 29.2394 40.0197 29.2103C40.9904 29.1821 43.1746 29.6704 44.8735 30.2963ZM27.0071 29.5902C26.7264 29.8706 24.7743 31.0201 22.6687 32.1458C20.5621 33.2707 18.8386 34.5286 18.8368 34.9421C18.8351 35.3547 17.7928 37.0807 16.5202 38.7777C13.1235 43.308 12.556 44.662 10.4062 53.3558C7.92546 63.3869 7.6325 76.4761 9.77964 81.3123C10.5871 83.1309 10.9031 84.6181 10.4812 84.6181C9.69756 84.6181 7.48775 78.4376 6.49847 73.4806C5.66361 69.2951 10.3347 46.3669 12.8499 42.3039C13.6 41.0918 15.2547 38.9566 16.5264 37.5594C17.8581 36.0978 18.2782 35.1916 17.5157 35.4252C15.4118 36.0696 10.5924 42.9315 9.5643 46.746C7.18329 55.5773 5.16059 66.8576 5.16059 71.3032C5.16059 79.796 10.2597 90.3631 17.0709 95.9856C22.6934 100.627 24.484 100.69 19.3513 96.0658C17.206 94.1335 15.1321 92.552 14.7411 92.552C13.863 92.552 11.3258 87.7696 11.3726 86.2049C11.392 85.5746 11.948 86.3001 12.609 87.8181C13.2708 89.3353 14.2478 90.8462 14.7808 91.1759C16.0737 91.9746 16.011 91.5806 14.2937 88.1416C10.8722 81.2911 8.81859 73.7292 9.16629 69.2607C9.66227 62.8924 11.2605 54.0558 12.8473 48.9155C14.9891 41.9759 20.856 34.8733 26.782 32.0453C29.419 30.7865 29.4216 30.7882 27.3672 32.3556C17.6905 39.7386 14.7746 44.4548 12.1306 56.9931C9.74523 68.3086 10.1865 74.7933 14.0122 84.6181C17.1513 92.6798 22.4224 99.0825 28.6741 102.43C32.9843 104.738 33.3188 103.894 29.1789 101.158C24.6093 98.1366 18.7256 92.2153 17.0197 88.92C14.9608 84.9425 15.996 84.9452 18.2341 88.9236C20.0582 92.165 29.449 100.319 30.3377 99.4325C30.8654 98.9044 24.3534 92.9205 23.5441 93.1894C23.2185 93.2978 21.5082 91.2156 19.7449 88.5612C17.9817 85.9078 16.2113 83.7365 15.8107 83.7365C14.8946 83.7365 13.3882 80.012 12.338 75.1538C11.3946 70.7884 12.481 59.1696 14.5028 52.0009C16.4223 45.1962 21.1543 38.3263 25.4186 36.1533C30.2741 33.6788 31.0684 33.9336 26.6832 36.5597C20.1712 40.4588 15.9493 48.3469 14.006 60.2477C13.1129 65.7186 13.1693 66.4001 14.6043 67.4482C16.7117 68.9883 17.183 68.3377 15.8125 65.7803C14.9211 64.1169 14.9123 62.642 15.7657 58.5085C17.6234 49.5149 19.9664 44.4725 24.0206 40.74C27.4377 37.5938 33.8006 34.4758 34.789 35.4631C35.0026 35.6764 33.632 36.3129 31.7426 36.8788C24.5431 39.0333 18.1387 48.6237 16.935 59.0533C16.5273 62.5856 18.2252 75.5902 19.7838 80.8715C20.1059 81.9629 20.0105 82.855 19.5728 82.855C19.1351 82.855 18.7132 82.1612 18.6356 81.3123C18.3505 78.204 16.6905 70.2771 16.2272 69.8143C15.4241 69.0121 15.6951 73.2118 16.8088 78.8352C17.8016 83.8503 22.3766 92.3977 23.4788 91.2967C23.7524 91.0234 23.4162 90.1031 22.7322 89.2515C20.6168 86.6219 19.2251 83.7365 20.0714 83.7365C20.5145 83.7365 22.0641 85.8196 23.515 88.3647C25.971 92.6754 31.6358 99.0331 31.6358 97.4807C31.6358 97.1008 30.0906 95.0362 28.202 92.8932C23.8609 87.9662 20.5692 81.0364 19.8746 75.3619C19.3486 71.0599 19.3849 71.1058 21.3917 77.2792C24.6685 87.3597 31.6226 97.2797 34.2675 95.6471C34.8226 95.3042 36.1305 95.7573 37.1736 96.653C38.2158 97.5486 37.2389 96.154 35.0026 93.5526C29.8638 87.5766 22.6652 73.009 24.1292 71.5474C24.3516 71.3244 24.7734 71.8939 25.0656 72.8115C27.8216 81.4639 38.2723 96.9597 41.3513 96.9597C41.8579 96.9597 40.4803 95.1693 38.2899 92.9822C34.7784 89.4737 31.7144 84.8464 29.689 79.99C28.3229 76.7159 30.425 78.6544 32.5201 82.6011C36.2328 89.5962 43.7094 96.9236 50.1685 99.897C53.3235 101.349 57.2948 102.824 58.9936 103.174C61.792 103.749 61.8511 103.819 59.621 103.911C58.2673 103.966 54.0807 102.606 50.3168 100.888C44.9467 98.4354 43.0122 97.9339 41.3284 98.5562C39.363 99.2817 39.8132 99.6564 46.6606 102.995C50.7739 104.999 53.8556 106.644 53.5088 106.649C51.8426 106.67 44.1886 103.603 41.1854 101.709C39.3304 100.539 37.8134 99.8997 37.8134 100.288C37.8134 101.494 46.8926 106.554 50.6098 107.42C52.5513 107.872 53.4753 108.282 52.6625 108.332C50.4032 108.467 42.1227 106.583 39.0039 105.223C35.7492 103.806 31.6535 103.533 34.7246 104.939C37.9105 106.398 41.7608 107.854 43.1084 108.111C43.8365 108.25 46.815 108.93 49.7273 109.624L55.0223 110.884L51.2134 110.975C49.1192 111.024 46.5564 110.61 45.5194 110.057C44.1048 109.3 43.5497 109.3 43.2973 110.057C42.6892 111.881 34.9876 111.169 29.9397 108.823C27.308 107.599 23.7339 106.242 21.9971 105.806C17.3533 104.642 11.5729 102.337 13.1032 102.26C14.1225 102.208 14.0333 101.896 12.714 100.898C11.7715 100.187 11.3488 99.6044 11.7741 99.6044C12.2004 99.6044 13.3679 100.343 14.3704 101.245C16.1522 102.85 21.2319 104.934 23.1629 104.852C23.6977 104.83 22.3474 103.873 20.1632 102.727C17.979 101.58 14.802 99.1195 13.1032 97.2595C10.5615 94.4773 10.483 94.2939 12.6619 96.2263C14.118 97.5186 17.0965 99.5206 19.2807 100.676C21.4649 101.832 24.2448 103.411 25.4583 104.185C26.6717 104.959 28.6574 105.856 29.8708 106.179C32.2342 106.808 27.8322 103.816 21.9379 100.787C20.2435 99.9156 16.9677 97.3829 14.6572 95.1579C12.346 92.9337 10.4433 91.5356 10.4274 92.053C10.3586 94.3715 2.51307 80.7164 2.51307 78.2771C2.51307 77.6706 3.86506 79.9926 5.51711 83.4368C7.17005 86.881 8.95713 89.9673 9.4884 90.2961C10.9745 91.2138 10.6392 89.7778 8.57589 86.3979C5.33444 81.0857 4.05219 76.47 4.20132 70.6473C4.39283 63.1948 8.91035 43.9471 11.2331 40.688C13.7836 37.1107 18.67 32.9542 22.8001 30.8491C26.1925 29.1204 28.0273 28.5712 27.0071 29.5902ZM44.4658 32.8625C51.3025 35.8589 60.2511 41.8446 63.1572 45.3664C66.1948 49.0468 73.5276 61.5789 72.9699 62.1351C72.7616 62.3432 70.2871 58.7914 67.4701 54.2427C61.9412 45.3152 60.8751 44.1375 54.0754 39.4353C48.2693 35.4208 44.3546 33.4197 43.6618 34.1117C43.3573 34.4149 43.1084 34.1963 43.1084 33.6251C43.1084 32.9516 41.9435 32.7056 39.799 32.9251C37.9784 33.112 37.2486 33.0803 38.177 32.8555C39.5431 32.5249 39.6269 32.2966 38.6182 31.6592C36.1243 30.0812 39.8864 30.8561 44.4658 32.8625ZM14.3078 35.3229C12.301 37.4651 9.59169 40.9419 8.28735 43.0479C6.98299 45.1548 5.71391 46.6763 5.4668 46.4295C4.41132 45.3752 11.2031 36.4857 15.5548 33.2266C17.0665 32.0947 16.6041 32.8722 14.3078 35.3229ZM33.6215 34.072C33.0143 34.3171 32.0215 34.3171 31.4152 34.072C30.808 33.8278 31.3049 33.6277 32.5183 33.6277C33.7318 33.6277 34.2278 33.8278 33.6215 34.072ZM44.253 35.6412C51.3528 38.1712 61.236 46.5406 64.3169 52.6321C64.9999 53.9817 66.607 56.6731 67.8884 58.6125C70.5633 62.6605 73.7271 68.7406 72.4748 67.4279C72.0132 66.9431 69.6993 63.5712 67.3333 59.9348C64.9673 56.2984 62.7186 53.191 62.3365 53.0297C61.9535 52.8675 61.6385 52.2724 61.6358 51.7073C61.6243 49.2408 51.7411 40.5249 45.5362 37.5092C38.9236 34.295 38.4197 33.5634 44.253 35.6412ZM38.9165 37.5982C38.3094 37.8433 37.3165 37.8433 36.7103 37.5982C36.1031 37.354 36.5999 37.1539 37.8134 37.1539C39.0268 37.1539 39.5228 37.354 38.9165 37.5982ZM46.1972 39.3877C52.17 42.5939 56.7847 47.4847 63.4555 57.6798C67.2803 63.5262 70.836 68.8058 71.3558 69.4114C71.8756 70.0179 71.9647 70.5134 71.5534 70.5134C71.1422 70.5134 69.5651 68.8278 68.049 66.7668C66.5328 64.7057 63.9251 61.2104 62.2553 58.9995C60.5848 56.7877 58.9697 54.1951 58.6653 53.2377C57.7148 50.2475 47.9437 41.2055 43.8842 39.5605C41.6982 38.6746 40.7866 37.9887 41.7847 37.9808C42.7554 37.9728 44.7411 38.6067 46.1972 39.3877ZM34.4484 38.4982C33.8121 38.753 33.0505 38.7213 32.7575 38.4286C32.4645 38.1359 32.9852 37.9279 33.9154 37.9658C34.9435 38.0081 35.1526 38.217 34.4484 38.4982ZM29.344 40.6995C25.9251 43.1264 23.6085 46.6578 21.1878 53.1363C19.4334 57.8305 18.46 68.1006 19.9064 66.6557C20.2506 66.3119 20.4456 64.5594 20.3406 62.7619C20.2197 60.7185 21.2258 56.8785 23.0235 52.5157C26.4811 44.126 30.215 40.5866 36.1649 40.0595C39.9138 39.7271 39.9305 39.7368 36.7861 40.4191C35.0079 40.8044 32.5007 41.8085 31.2149 42.6503C28.4156 44.4831 24.0171 51.1661 23.2176 54.8033C22.5734 57.7318 23.3641 59.3503 24.1707 56.7551C24.4558 55.8374 25.6436 53.0217 26.8103 50.497C28.9689 45.8257 31.2175 43.7708 35.1659 42.8601C36.4711 42.5595 36.1013 42.9007 34.2595 43.695C30.23 45.4334 26.2569 51.6439 25.6674 57.1227C25.1141 62.2762 26.2878 61.437 27.3151 55.9449C28.2867 50.7473 30.8636 47.1524 34.9911 45.2341C36.7862 44.4002 38.5141 43.3397 38.8309 42.8769C39.356 42.1108 44.8717 44.9221 48.4838 47.7977C49.256 48.4121 51.464 51.494 53.3914 54.6455C58.0873 62.3264 58.495 63.0731 61.3446 69.191C62.6992 72.1001 65.405 76.2452 67.358 78.4032C70.7786 82.1833 70.8033 82.2538 68.0411 80.3276C65.1147 78.2877 59.8761 71.4337 59.8761 69.645C59.8761 69.0994 58.2876 66.3172 56.3461 63.461C54.4045 60.6048 52.816 58.0219 52.816 57.7204C52.816 57.4189 51.8232 55.8726 50.6098 54.2832C49.3963 52.6938 48.4035 50.9545 48.4035 50.4176C48.4035 49.8799 46.574 48.1838 44.3386 46.6473L40.2729 43.8536L35.8198 45.9367C31.1214 48.1353 29.8337 50.0465 28.2214 57.2108C27.4686 60.5598 28.2699 63.1154 29.2848 60.6012C29.5302 59.9921 29.7905 60.6841 29.8629 62.1387C29.9353 63.5932 30.3359 65.5767 30.7533 66.5464C31.4293 68.1182 31.5185 68.1367 31.5741 66.7165C31.6076 65.8403 31.184 63.3323 30.6324 61.1434C29.3219 55.9432 30.7251 51.0056 34.2207 48.5188C38.0552 45.7913 38.3261 46.3466 34.7873 49.6807C32.1009 52.2116 31.6358 53.2227 31.6358 56.532C31.6358 63.1895 34.6425 71.967 39.2104 78.6456C43.78 85.3251 51.9865 92.7398 57.661 95.3148C59.6069 96.1981 60.6042 96.9262 59.8761 96.9315C58.0837 96.9465 49.6514 92.9734 48.9012 91.7613C48.5703 91.2262 47.8766 90.7889 47.3612 90.7889C45.1858 90.7889 49.2551 93.9308 55.0223 96.7032C58.42 98.3367 60.207 99.421 58.9936 99.1133C52.2821 97.4084 40.9172 90.0396 42.5242 88.4343C42.9249 88.0341 43.8118 88.4704 44.4948 89.404C45.1788 90.3376 46.0013 90.8374 46.3234 90.5156C46.6455 90.1939 45.6677 88.6362 44.1498 87.0538C39.0851 81.7733 37.7455 79.8798 34.9744 74.0792C33.46 70.91 32.0577 68.8076 31.8582 69.407C31.6579 70.0065 32.7178 72.7525 34.2127 75.51C35.7077 78.2674 36.9309 80.9376 36.9309 81.4445C36.9309 82.7395 34.2128 78.7505 31.8856 74.0395C30.5821 71.4002 29.9167 70.6773 29.8982 71.8798C29.8832 72.8741 30.313 74.1286 30.8522 74.6681C31.3923 75.2067 31.6358 76.1791 31.3923 76.827C30.7277 78.6007 28.299 72.3928 27.601 67.1353C27.2683 64.6299 26.6426 62.5794 26.2102 62.5794C25.7777 62.5794 25.6083 63.4716 25.8316 64.5629C27.0265 70.3802 27.2542 73.5476 26.3867 72.2765C25.8907 71.5492 25.4795 69.697 25.4715 68.1614C25.4645 66.6249 25.1609 64.6414 24.7964 63.7537C24.3101 62.5671 23.9942 63.1912 23.605 66.1056C23.1038 69.8637 23.0658 69.7711 22.8875 64.3425C22.7428 59.9348 22.5151 59.0691 21.9027 60.5915C19.6487 66.192 24.1777 80.8336 31.3816 91.2297L34.4351 95.6374L30.3703 91.2341C26.3055 86.8308 23.6015 81.121 21.7164 72.9632C20.8101 69.0412 19.4122 67.3266 19.1792 69.8522C19.1236 70.4587 18.7494 69.3673 18.3488 67.4279C16.6155 59.0383 21.5964 45.1707 27.9725 40.6351C29.4093 39.6134 30.9148 38.7777 31.3181 38.7777C31.7223 38.7777 30.8336 39.6425 29.344 40.6995ZM44.8735 41.8631C45.478 42.5904 46.4725 43.1854 47.085 43.1854C49.5207 43.1854 62.5236 60.6233 62.5236 63.8903C62.5236 65.6983 65.6468 71.9062 68.4055 75.5822C69.5881 77.1576 70.3497 78.4473 70.0982 78.4473C69.0745 78.4473 62.6136 69.0121 62.0268 66.6592C61.1963 63.3279 52.9122 50.586 49.1563 46.8632C47.5289 45.2491 44.8073 43.1845 43.1084 42.2739C40.6251 40.9428 40.3877 40.6113 41.8976 40.5796C42.9302 40.5584 44.2689 41.1358 44.8735 41.8631ZM43.6715 48.0304C45.2335 49.2602 50.0035 56.2685 54.6155 64.1089C59.4216 72.28 64.2798 79.3861 66.4075 81.3546C68.3967 83.1953 69.1663 84.291 68.117 83.7886C65.8727 82.7148 58.8383 74.8788 57.1086 71.5254C56.4467 70.2418 55.3956 68.6542 54.7726 67.9974C54.1504 67.3407 52.8866 65.3263 51.9644 63.5218C49.0698 57.8535 43.2637 49.6066 40.813 47.6804C39.5122 46.6587 39.0048 45.8345 39.6799 45.8398C40.3524 45.8451 42.1483 46.8306 43.6715 48.0304ZM41.925 50.4582C42.9002 51.5495 45.6254 55.8136 47.9825 59.9348C50.3388 64.056 53.0852 68.4752 54.086 69.7543C55.0858 71.0344 57.4933 74.3463 59.4348 77.1152C61.3764 79.8842 64.346 83.3002 66.0342 84.7063C67.7225 86.1123 68.6526 87.2627 68.1028 87.2627C66.9079 87.2627 55.3726 74.5676 50.8101 68.2328C49.0345 65.7653 46.7647 61.8451 45.7666 59.5196C44.7693 57.1941 42.7369 53.7578 41.2499 51.8836C38.3808 48.264 38.9298 47.1057 41.925 50.4582ZM6.84971 48.9155C6.75793 50.5851 5.28767 53.3973 5.23648 52.0009C5.20913 51.2736 5.57272 50.0835 6.0431 49.3562C6.51347 48.629 6.87707 48.4306 6.84971 48.9155ZM39.3525 51.3397C39.8335 51.9462 40.4936 54.5406 40.8201 57.105C41.4493 62.0496 43.2373 65.8271 48.0002 72.2765C52.3527 78.1696 61.6182 86.8511 65.4235 88.6009C67.2609 89.4463 68.5785 90.3243 68.3508 90.5509C67.5301 91.3716 59.3369 86.2058 55.0223 82.1471C50.1341 77.5481 41.2269 66.6513 41.4255 65.5115C41.7423 63.6955 41.234 63.1348 40.3638 64.3425C39.5837 65.426 39.5122 65.359 39.9659 63.9723C40.5871 62.0778 38.8653 53.0438 37.5592 51.3397C37.0156 50.6301 37.0288 50.2378 37.5972 50.2378C38.0826 50.2378 38.8724 50.7341 39.3525 51.3397ZM35.2276 51.7012C34.2163 53.7904 35.2665 64.8186 36.8797 69.0562C39.3375 75.5144 51.3069 89.3881 57.0838 92.4753C59.877 93.9678 60.4533 93.1329 57.8199 91.4086C53.5538 88.6168 47.3003 82.3322 42.9363 76.4523C38.1902 70.0567 36.1145 63.699 36.1066 55.5271C36.1004 49.8808 37.5177 52.8481 38.0419 59.5795C38.432 64.5929 38.8327 65.4233 43.998 71.9159C50.3265 79.871 59.8152 88.9341 64.1501 91.1645C65.773 91.9993 66.8991 92.8835 66.6529 93.1294C65.9945 93.7862 62.6022 91.8565 58.2832 88.37C56.1943 86.6827 54.3048 85.482 54.0851 85.7006C53.4505 86.3353 61.7567 93.5543 64.7016 94.9278C66.7949 95.9037 66.8973 96.0509 65.1711 95.603C63.9577 95.2892 61.7735 94.8123 60.3173 94.5443C53.4461 93.2802 42.6557 83.1124 37.1506 72.7172C34.8808 68.4294 33.7036 64.4527 32.9614 58.5631C32.4866 54.7927 32.6887 53.7737 34.2737 51.9515C35.9363 50.0412 36.044 50.0121 35.2276 51.7012ZM42.7413 56.0622C44.8558 62.404 50.1297 70.8157 55.9481 77.125C57.736 79.0644 60.245 81.8095 61.5237 83.2253L63.8474 85.8002L61.1725 83.964C58.6856 82.2573 52.9157 76.3271 48.8809 71.3314C46.3949 68.2531 43.3732 62.3573 42.3089 58.5067C41.3708 55.1101 41.7352 53.0455 42.7413 56.0622ZM2.37894 55.5271C2.37894 56.2543 1.84324 58.2378 1.1893 59.9348C0.535362 61.6318 -0.000335693 62.4252 -0.000335693 61.6979C-0.000335693 60.9706 0.535362 58.9871 1.1893 57.2902C1.84324 55.5932 2.37894 54.7998 2.37894 55.5271ZM3.75652 59.9348C2.45834 67.1027 1.83707 69.281 1.74529 66.9872C1.69675 65.775 2.25539 62.9982 2.9861 60.8163C4.07335 57.5723 4.21365 57.4118 3.75652 59.9348ZM24.5061 60.4487C24.4637 61.4757 24.2546 61.6847 23.973 60.9821C23.718 60.3456 23.7497 59.5848 24.0427 59.2922C24.3357 58.9995 24.544 59.5196 24.5061 60.4487ZM28.8683 63.6091C28.9345 64.4183 29.2451 65.8068 29.5593 66.6945C30.0005 67.941 29.8823 68.0812 29.0439 67.3089C28.4456 66.7589 28.134 65.3704 28.352 64.2235C28.57 63.0766 28.8021 62.8007 28.8683 63.6091ZM67.6007 68.8111C69.1768 71.1904 70.4662 73.4013 70.4662 73.7231C70.4662 74.691 66.8638 70.2577 65.4632 67.5663C63.3311 63.4716 64.5225 64.1653 67.6007 68.8111ZM13.9857 70.0294C13.9857 71.2177 14.5779 74.4609 15.3015 77.2369C16.7215 82.6813 16.4214 84.6966 14.809 80.5533C13.6547 77.5895 12.5922 67.8687 13.4218 67.8687C13.7324 67.8687 13.9857 68.8411 13.9857 70.0294ZM44.8531 74.8938C47.3604 78.2718 50.4747 81.8104 51.7747 82.7554C53.0737 83.7013 53.7965 84.8041 53.3817 85.207C52.4763 86.0867 44.0845 76.9601 41.3831 72.1583C38.5044 67.0418 39.7611 68.0327 44.8531 74.8938ZM1.56086 71.0273C1.51849 72.0543 1.30934 72.2632 1.02782 71.5606C0.772774 70.9242 0.804527 70.1634 1.09752 69.8707C1.39051 69.578 1.59881 70.0981 1.56086 71.0273ZM28.3997 75.5091C28.7236 75.8317 28.9883 76.5061 28.9883 77.0077C28.9883 77.5596 28.5771 77.5075 27.9443 76.8755C27.3698 76.3016 27.1051 75.6272 27.3557 75.3768C27.6063 75.1256 28.0767 75.1856 28.3997 75.5091ZM37.0527 84.7107C41.9418 91.6678 47.6736 96.4952 54.2563 99.1989C57.1041 100.369 58.7756 101.335 57.9699 101.346C55.3453 101.384 45.6827 96.2933 42.1086 92.9901C38.3226 89.4913 31.9562 80.4783 32.7266 79.7079C32.9887 79.4469 34.9355 81.6975 37.0527 84.7107ZM39.7487 84.3977C41.7079 86.6774 42.428 88.1443 41.5861 88.1443C41.1766 88.1443 40.1379 86.9542 39.2775 85.4996C37.531 82.5465 37.7384 82.0598 39.7487 84.3977ZM8.19286 92.2937C8.67118 93.5499 8.57058 93.6513 7.69866 92.7874C7.09502 92.1888 6.82411 91.4774 7.09592 91.2068C7.36774 90.9352 7.86104 91.4245 8.19286 92.2937ZM10.5686 96.7393C11.6656 98.1375 11.6347 98.1683 10.235 97.0726C8.76476 95.9204 8.2979 95.1966 9.0242 95.1966C9.20688 95.1966 9.9023 95.8913 10.5686 96.7393ZM36.5699 98.8524C36.7826 99.1971 36.0572 99.6194 34.9585 99.7913C33.2976 100.052 33.7441 100.513 37.5928 102.514C42.9187 105.283 43.84 106.432 38.9165 104.165C33.069 101.472 31.1451 100.208 32.3056 99.8221C32.9137 99.6194 33.2023 99.1151 32.9463 98.7008C32.6895 98.2865 33.3135 98.0105 34.331 98.0872C35.3494 98.1639 36.3573 98.5086 36.5699 98.8524ZM46.6244 100.536C48.3161 101.479 49.1898 102.249 48.5667 102.249C47.2739 102.249 42.2259 99.7745 42.2259 99.1407C42.2259 98.3914 43.495 98.7934 46.6244 100.536ZM64.2886 100.486C66.3422 101.143 66.3616 101.198 64.5613 101.279C63.4979 101.328 62.3824 100.971 62.0824 100.486C61.7823 100.001 61.6596 99.6441 61.8097 99.6925C61.9597 99.741 63.0752 100.098 64.2886 100.486ZM52.0986 103.733C51.4623 103.987 50.7007 103.956 50.4077 103.663C50.1147 103.37 50.6354 103.162 51.5655 103.2C52.5936 103.243 52.8028 103.451 52.0986 103.733ZM57.2286 105.39C59.3598 106.196 59.7543 106.573 58.5003 106.607C57.5013 106.635 55.9128 106.074 54.9702 105.363C52.9581 103.843 53.1399 103.845 57.2286 105.39ZM36.8073 107.668C38.4373 108.137 39.5581 108.734 39.2969 108.995C38.6244 109.667 33.5227 108.448 32.9173 107.47C32.3216 106.508 32.8652 106.535 36.8073 107.668ZM25.8995 108.844C30.3297 110.597 30.7718 110.951 28.6053 111.003C26.3169 111.057 18.3982 107.967 18.3982 107.019C18.3982 106.244 20.8207 106.833 25.8995 108.844Z" fill="#0BC1A0"/>
</svg>
