<svg width="1400" height="329" viewBox="0 0 1400 329" fill="none" xmlns="http://www.w3.org/2000/svg">
<g clip-path="url(#clip0_5315_50827)">
<g filter="url(#filter0_d_5315_50827)">
<rect width="1622.53" height="96.0069" rx="6" transform="matrix(0.997701 -0.0677732 0.0698268 0.997559 -58 150.965)" fill="#0BC1A0"/>
</g>
<path d="M17.7928 213.459C15.1322 213.64 12.6244 213.376 10.2692 212.667C7.94498 211.922 5.87901 210.81 4.07132 209.329C2.29456 207.812 0.863864 205.988 -0.220767 203.857C-1.3054 201.725 -1.93838 199.363 -2.11972 196.769C-2.30106 194.175 -2.00285 191.75 -1.22509 189.492C-0.447341 187.234 0.73379 185.249 2.3183 183.538C3.90048 181.794 5.79209 180.413 7.99311 179.395C10.1918 178.343 12.6381 177.726 15.3319 177.544C18.192 177.35 20.8375 177.671 23.2685 178.509C25.6971 179.313 27.7937 180.624 29.5581 182.442L25.6432 186.666C24.2841 185.389 22.7998 184.471 21.1903 183.912C19.5784 183.319 17.8578 183.085 16.0287 183.209C14.1996 183.333 12.541 183.747 11.0531 184.449C9.59836 185.149 8.344 186.086 7.28998 187.26C6.26923 188.432 5.49522 189.788 4.96795 191.327C4.47395 192.864 4.28972 194.53 4.41526 196.326C4.5408 198.121 4.95519 199.747 5.65843 201.203C6.39493 202.656 7.35027 203.894 8.52447 204.917C9.73192 205.938 11.1049 206.697 12.6433 207.194C14.2149 207.688 15.9153 207.874 17.7444 207.749C19.5736 207.625 21.2464 207.178 22.763 206.407C24.2773 205.602 25.6174 204.459 26.7836 202.977L31.2529 206.683C29.7558 208.689 27.8616 210.27 25.5701 211.428C23.2786 212.586 20.6861 213.263 17.7928 213.459ZM37.8399 211.598L35.3988 176.683L49.7658 175.708C52.8587 175.499 55.5375 175.818 57.8022 176.667C60.1001 177.513 61.9128 178.827 63.2402 180.607C64.5677 182.388 65.3209 184.559 65.4999 187.119C65.6789 189.68 65.2349 191.932 64.1679 193.875C63.0985 195.785 61.4845 197.315 59.3261 198.463C57.1985 199.577 54.5883 200.238 51.4954 200.448L40.7202 201.179L43.4078 198.04L44.325 211.158L37.8399 211.598ZM60.6874 210.048L50.9719 197.978L57.9059 197.507L67.6713 209.574L60.6874 210.048ZM43.4566 198.738L40.3471 195.842L50.823 195.131C53.6831 194.937 55.7852 194.177 57.1292 192.849C58.5065 191.52 59.1184 189.757 58.9649 187.563C58.8092 185.335 57.9578 183.672 56.4108 182.574C54.8971 181.474 52.7101 181.021 49.8501 181.215L39.3741 181.926L42.0443 178.538L43.4566 198.738ZM74.3283 209.122L71.8872 174.207L78.3723 173.767L80.8133 208.682L74.3283 209.122ZM90.2584 208.041L87.8174 173.127L93.1551 172.764L110.202 197.217L107.408 197.406L120.642 170.899L125.98 170.537L128.471 205.449L122.335 205.865L120.517 180.58L121.814 180.492L110.532 202.657L107.639 202.853L93.1796 182.435L94.6762 182.333L96.4442 207.622L90.2584 208.041ZM142.463 184.002L159.823 182.825L160.196 188.161L142.836 189.339L142.463 184.002ZM144.008 198.932L163.712 197.595L164.093 203.032L137.903 204.809L135.462 169.894L160.953 168.164L161.333 173.601L142.327 174.891L144.008 198.932ZM195.969 201.37C193.242 201.555 190.604 201.35 188.056 200.754C185.506 200.126 183.457 199.246 181.907 198.115L183.8 192.925C185.274 193.927 187.067 194.724 189.18 195.316C191.293 195.907 193.43 196.13 195.592 195.983C197.421 195.859 198.887 195.559 199.99 195.084C201.093 194.608 201.887 194.019 202.373 193.318C202.856 192.584 203.067 191.784 203.007 190.92C202.933 189.856 202.491 189.034 201.682 188.454C200.87 187.841 199.837 187.393 198.581 187.111C197.355 186.793 195.983 186.518 194.463 186.288C192.977 186.054 191.47 185.772 189.943 185.442C188.447 185.075 187.06 184.585 185.78 183.97C184.532 183.32 183.483 182.422 182.635 181.277C181.786 180.132 181.297 178.628 181.167 176.766C181.034 174.87 181.412 173.107 182.301 171.477C183.22 169.811 184.678 168.442 186.675 167.371C188.703 166.265 191.313 165.603 194.505 165.387C196.601 165.245 198.698 165.37 200.797 165.762C202.896 166.154 204.745 166.797 206.345 167.691L204.652 172.867C203.024 172.042 201.363 171.47 199.67 171.15C197.975 170.798 196.362 170.673 194.832 170.777C193.036 170.899 191.588 171.214 190.488 171.723C189.42 172.23 188.645 172.851 188.162 173.585C187.712 174.317 187.518 175.132 187.581 176.03C187.655 177.094 188.082 177.934 188.86 178.549C189.669 179.129 190.685 179.561 191.908 179.846C193.164 180.128 194.553 180.401 196.075 180.666C197.595 180.896 199.101 181.178 200.595 181.511C202.122 181.842 203.508 182.316 204.754 182.933C206.034 183.548 207.081 184.429 207.896 185.577C208.745 186.722 209.233 188.209 209.361 190.038C209.491 191.9 209.096 193.664 208.177 195.33C207.289 196.96 205.831 198.329 203.803 199.435C201.773 200.509 199.161 201.154 195.969 201.37ZM232.68 198.879C230.019 199.06 227.511 198.796 225.156 198.087C222.832 197.342 220.766 196.23 218.958 194.749C217.181 193.232 215.751 191.408 214.666 189.277C213.581 187.145 212.948 184.783 212.767 182.189C212.586 179.595 212.884 177.17 213.662 174.912C214.439 172.654 215.621 170.669 217.205 168.958C218.787 167.214 220.679 165.833 222.88 164.815C225.079 163.763 227.525 163.146 230.219 162.964C233.079 162.77 235.724 163.091 238.155 163.929C240.584 164.733 242.68 166.044 244.445 167.862L240.53 172.087C239.171 170.809 237.687 169.891 236.077 169.332C234.465 168.739 232.745 168.505 230.916 168.629C229.086 168.754 227.428 169.167 225.94 169.869C224.485 170.569 223.231 171.506 222.177 172.68C221.156 173.852 220.382 175.208 219.855 176.747C219.361 178.284 219.177 179.95 219.302 181.746C219.428 183.541 219.842 185.167 220.545 186.623C221.282 188.076 222.237 189.314 223.411 190.337C224.619 191.358 225.992 192.117 227.53 192.614C229.102 193.108 230.802 193.294 232.631 193.17C234.46 193.045 236.133 192.598 237.65 191.827C239.164 191.022 240.504 189.879 241.67 188.397L246.14 192.103C244.643 194.109 242.748 195.69 240.457 196.848C238.165 198.006 235.573 198.683 232.68 198.879ZM257.287 176.212L274.647 175.034L275.02 180.371L257.66 181.549L257.287 176.212ZM258.832 191.141L278.536 189.804L278.916 195.241L252.727 197.018L250.286 162.103L275.777 160.374L276.157 165.81L257.151 167.1L258.832 191.141ZM286.146 194.751L283.705 159.836L289.043 159.474L312.822 184.872L310.178 185.051L308.298 158.167L314.734 157.73L317.175 192.645L311.837 193.007L288.058 167.609L290.702 167.43L292.581 194.314L286.146 194.751ZM331.092 171.204L348.452 170.026L348.825 175.363L331.465 176.541L331.092 171.204ZM332.637 186.134L352.341 184.797L352.721 190.233L326.532 192.01L324.091 157.096L349.582 155.366L349.962 160.803L330.956 162.092L332.637 186.134ZM403.722 187.274C401.061 187.455 398.554 187.191 396.198 186.482C393.874 185.737 391.808 184.625 390 183.144C388.224 181.627 386.793 179.803 385.708 177.672C384.624 175.54 383.991 173.178 383.809 170.584C383.628 167.99 383.926 165.565 384.704 163.307C385.482 161.049 386.663 159.064 388.247 157.353C389.83 155.609 391.721 154.228 393.922 153.21C396.121 152.158 398.567 151.541 401.261 151.359C404.121 151.164 406.767 151.486 409.198 152.323C411.626 153.128 413.723 154.439 415.487 156.257L411.572 160.481C410.213 159.204 408.729 158.286 407.119 157.727C405.507 157.134 403.787 156.9 401.958 157.024C400.129 157.148 398.47 157.562 396.982 158.264C395.527 158.964 394.273 159.901 393.219 161.075C392.198 162.247 391.424 163.602 390.897 165.142C390.403 166.679 390.219 168.345 390.344 170.141C390.47 171.936 390.884 173.562 391.588 175.018C392.324 176.471 393.279 177.709 394.454 178.732C395.661 179.753 397.034 180.511 398.572 181.008C400.144 181.503 401.844 181.689 403.674 181.564C405.503 181.44 407.176 180.993 408.692 180.222C410.206 179.417 411.547 178.274 412.713 176.792L417.182 180.498C415.685 182.503 413.791 184.085 411.499 185.243C409.208 186.401 406.615 187.078 403.722 187.274ZM423.769 185.413L421.328 150.498L435.695 149.523C438.788 149.313 441.467 149.633 443.731 150.482C446.029 151.328 447.842 152.642 449.169 154.422C450.497 156.203 451.25 158.374 451.429 160.934C451.608 163.495 451.164 165.747 450.097 167.69C449.028 169.6 447.414 171.13 445.255 172.278C443.128 173.392 440.517 174.053 437.425 174.263L426.649 174.994L429.337 171.855L430.254 184.973L423.769 185.413ZM446.616 183.863L436.901 171.793L443.835 171.322L453.6 183.389L446.616 183.863ZM429.386 172.553L426.276 169.657L436.752 168.946C439.612 168.752 441.714 167.992 443.058 166.664C444.436 165.335 445.048 163.572 444.894 161.378C444.738 159.15 443.887 157.487 442.34 156.389C440.826 155.289 438.639 154.836 435.779 155.03L425.303 155.741L427.973 152.353L429.386 172.553ZM460.257 182.937L457.816 148.022L464.301 147.582L466.742 182.497L460.257 182.937ZM476.188 181.856L473.746 146.942L479.084 146.579L496.131 171.031L493.338 171.221L506.571 144.714L511.909 144.352L514.4 179.264L508.264 179.68L506.446 154.395L507.743 154.307L496.461 176.472L493.568 176.668L479.109 156.25L480.605 156.148L482.373 181.437L476.188 181.856ZM528.392 157.817L545.752 156.639L546.125 161.976L528.765 163.154L528.392 157.817ZM529.937 172.747L549.642 171.41L550.022 176.847L523.832 178.624L521.391 143.709L546.882 141.979L547.262 147.416L528.256 148.706L529.937 172.747ZM581.898 175.185C579.171 175.37 576.533 175.165 573.986 174.569C571.436 173.94 569.386 173.061 567.837 171.929L569.729 166.739C571.203 167.742 572.996 168.539 575.109 169.131C577.222 169.722 579.359 169.945 581.521 169.798C583.35 169.674 584.816 169.374 585.919 168.898C587.022 168.423 587.816 167.834 588.302 167.133C588.785 166.399 588.997 165.599 588.936 164.735C588.862 163.671 588.42 162.849 587.611 162.269C586.799 161.656 585.766 161.208 584.51 160.926C583.284 160.608 581.912 160.333 580.392 160.102C578.906 159.869 577.399 159.587 575.872 159.256C574.376 158.89 572.989 158.4 571.709 157.785C570.461 157.135 569.413 156.237 568.564 155.092C567.715 153.946 567.226 152.443 567.096 150.581C566.963 148.685 567.341 146.922 568.23 145.292C569.149 143.626 570.607 142.257 572.604 141.186C574.632 140.08 577.242 139.418 580.435 139.202C582.53 139.06 584.627 139.185 586.726 139.577C588.825 139.969 590.675 140.612 592.274 141.505L590.581 146.682C588.953 145.857 587.292 145.285 585.599 144.965C583.904 144.613 582.291 144.488 580.761 144.592C578.965 144.714 577.517 145.029 576.417 145.538C575.349 146.045 574.574 146.665 574.091 147.4C573.641 148.132 573.447 148.947 573.51 149.845C573.584 150.909 574.011 151.749 574.789 152.364C575.598 152.944 576.614 153.376 577.837 153.661C579.093 153.943 580.482 154.216 582.004 154.48C583.524 154.711 585.031 154.993 586.524 155.326C588.051 155.657 589.437 156.131 590.683 156.748C591.963 157.363 593.01 158.244 593.825 159.391C594.674 160.537 595.162 162.024 595.29 163.853C595.42 165.715 595.026 167.479 594.106 169.145C593.218 170.775 591.76 172.144 589.732 173.25C587.702 174.324 585.09 174.968 581.898 175.185ZM618.609 172.694C615.948 172.875 613.44 172.611 611.085 171.902C608.761 171.157 606.695 170.045 604.887 168.564C603.11 167.047 601.68 165.223 600.595 163.092C599.511 160.96 598.878 158.598 598.696 156.004C598.515 153.41 598.813 150.985 599.591 148.727C600.369 146.469 601.55 144.484 603.134 142.773C604.716 141.029 606.608 139.648 608.809 138.63C611.008 137.578 613.454 136.961 616.148 136.779C619.008 136.585 621.653 136.906 624.084 137.744C626.513 138.548 628.61 139.859 630.374 141.677L626.459 145.901C625.1 144.624 623.616 143.706 622.006 143.147C620.394 142.554 618.674 142.32 616.845 142.444C615.016 142.568 613.357 142.982 611.869 143.684C610.414 144.384 609.16 145.321 608.106 146.495C607.085 147.667 606.311 149.023 605.784 150.562C605.29 152.099 605.106 153.765 605.231 155.561C605.357 157.356 605.771 158.982 606.474 160.438C607.211 161.891 608.166 163.129 609.34 164.152C610.548 165.173 611.921 165.932 613.459 166.429C615.031 166.923 616.731 167.109 618.56 166.984C620.39 166.86 622.062 166.413 623.579 165.642C625.093 164.837 626.433 163.694 627.599 162.212L632.069 165.918C630.572 167.924 628.677 169.505 626.386 170.663C624.094 171.821 621.502 172.498 618.609 172.694ZM643.216 150.027L660.576 148.849L660.949 154.186L643.589 155.364L643.216 150.027ZM644.761 164.956L664.465 163.619L664.846 169.056L638.656 170.833L636.215 135.918L661.706 134.189L662.086 139.625L643.08 140.915L644.761 164.956ZM672.075 168.565L669.634 133.651L674.972 133.289L698.751 158.687L696.107 158.866L694.227 131.982L700.663 131.545L703.104 166.46L697.766 166.822L673.987 141.424L676.631 141.244L678.51 168.129L672.075 168.565ZM717.021 145.019L734.381 143.841L734.754 149.178L717.394 150.356L717.021 145.019ZM718.566 159.949L738.27 158.612L738.651 164.048L712.461 165.825L710.02 130.911L735.511 129.181L735.891 134.618L716.885 135.907L718.566 159.949ZM789.651 161.089C786.99 161.27 784.483 161.006 782.127 160.297C779.803 159.552 777.737 158.44 775.93 156.959C774.153 155.442 772.722 153.618 771.637 151.487C770.553 149.355 769.92 146.993 769.739 144.399C769.557 141.805 769.855 139.379 770.633 137.122C771.411 134.864 772.592 132.879 774.177 131.168C775.759 129.424 777.65 128.042 779.851 127.024C782.05 125.973 784.496 125.356 787.19 125.173C790.05 124.979 792.696 125.301 795.127 126.138C797.555 126.942 799.652 128.254 801.416 130.072L797.501 134.296C796.142 133.019 794.658 132.1 793.048 131.541C791.437 130.949 789.716 130.715 787.887 130.839C786.058 130.963 784.399 131.377 782.911 132.079C781.457 132.779 780.202 133.716 779.148 134.89C778.127 136.062 777.353 137.417 776.826 138.957C776.332 140.494 776.148 142.16 776.273 143.955C776.399 145.751 776.813 147.377 777.517 148.832C778.253 150.286 779.209 151.524 780.383 152.547C781.59 153.568 782.963 154.326 784.501 154.823C786.073 155.318 787.774 155.503 789.603 155.379C791.432 155.255 793.105 154.808 794.621 154.037C796.135 153.232 797.476 152.089 798.642 150.607L803.111 154.312C801.614 156.318 799.72 157.9 797.428 159.058C795.137 160.216 792.544 160.893 789.651 161.089ZM809.698 159.228L807.257 124.313L821.624 123.338C824.717 123.128 827.396 123.448 829.66 124.296C831.958 125.143 833.771 126.456 835.098 128.237C836.426 130.018 837.179 132.189 837.358 134.749C837.537 137.31 837.093 139.562 836.026 141.505C834.957 143.415 833.343 144.944 831.184 146.093C829.057 147.206 826.447 147.868 823.354 148.078L812.578 148.809L815.266 145.67L816.183 158.788L809.698 159.228ZM832.546 157.678L822.83 145.608L829.764 145.137L839.53 157.204L832.546 157.678ZM815.315 146.368L812.205 143.472L822.681 142.761C825.541 142.567 827.643 141.806 828.987 140.479C830.365 139.149 830.977 137.387 830.823 135.193C830.667 132.965 829.816 131.302 828.269 130.204C826.755 129.104 824.568 128.651 821.708 128.845L811.232 129.556L813.903 126.167L815.315 146.368ZM846.186 156.752L843.745 121.837L850.231 121.397L852.672 156.312L846.186 156.752ZM862.117 155.671L859.676 120.756L865.013 120.394L882.06 144.846L879.267 145.036L892.5 118.529L897.838 118.167L900.329 153.079L894.193 153.495L892.375 128.21L893.672 128.122L882.39 150.287L879.497 150.483L865.038 130.065L866.534 129.963L868.302 155.252L862.117 155.671ZM914.321 131.632L931.681 130.454L932.054 135.791L914.694 136.969L914.321 131.632ZM915.866 146.562L935.571 145.225L935.951 150.662L909.761 152.439L907.32 117.524L932.811 115.794L933.191 121.231L914.185 122.521L915.866 146.562ZM967.827 149C965.1 149.185 962.462 148.98 959.915 148.384C957.365 147.755 955.315 146.875 953.766 145.744L955.658 140.554C957.132 141.557 958.925 142.354 961.038 142.946C963.151 143.537 965.289 143.76 967.45 143.613C969.279 143.489 970.745 143.189 971.848 142.713C972.951 142.238 973.745 141.649 974.231 140.948C974.714 140.214 974.926 139.414 974.865 138.55C974.791 137.486 974.349 136.664 973.54 136.084C972.729 135.471 971.695 135.023 970.439 134.741C969.214 134.423 967.841 134.148 966.321 133.917C964.835 133.684 963.328 133.402 961.801 133.071C960.305 132.705 958.918 132.215 957.639 131.6C956.39 130.95 955.342 130.052 954.493 128.907C953.644 127.761 953.155 126.258 953.025 124.396C952.892 122.5 953.27 120.737 954.159 119.107C955.078 117.441 956.536 116.072 958.533 115.001C960.561 113.895 963.171 113.233 966.364 113.017C968.459 112.874 970.556 112.999 972.655 113.392C974.754 113.784 976.604 114.427 978.203 115.32L976.51 120.497C974.882 119.672 973.221 119.1 971.528 118.78C969.833 118.428 968.22 118.303 966.69 118.407C964.895 118.529 963.446 118.844 962.346 119.353C961.279 119.86 960.503 120.48 960.02 121.215C959.57 121.947 959.376 122.762 959.439 123.66C959.514 124.724 959.94 125.564 960.718 126.179C961.527 126.759 962.543 127.191 963.766 127.476C965.022 127.758 966.411 128.031 967.933 128.295C969.453 128.526 970.96 128.808 972.453 129.141C973.98 129.472 975.366 129.946 976.612 130.563C977.892 131.178 978.939 132.059 979.754 133.206C980.603 134.352 981.091 135.839 981.219 137.667C981.349 139.53 980.955 141.294 980.035 142.96C979.147 144.59 977.689 145.959 975.661 147.065C973.631 148.138 971.02 148.783 967.827 149ZM1004.54 146.509C1001.88 146.69 999.369 146.426 997.014 145.717C994.69 144.972 992.624 143.86 990.816 142.379C989.04 140.862 987.609 139.038 986.524 136.907C985.44 134.775 984.807 132.413 984.625 129.819C984.444 127.225 984.742 124.8 985.52 122.542C986.298 120.284 987.479 118.299 989.063 116.588C990.646 114.844 992.537 113.463 994.738 112.445C996.937 111.393 999.383 110.776 1002.08 110.593C1004.94 110.399 1007.58 110.721 1010.01 111.558C1012.44 112.363 1014.54 113.674 1016.3 115.492L1012.39 119.716C1011.03 118.439 1009.54 117.521 1007.94 116.962C1006.32 116.369 1004.6 116.135 1002.77 116.259C1000.94 116.383 999.286 116.797 997.798 117.499C996.343 118.199 995.089 119.136 994.035 120.31C993.014 121.482 992.24 122.837 991.713 124.377C991.219 125.914 991.035 127.58 991.16 129.376C991.286 131.171 991.7 132.797 992.403 134.253C993.14 135.706 994.095 136.944 995.27 137.967C996.477 138.988 997.85 139.746 999.388 140.243C1000.96 140.738 1002.66 140.924 1004.49 140.799C1006.32 140.675 1007.99 140.228 1009.51 139.457C1011.02 138.652 1012.36 137.509 1013.53 136.027L1018 139.733C1016.5 141.738 1014.61 143.32 1012.32 144.478C1010.02 145.636 1007.43 146.313 1004.54 146.509ZM1029.14 123.842L1046.5 122.664L1046.88 128.001L1029.52 129.178L1029.14 123.842ZM1030.69 138.771L1050.39 137.434L1050.77 142.871L1024.58 144.648L1022.14 109.733L1047.64 108.004L1048.02 113.44L1029.01 114.73L1030.69 138.771ZM1058 142.38L1055.56 107.466L1060.9 107.103L1084.68 132.502L1082.04 132.681L1080.16 105.797L1086.59 105.36L1089.03 140.275L1083.7 140.637L1059.92 115.239L1062.56 115.059L1064.44 141.944L1058 142.38ZM1102.95 118.834L1120.31 117.656L1120.68 122.993L1103.32 124.171L1102.95 118.834ZM1104.49 133.764L1124.2 132.427L1124.58 137.863L1098.39 139.64L1095.95 104.725L1121.44 102.996L1121.82 108.433L1102.81 109.722L1104.49 133.764ZM1175.58 134.904C1172.92 135.085 1170.41 134.82 1168.06 134.112C1165.73 133.367 1163.67 132.255 1161.86 130.773C1160.08 129.257 1158.65 127.433 1157.57 125.302C1156.48 123.17 1155.85 120.807 1155.67 118.214C1155.49 115.62 1155.78 113.194 1156.56 110.937C1157.34 108.679 1158.52 106.694 1160.11 104.983C1161.69 103.239 1163.58 101.857 1165.78 100.839C1167.98 99.7882 1170.43 99.1712 1173.12 98.9884C1175.98 98.7943 1178.62 99.116 1181.06 99.9533C1183.48 100.757 1185.58 102.069 1187.35 103.887L1183.43 108.111C1182.07 106.834 1180.59 105.915 1178.98 105.356C1177.37 104.764 1175.65 104.53 1173.82 104.654C1171.99 104.778 1170.33 105.192 1168.84 105.894C1167.39 106.594 1166.13 107.531 1165.08 108.705C1164.06 109.877 1163.28 111.232 1162.76 112.772C1162.26 114.309 1162.08 115.975 1162.2 117.77C1162.33 119.566 1162.74 121.192 1163.45 122.647C1164.18 124.101 1165.14 125.339 1166.31 126.362C1167.52 127.383 1168.89 128.141 1170.43 128.638C1172 129.133 1173.7 129.318 1175.53 129.194C1177.36 129.07 1179.03 128.623 1180.55 127.851C1182.06 127.047 1183.4 125.904 1184.57 124.421L1189.04 128.127C1187.54 130.133 1185.65 131.715 1183.36 132.873C1181.07 134.031 1178.47 134.708 1175.58 134.904ZM1195.63 133.043L1193.19 98.128L1207.55 97.1532C1210.65 96.9434 1213.32 97.2628 1215.59 98.1114C1217.89 98.9578 1219.7 100.271 1221.03 102.052C1222.36 103.833 1223.11 106.004 1223.29 108.564C1223.47 111.125 1223.02 113.377 1221.96 115.32C1220.89 117.23 1219.27 118.759 1217.11 119.908C1214.99 121.021 1212.38 121.683 1209.28 121.893L1198.51 122.624L1201.2 119.485L1202.11 132.603L1195.63 133.043ZM1218.47 131.493L1208.76 119.423L1215.69 118.952L1225.46 131.019L1218.47 131.493ZM1201.24 120.183L1198.13 117.287L1208.61 116.576C1211.47 116.382 1213.57 115.621 1214.92 114.294C1216.29 112.964 1216.91 111.202 1216.75 109.008C1216.6 106.78 1215.75 105.117 1214.2 104.019C1212.68 102.919 1210.5 102.466 1207.64 102.66L1197.16 103.371L1199.83 99.9824L1201.24 120.183ZM1232.12 130.567L1229.67 95.6523L1236.16 95.2123L1238.6 130.127L1232.12 130.567ZM1248.05 129.486L1245.6 94.5714L1250.94 94.2093L1267.99 118.661L1265.2 118.851L1278.43 92.3443L1283.77 91.9821L1286.26 126.894L1280.12 127.31L1278.3 102.025L1279.6 101.937L1268.32 124.101L1265.43 124.298L1250.97 103.88L1252.46 103.778L1254.23 129.067L1248.05 129.486ZM1300.25 105.447L1317.61 104.269L1317.98 109.606L1300.62 110.784L1300.25 105.447ZM1301.8 120.377L1321.5 119.04L1321.88 124.477L1295.69 126.254L1293.25 91.3388L1318.74 89.6092L1319.12 95.0459L1300.11 96.3355L1301.8 120.377ZM1353.76 122.815C1351.03 123 1348.39 122.795 1345.84 122.199C1343.29 121.57 1341.24 120.69 1339.69 119.559L1341.59 114.369C1343.06 115.372 1344.85 116.169 1346.97 116.761C1349.08 117.352 1351.22 117.575 1353.38 117.428C1355.21 117.304 1356.67 117.004 1357.78 116.528C1358.88 116.053 1359.67 115.464 1360.16 114.763C1360.64 114.029 1360.85 113.229 1360.79 112.365C1360.72 111.301 1360.28 110.479 1359.47 109.899C1358.66 109.285 1357.62 108.838 1356.37 108.555C1355.14 108.238 1353.77 107.963 1352.25 107.732C1350.76 107.499 1349.26 107.217 1347.73 106.886C1346.23 106.52 1344.85 106.03 1343.57 105.415C1342.32 104.764 1341.27 103.867 1340.42 102.722C1339.57 101.576 1339.08 100.073 1338.95 98.2106C1338.82 96.3152 1339.2 94.5523 1340.09 92.9217C1341.01 91.2557 1342.47 89.8872 1344.46 88.8162C1346.49 87.7097 1349.1 87.0482 1352.29 86.8316C1354.39 86.6894 1356.49 86.8144 1358.58 87.2065C1360.68 87.5987 1362.53 88.2416 1364.13 89.1354L1362.44 94.3118C1360.81 93.4868 1359.15 92.9146 1357.46 92.5952C1355.76 92.2424 1354.15 92.118 1352.62 92.2218C1350.82 92.3436 1349.38 92.6591 1348.27 93.1681C1347.21 93.6748 1346.43 94.2954 1345.95 95.0298C1345.5 95.7619 1345.31 96.5769 1345.37 97.4747C1345.44 98.5388 1345.87 99.3785 1346.65 99.9939C1347.46 100.574 1348.47 101.006 1349.69 101.291C1350.95 101.573 1352.34 101.846 1353.86 102.11C1355.38 102.341 1356.89 102.623 1358.38 102.956C1359.91 103.287 1361.3 103.761 1362.54 104.378C1363.82 104.993 1364.87 105.874 1365.68 107.021C1366.53 108.167 1367.02 109.654 1367.15 111.482C1367.28 113.345 1366.88 115.109 1365.96 116.775C1365.08 118.405 1363.62 119.774 1361.59 120.88C1359.56 121.953 1356.95 122.598 1353.76 122.815ZM1390.47 120.324C1387.81 120.505 1385.3 120.241 1382.94 119.532C1380.62 118.787 1378.55 117.675 1376.75 116.194C1374.97 114.677 1373.54 112.853 1372.45 110.722C1371.37 108.59 1370.74 106.228 1370.55 103.634C1370.37 101.04 1370.67 98.6144 1371.45 96.3566C1372.23 94.0988 1373.41 92.1143 1374.99 90.4031C1376.57 88.6587 1378.47 87.2775 1380.67 86.2595C1382.87 85.2082 1385.31 84.5912 1388.01 84.4084C1390.87 84.2144 1393.51 84.536 1395.94 85.3734C1398.37 86.1775 1400.47 87.4886 1402.23 89.3066L1398.32 93.5313C1396.96 92.2537 1395.47 91.3354 1393.86 90.7765C1392.25 90.1842 1390.53 89.9501 1388.7 90.0742C1386.87 90.1984 1385.22 90.6116 1383.73 91.3139C1382.27 92.014 1381.02 92.9511 1379.96 94.1251C1378.94 95.2969 1378.17 96.6524 1377.64 98.1916C1377.15 99.7286 1376.96 101.395 1377.09 103.19C1377.21 104.986 1377.63 106.612 1378.33 108.067C1379.07 109.521 1380.02 110.759 1381.2 111.782C1382.41 112.803 1383.78 113.561 1385.32 114.058C1386.89 114.553 1388.59 114.738 1390.42 114.614C1392.25 114.49 1393.92 114.043 1395.44 113.272C1396.95 112.467 1398.29 111.324 1399.46 109.842L1403.93 113.547C1402.43 115.553 1400.54 117.135 1398.24 118.293C1395.95 119.451 1393.36 120.128 1390.47 120.324ZM1415.07 97.6565L1432.43 96.4786L1432.81 101.816L1415.45 102.993L1415.07 97.6565ZM1416.62 112.586L1436.32 111.249L1436.7 116.686L1410.51 118.463L1408.07 83.5481L1433.56 81.8185L1433.94 87.2552L1414.94 88.5448L1416.62 112.586ZM1443.93 116.195L1441.49 81.2806L1446.83 80.9184L1470.61 106.317L1467.97 106.496L1466.09 79.6119L1472.52 79.1753L1474.96 114.09L1469.62 114.452L1445.84 89.0537L1448.49 88.8744L1450.37 115.759L1443.93 116.195ZM1488.88 92.6488L1506.24 91.471L1506.61 96.8079L1489.25 97.9858L1488.88 92.6488ZM1490.42 107.578L1510.13 106.242L1510.51 111.678L1484.32 113.455L1481.88 78.5404L1507.37 76.8109L1507.75 82.2476L1488.74 83.5372L1490.42 107.578Z" fill="white"/>
</g>
<defs>
<filter id="filter0_d_5315_50827" x="-77.5957" y="25.3926" width="1664.7" height="244.952" filterUnits="userSpaceOnUse" color-interpolation-filters="sRGB">
<feFlood flood-opacity="0" result="BackgroundImageFix"/>
<feColorMatrix in="SourceAlpha" type="matrix" values="0 0 0 0 0 0 0 0 0 0 0 0 0 0 0 0 0 0 127 0" result="hardAlpha"/>
<feOffset dy="4"/>
<feGaussianBlur stdDeviation="10"/>
<feComposite in2="hardAlpha" operator="out"/>
<feColorMatrix type="matrix" values="0 0 0 0 0.5675 0 0 0 0 0.5675 0 0 0 0 0.5675 0 0 0 0.25 0"/>
<feBlend mode="normal" in2="BackgroundImageFix" result="effect1_dropShadow_5315_50827"/>
<feBlend mode="normal" in="SourceGraphic" in2="effect1_dropShadow_5315_50827" result="shape"/>
</filter>
<clipPath id="clip0_5315_50827">
<rect width="1400" height="329" fill="white"/>
</clipPath>
</defs>
</svg>
