<svg width="131" height="125" viewBox="0 0 131 125" fill="none" xmlns="http://www.w3.org/2000/svg">
<path d="M56.5635 0H58.7926V0.417957L57.678 1.11455L57.5387 1.67183L59.7678 1.53251L61.579 1.25387H63.1115L63.3901 1.39319L63.2508 1.81115L62.1362 2.50774L61.9969 3.20434L62.8328 3.06502L65.0619 2.64706H67.9876L69.5201 3.06502V3.34365L67.291 3.76161L65.8979 4.31889L65.6192 4.73684L68.127 4.87616L69.3808 5.1548L70.4954 5.71208L70.6347 6.13003L69.3808 6.54799L69.1022 6.68731L69.5201 6.96595L71.192 7.3839L72.8638 8.0805L74.3963 8.91641L76.0681 10.1703L77.4613 11.1455L80.387 12.678L83.1734 14.4892L85.8205 16.4396L87.7709 17.9721L89.5821 19.5046L91.6719 21.4551L93.483 23.2663L94.7369 24.7988L95.8514 26.0526L97.2446 27.8638L98.9164 30.2322L100.588 32.8793L102.539 36.6409L103.932 39.8452L105.046 42.9102L105.882 45.8359L106.718 49.8762L107.276 53.9164L107.554 57.8174V61.7183L107.136 67.1517L106.44 71.3313L105.464 75.2322L104.211 78.9938L102.957 81.9195L101.563 84.8452L100.17 87.2136L99.4737 88.3282L98.6378 90L97.2446 91.8112L95.9907 93.3437L94.4582 95.1548L92.5078 97.2446L90.2787 99.4737L88.7462 100.728L86.7957 102.26L84.9845 103.653L82.6161 105.325L79.2725 107.276L76.6254 108.669L73.2818 110.062L68.6842 111.594L65.3406 112.43L61.3003 113.127L58.3746 113.406L55.1703 113.545H52.2446L47.2291 113.266L43.6068 112.709L40.5418 112.012L36.6409 110.898L33.0186 109.505L29.3963 107.833L26.6099 106.3L23.5449 104.35L21.3158 102.678L19.7833 101.563L17.9721 100.031L16.579 98.7771L13.3746 95.5728L12.3994 94.4582L10.4489 92.0898L8.63777 89.5821L6.68731 86.2384L5.1548 83.3127L3.34365 78.9938L2.36842 76.0681L1.25387 71.8886L0.557276 67.9876L0.139319 64.226L0 62.1362V56.5635L0.417957 51.8266L1.25387 47.5078L2.36842 43.3282L3.62229 39.8452L5.1548 36.5016L6.68731 33.4365L8.49845 30.5108L10.3096 28.1424L11.8421 26.192L13.5139 24.2415L15.1858 22.4303L18.6687 18.9474L20.2012 17.6935L21.8731 16.3003L24.3808 14.4892L27.0279 12.8173L29.5356 11.4242L32.322 10.031L34.9691 8.63777L37.8947 7.3839L40.9598 6.40867L42.9102 4.87616L44.0248 4.04025L45.9752 2.9257L48.2043 2.08978L48.9009 2.2291L49.8762 2.36842L52.1053 1.25387L53.9164 0.557276L56.5635 0Z" fill="white"/>
<path d="M32.7399 9.75H33.0186V10.0286H34.9691L34.2725 10.5859L32.8793 11.4218L31.3468 12.815H31.0681L30.7895 13.3723L29.5356 14.7655L29.1177 15.4621L29.6749 15.3228L29.5356 16.0194L28.6997 17.4125L28.0031 19.2237L27.4458 21.4528L27.3065 22.2887V23.6819L28.1424 22.9853L28.0031 23.8212L27.5851 25.0751L27.3065 27.4435V29.1153L27.7245 33.1556L28.4211 36.6386V37.8924L27.1672 38.3104L26.8886 39.9822L27.0279 42.4899L27.8638 45.2763L28.4211 47.5054L28.839 51.1277L29.257 52.5209L30.2322 53.9141L31.2074 54.6107H33.5759L34.2725 59.7655L34.8297 62.4125L35.6656 64.6417L36.7802 66.5921L37.7554 67.9853V71.329L37.4768 73.976L37.0588 75.3692L36.3622 76.4838L35.2477 77.459L32.8793 78.5735L28.6997 80.3847L24.6595 82.0565L20.7585 83.7283L15.4644 85.9574L8.63777 89.0225L8.21982 88.8831L6.54799 85.9574L5.1548 83.3104L3.34365 78.9915L2.36842 76.0658L1.25387 71.8862L0.557276 67.9853L0.139319 64.2237L0 62.1339V56.5612L0.417957 51.8243L1.25387 47.5054L2.36842 43.3259L3.62229 39.8429L5.1548 36.4992L6.68731 33.4342L8.49845 30.5085L10.3096 28.1401L11.8421 26.1896L13.5139 24.2392L15.1858 22.428L18.6687 18.945L20.2012 17.6912L21.8731 16.298L24.3808 14.4868L27.0279 12.815L29.5356 11.4218L32.322 10.0286L32.7399 9.75Z" fill="#0BC1A0"/>
<path d="M76.7651 10.8633L77.4617 11.1419L80.3874 12.6744L83.1738 14.4856L85.8208 16.436L87.7713 17.9685L89.5824 19.5011L91.6722 21.4515L93.4834 23.2627L94.7372 24.7952L95.8518 26.049L97.245 27.8602L98.9168 30.2286L100.589 32.8757L102.539 36.6373L103.932 39.8416L105.047 42.9066L105.883 45.8323L106.719 49.8726L107.276 53.9128L107.555 57.8138V61.7147L107.137 67.1481L106.44 71.3277L105.465 75.2286L104.211 78.9902L102.957 81.9159L101.564 84.8416L100.171 87.21L99.4741 88.3246L99.1954 88.8819L96.4091 87.7673L91.3936 85.5382L75.7899 78.9902L73.2821 77.8757L71.7496 76.9004L70.9137 75.7859L70.3564 74.2534L70.0778 71.885L69.9385 68.1234L71.1923 66.3122L72.4462 63.9438L73.1428 61.854L73.5608 59.7642L74.118 55.1667L74.2574 54.6094L75.9292 54.7487L77.0437 54.3308L77.4617 53.9128H77.7403L78.019 53.3555L78.7156 52.1017L79.1335 50.2905L79.4122 47.5042L80.1088 44.8571L80.666 43.046L80.9447 41.5134V40.1203L80.666 38.7271L79.9694 38.0305L78.8549 38.1698L78.4369 38.3091L78.2976 37.8912L79.2728 34.6868L80.1088 30.9252L80.666 27.1636L80.8054 25.9097V23.8199L80.3874 20.8942L79.6908 18.6651L78.8549 16.9933L77.7403 15.6001L76.4865 14.4856L76.7651 14.2069H78.7156L78.019 12.8137L76.7651 11.0026V10.8633Z" fill="#0BC1A0"/>
<path d="M35.2461 64.5078L35.664 64.6471L36.7786 66.5976L37.7538 67.9908V71.3344L37.4752 73.9815L37.0572 75.3747L36.3606 76.4892L35.2461 77.4645L33.9922 77.7431V77.4645L35.1067 76.6286L36.2213 75.3747L36.7786 74.1208L36.9179 72.5883L37.3358 71.3344V69.384L36.4999 67.2942L35.664 65.901L35.2461 64.9258V64.5078Z" fill="#0BC1A0"/>
<path d="M31.4862 10.4492V10.8672L29.8144 11.7031L27.4459 12.957L26.3314 13.6536L24.1023 15.1861L22.5698 16.3006L21.5945 16.9972H21.3159V17.2758L19.3654 18.8084L17.2756 20.7588L15.1859 22.8486L14.9072 22.7093L18.6688 18.9477L20.2013 17.6938L21.8732 16.3006L24.3809 14.4895L27.028 12.8176L29.5357 11.4245L31.4862 10.4492Z" fill="#0BC1A0"/>
<path d="M33.1585 54.75H33.4371V55.4466H33.7158L34.2731 59.7655L34.8303 62.4125L35.2483 63.6664V64.363L34.691 63.6664L34.1337 62.1339L33.9944 61.9946L33.7158 59.9048L33.4371 59.2082V57.5364L33.1585 56.2825L32.7406 55.4466L32.4619 55.0286L33.1585 54.75Z" fill="#0BC1A0"/>
<path d="M73.5611 60.7422H73.7004V61.5781L73.4218 63.2499L72.8645 64.6431L71.75 66.1756L71.332 67.0115L70.914 68.1261L70.3568 68.8227H70.0781V67.9868L71.4713 65.897L72.7252 63.2499L73.2825 61.2995H73.5611V60.7422Z" fill="#0BC1A0"/>
<path d="M35.248 64.5078L35.666 64.6471L36.7806 66.5976L37.7558 67.9908V71.3344L37.4771 72.031H37.3378V69.384L36.5019 67.2942L35.666 65.901L35.248 64.9258V64.5078Z" fill="#0BC1A0"/>
<path d="M85.96 16.7148L86.5172 16.9935L88.4677 18.526L90.1395 20.0585L91.2541 21.0337L93.4832 23.2628L94.7371 24.7953L95.8516 26.0492L96.8268 27.3031L96.6875 27.5817L96.1302 27.0244V26.7458H95.8516L94.4584 24.9347L92.9259 23.1235L92.2293 22.4269L91.2541 21.591L90.6968 20.8944L89.5823 19.9192L88.1891 18.6653L86.9352 17.6901L86.0993 17.1328L85.96 16.7148Z" fill="#0BC1A0"/>
<path d="M77.4619 11.2773L78.2978 11.556L81.0842 13.0885L83.174 14.4817L85.821 16.4321L85.9604 16.7108L85.2638 16.4321L83.0347 14.7603L81.0842 13.5064L79.691 12.6705L78.8551 12.2526L77.8799 11.9739L77.4619 11.2773Z" fill="#0BC1A0"/>
<path d="M70.4951 73.832L70.7738 73.9714V74.8073L71.1917 74.6679L72.0276 76.0611L72.3063 76.2005L72.7242 76.897L73.1422 77.4543L72.3063 77.315L71.331 76.4791L70.6344 75.2252L70.4951 73.832Z" fill="#0BC1A0"/>
<path d="M33.9922 58.9258H34.1315L34.8281 62.4088L35.2461 63.6626V64.3592L34.6888 63.6626L34.1315 62.1301L33.9922 61.9908V58.9258Z" fill="#0BC1A0"/>
<path d="M74.2559 54.6133L75.9277 54.7526L77.0422 54.6133L76.7636 55.1706L75.0918 55.5885L74.9525 55.7278H74.2559V54.6133Z" fill="#0BC1A0"/>
<path d="M78.8525 51.6914H79.1311L78.8525 53.3632L77.8773 54.4778L77.1807 54.6171L78.0166 53.3632L78.7132 52.1094L78.8525 51.6914Z" fill="#0BC1A0"/>
<path d="M33.1585 54.75H33.4371L33.7158 56.7005V57.815L33.4371 57.5364L33.1585 56.2825L32.7406 55.4466L32.4619 55.0286L33.1585 54.75Z" fill="#0BC1A0"/>
<path d="M29.1172 52.9414L29.8138 53.3594L30.3711 54.056L31.207 54.6132V54.8919H31.9036V55.0312L30.6497 54.8919V54.6132L29.9531 54.4739V54.1953H29.6745L29.1172 53.3594V52.9414Z" fill="#0BC1A0"/>
<path d="M71.0534 67.0039L71.332 67.1432L70.914 68.1185L70.3568 68.8151H70.0781V67.9791L70.7747 67.2825L71.0534 67.0039Z" fill="#0BC1A0"/>
<path d="M96.8252 27.7188L97.3825 27.9974L98.915 30.2265L98.7757 30.5051L97.5218 28.8333L96.8252 27.7188Z" fill="#0BC1A0"/>
<path d="M34.6907 62.4141L34.9694 62.832L35.248 63.6679V64.3645L34.6907 63.6679L34.4121 62.832L34.6907 62.4141Z" fill="#0BC1A0"/>
<path d="M48.7617 2.22656L49.5976 2.5052L49.0403 2.92316L48.3438 3.20179L48.6224 2.5052L48.7617 2.22656Z" fill="#0BC1A0"/>
<circle cx="99" cy="93" r="31.5" fill="white" stroke="#0BC1A0"/>
<circle cx="99" cy="93" r="28" fill="#0BC1A0"/>
<path opacity="0.4" d="M111.75 106.166H86.25C85.6692 106.166 85.1875 105.684 85.1875 105.104C85.1875 104.523 85.6692 104.041 86.25 104.041H111.75C112.331 104.041 112.812 104.523 112.812 105.104C112.812 105.684 112.331 106.166 111.75 106.166Z" fill="white"/>
<path opacity="0.4" d="M108.944 79.9297C106.196 77.1814 103.504 77.1105 100.685 79.9297L98.971 81.6439C98.8293 81.7855 98.7727 82.0122 98.8293 82.2105C99.906 85.9647 102.909 88.968 106.663 90.0447C106.72 90.0589 106.777 90.073 106.833 90.073C106.989 90.073 107.131 90.0164 107.244 89.903L108.944 88.1889C110.347 86.8005 111.027 85.4547 111.027 84.0947C111.041 82.6922 110.361 81.3322 108.944 79.9297Z" fill="white"/>
<path d="M104.115 91.3356C103.704 91.1373 103.307 90.9389 102.925 90.7123C102.613 90.5281 102.316 90.3298 102.018 90.1173C101.777 89.9614 101.494 89.7348 101.225 89.5081C101.196 89.4939 101.097 89.4089 100.984 89.2956C100.516 88.8989 99.9923 88.3889 99.5248 87.8223C99.4823 87.7939 99.4114 87.6948 99.3123 87.5673C99.1706 87.3973 98.9298 87.1139 98.7173 86.7881C98.5473 86.5756 98.3489 86.2639 98.1648 85.9523C97.9381 85.5698 97.7398 85.1873 97.5414 84.7906C97.3431 84.3656 97.1873 83.9548 97.0456 83.5723L88.1489 92.4689C87.9648 92.6531 87.7948 93.0073 87.7523 93.2481L86.9873 98.6739C86.8456 99.6373 87.1148 100.544 87.7098 101.153C88.2198 101.649 88.9281 101.918 89.6931 101.918C89.8631 101.918 90.0331 101.904 90.2031 101.876L95.6431 101.111C95.8981 101.068 96.2523 100.898 96.4223 100.714L105.319 91.8173C104.922 91.6756 104.54 91.5198 104.115 91.3356Z" fill="white"/>
</svg>
