<svg width="1440" height="1024" viewBox="0 0 1440 1024" fill="none" xmlns="http://www.w3.org/2000/svg">
<g clip-path="url(#clip0_5342_67546)">
<rect width="1440" height="1024" fill="#141521"/>
<path opacity="0.25" d="M-553.701 -333.264L-772.841 1055.74M-360.788 -302.829L-579.928 1086.17M-167.875 -272.394L-387.014 1116.61M1712.1 25.0286L-602.86 -340.196M25.0382 -241.958L-194.101 1147.05M1687.75 179.363L-627.209 -185.862M217.951 -211.523L-1.1881 1177.48M1663.4 333.697L-651.558 -31.5283M410.865 -181.087L191.725 1207.92M1639.05 488.03L-675.907 122.806M603.778 -150.652L384.638 1238.35M1614.7 642.364L-700.256 277.14M796.691 -120.217L577.551 1268.79M1590.35 796.698L-724.605 431.474M989.604 -89.7812L770.465 1299.22M1566 951.033L-748.953 585.808M1471.89 -13.6928L1252.75 1375.31M1505.13 1336.87L-809.826 971.643M1182.52 -59.3459L963.378 1329.66M1541.66 1105.37L-773.302 740.142M1664.8 16.7426L1445.66 1405.75M-457.245 -318.047L-676.384 1070.96M-264.332 -287.611L-483.471 1101.39M-71.4184 -257.176L-290.558 1131.83M1699.92 102.196L-615.035 -263.029M121.495 -226.74L-97.6447 1162.26M1675.57 256.53L-639.384 -108.695M314.408 -196.305L95.2686 1192.7M1651.23 410.864L-663.732 45.6387M507.321 -165.87L288.182 1223.13M1626.88 565.197L-688.081 199.973M700.234 -135.434L481.095 1253.57M1602.53 719.531L-712.43 354.307M893.148 -104.999L674.008 1284.01M1578.18 873.866L-736.779 508.641M1375.43 -28.9105L1156.29 1360.09M1517.31 1259.7L-797.651 894.476M1086.06 -74.5635L866.921 1314.44M1553.83 1028.2L-761.128 662.975M1568.34 1.52495L1349.2 1390.53M1492.96 1414.03L-822 1048.81M1278.97 -44.1281L1059.83 1344.88M1529.48 1182.53L-785.477 817.309" stroke="#A4A4A4" stroke-opacity="0.9" stroke-width="1.40841"/>
</g>
<defs>
<clipPath id="clip0_5342_67546">
<rect width="1440" height="1024" fill="white"/>
</clipPath>
</defs>
</svg>
