<svg width="1440" height="1324" viewBox="0 0 1440 1324" fill="none" xmlns="http://www.w3.org/2000/svg">
<path opacity="0.25" d="M-703.588 0L-703.588 1406.18M-508.289 0L-508.289 1406.18M-312.989 0L-312.989 1406.18M1590.36 0.813873L-753.227 0.813764M-117.69 0L-117.69 1406.18M1590.36 157.057L-753.227 157.057M77.6092 0L77.6091 1406.18M1590.36 313.3L-753.227 313.3M272.908 0V1406.18M1590.36 469.543L-753.227 469.542M468.208 0V1406.18M1590.36 625.785L-753.227 625.785M663.507 0V1406.18M1590.36 782.028L-753.227 782.028M858.806 0V1406.18M1590.36 938.271L-753.227 938.271M1347.05 0V1406.18M1590.36 1328.88L-753.227 1328.88M1054.11 0V1406.18M1590.36 1094.51H-753.227M1542.35 0V1406.18M-605.938 0L-605.938 1406.18M-410.639 0L-410.639 1406.18M-215.34 0V1406.18M1590.36 78.9353L-753.227 78.9352M-20.0405 0L-20.0405 1406.18M1590.36 235.178L-753.227 235.178M175.259 0V1406.18M1590.36 391.421L-753.227 391.421M370.558 0V1406.18M1590.36 547.664L-753.227 547.664M565.857 0V1406.18M1590.36 703.907L-753.227 703.907M761.157 0V1406.18M1590.36 860.15L-753.227 860.15M1249.4 0V1406.18M1590.36 1250.76L-753.227 1250.76M956.456 0V1406.18M1590.36 1016.39L-753.227 1016.39M1444.7 0V1406.18M1590.36 1407L-753.227 1407M1151.76 0V1406.18M1590.36 1172.64L-753.227 1172.64" stroke="#A4A4A4" stroke-opacity="0.9" stroke-width="1.40841"/>
</svg>
