<svg width="80" height="58" viewBox="0 0 80 58" fill="none" xmlns="http://www.w3.org/2000/svg">
<path fill-rule="evenodd" clip-rule="evenodd" d="M61.8767 18.2525C61.5636 18.1931 61.2356 18.1634 60.8927 18.1634C60.7399 18.1634 60.5899 18.1692 60.4428 18.1808C60.5646 18.7149 60.6609 19.2629 60.7367 19.8269C60.788 19.8245 60.8401 19.8233 60.8927 19.8233C61.3724 19.8233 61.7957 19.926 62.1624 20.1314C62.096 19.4937 62.0024 18.8671 61.8767 18.2525ZM62.8001 20.6306C62.7402 19.8816 62.6462 19.144 62.5101 18.4199C62.75 18.5026 62.98 18.6052 63.1999 18.7278C63.8749 19.104 64.4061 19.6352 64.7934 20.3213C65.1807 21.0073 65.3743 21.8151 65.3743 22.7446C65.3743 22.8332 65.3688 22.9328 65.3577 23.0434C65.3577 23.1541 65.3522 23.2592 65.3411 23.3588H61.0245C61.0131 23.0876 60.9991 22.8191 60.9826 22.5557C60.9725 22.3933 60.8326 22.2698 60.6702 22.28C60.5077 22.2902 60.3843 22.4301 60.3945 22.5925C60.4102 22.8444 60.4237 23.1005 60.4346 23.3588H59.1586C59.1348 22.967 59.1033 22.5788 59.0639 22.1948C59.0546 22.1047 59.0057 22.0283 58.9363 21.9811H62.283C62.2845 22.0308 62.2858 22.0805 62.2871 22.1304C62.2911 22.293 62.4262 22.4217 62.5889 22.4177C62.7516 22.4137 62.8802 22.2786 62.8762 22.1159C62.8751 22.0709 62.8739 22.026 62.8726 21.9811H63.4121C63.3718 21.6464 63.2734 21.3421 63.1169 21.0682C63.0255 20.9082 62.9199 20.7623 62.8001 20.6306ZM58.6052 21.9811H58.368C58.4134 21.6486 58.508 21.3499 58.6519 21.0848C58.8732 20.6864 59.172 20.3766 59.5482 20.1553C59.7357 20.0481 59.9375 19.9669 60.1535 19.9117C60.0771 19.3427 59.9798 18.7931 59.8563 18.2601C59.3776 18.3537 58.9319 18.5151 58.5191 18.7444L58.5093 18.75C58.6431 19.3306 58.7407 19.9253 58.8023 20.5285C58.8189 20.6903 58.701 20.835 58.5391 20.8516C58.3773 20.8681 58.2326 20.7503 58.216 20.5884C58.1644 20.0835 58.0868 19.5862 57.9833 19.0997C57.5443 19.4398 57.1807 19.858 56.8925 20.3545C56.8743 20.3862 56.8565 20.4181 56.8392 20.4503C56.8531 20.5376 56.8667 20.6243 56.8799 20.7101C57.1803 22.6608 57.2343 24.5654 57.2374 25.5117C57.6012 25.9711 58.0544 26.3505 58.5968 26.6499C58.6332 25.7639 58.6357 24.884 58.6016 24.0196C58.5016 23.8135 58.4299 23.5932 58.3865 23.3588H58.5682C58.5451 22.9872 58.515 22.619 58.4776 22.255C58.4662 22.1435 58.5185 22.0401 58.6052 21.9811ZM59.212 24.8112C59.2215 25.5045 59.2088 26.2049 59.1753 26.9079C59.549 27.0453 59.9492 27.1404 60.376 27.1932C60.4271 26.6418 60.4556 26.0346 60.465 25.4048C60.2028 25.3495 59.958 25.265 59.7308 25.1514C59.5392 25.0556 59.3663 24.9422 59.212 24.8112ZM61.0532 25.4786C61.0427 26.095 61.014 26.6917 60.9637 27.2388C61.0443 27.2415 61.1258 27.2428 61.2081 27.2428C61.5075 27.2428 61.7937 27.2247 62.0667 27.1883C62.7827 26.4661 63.5599 25.8277 64.3389 25.2955L63.6647 24.5207C63.3548 24.8527 63.0007 25.0961 62.6024 25.251C62.204 25.4059 61.7558 25.4834 61.2579 25.4834C61.1887 25.4834 61.1205 25.4818 61.0532 25.4786ZM58.6758 42.8953C58.8649 41.7226 58.6256 40.5682 58.3836 39.4166C58.2871 39.2998 58.1813 39.1919 58.0662 39.093C57.369 38.4733 56.3787 38.1634 55.095 38.1634C54.3868 38.1634 53.7008 38.2575 53.0368 38.4456C53.0293 38.4477 53.0218 38.4497 53.0143 38.4518C53.5323 38.9016 54.0186 39.3872 54.4685 39.9046C54.594 39.8947 54.7199 39.8897 54.8461 39.8897C55.5875 39.8897 56.1407 40.0612 56.5059 40.4042C56.8711 40.7362 57.0537 41.2065 57.0537 41.8151V41.9479H55.9529C56.2191 42.3921 56.4615 42.8519 56.6782 43.3256H57.0537V44.2295C57.1313 44.437 57.2042 44.6468 57.2721 44.8588C57.5089 45.5982 57.6895 46.355 57.8238 47.1267H59.1285V43.1885C59.0691 43.2275 58.9955 43.2453 58.9198 43.2331C58.7591 43.2072 58.6499 43.056 58.6758 42.8953ZM57.2254 47.1267C57.2077 47.0281 57.1892 46.9298 57.1698 46.8318V47.1267H57.2254ZM57.0393 46.2269C56.9423 45.8142 56.8299 45.4072 56.7004 45.0061C56.6962 44.9932 56.692 44.9803 56.6878 44.9674C56.5439 45.1323 56.3726 45.2711 56.1739 45.3838C55.9516 45.5135 55.7121 45.607 55.4553 45.6643C55.5901 46.1133 55.7032 46.5719 55.7981 47.0413C55.987 46.9791 56.1621 46.9024 56.3233 46.8113C56.6111 46.6521 56.8498 46.4573 57.0393 46.2269ZM55.2247 47.1793C55.1251 46.683 55.0048 46.2013 54.8599 45.732C54.8443 45.7323 54.8286 45.7324 54.8129 45.7324C54.2817 45.7324 53.8667 45.6217 53.568 45.4004C53.2692 45.1791 53.1198 44.8803 53.1198 44.5041C53.1198 44.1721 53.2415 43.8955 53.485 43.6742C53.5832 43.5804 53.7194 43.5055 53.8933 43.4496C53.7352 43.1644 53.5634 42.8832 53.3768 42.6053C53.286 42.4702 53.322 42.2871 53.4571 42.1964C53.5922 42.1056 53.7753 42.1416 53.866 42.2767C54.1008 42.6263 54.313 42.9806 54.5048 43.3404C54.6308 43.3305 54.7667 43.3256 54.9124 43.3256H56.0276C55.7987 42.8505 55.5425 42.3906 55.2614 41.9479H54.7631C53.8667 41.9479 53.1475 42.0641 52.6053 42.2965C52.2878 42.4325 52.0215 42.597 51.8065 42.79C52.7495 44.0737 53.4052 45.5872 53.7786 47.2099C53.9712 47.2319 54.1721 47.2428 54.3813 47.2428C54.6828 47.2428 54.9639 47.2217 55.2247 47.1793ZM53.1437 47.0898C52.7907 45.6827 52.2145 44.3778 51.4177 43.2583C51.1914 43.6527 51.0782 44.0956 51.0782 44.5871C51.0782 45.0961 51.211 45.5553 51.4766 45.9648C51.7532 46.3631 52.1405 46.6785 52.6385 46.9109C52.7983 46.9819 52.9667 47.0416 53.1437 47.0898ZM53.775 40.0111C53.3369 39.5337 52.8658 39.0867 52.366 38.6735C51.989 38.8301 51.6483 39.0253 51.3438 39.259L51.5015 39.552C51.8597 39.8472 52.2026 40.1648 52.5278 40.504C52.7774 40.3507 53.0577 40.2234 53.3688 40.1221C53.5038 40.0791 53.6391 40.0421 53.775 40.0111ZM50.581 38.8643V38.1634C50.2167 38.1634 49.8777 38.1918 49.5639 38.2484C49.9119 38.4364 50.2515 38.6419 50.581 38.8643ZM40.3917 37.887V41.5297C39.5974 41.8802 38.87 42.3517 38.2339 42.9206V41.1235C38.8098 40.7276 39.4315 40.3926 40.0883 40.1288C40.2393 40.0681 40.3126 39.8965 40.2519 39.7455C40.1913 39.5945 40.0197 39.5212 39.8687 39.5819C39.2969 39.8115 38.7498 40.0922 38.2339 40.4179V38.8071C38.9204 38.4291 39.644 38.1194 40.3917 37.887ZM44.2426 36.7985V35.5077H42.0813C41.6655 35.5541 41.2509 35.6214 40.8388 35.7103C40.6876 35.7429 40.5385 35.6532 40.4946 35.5077H34.3831V37.3335H35.6252C36.8233 36.4778 38.0413 35.8681 39.0624 35.5864C39.2192 35.5431 39.3815 35.6352 39.4248 35.7921C39.4681 35.949 39.376 36.1112 39.2191 36.1545C38.4663 36.3622 37.5853 36.7681 36.6833 37.3335H38.2339V38.1392C39.7332 37.3635 41.3894 36.8953 43.0859 36.8129C43.4719 36.7893 43.8579 36.7846 44.2426 36.7985ZM38.2339 43.7374V45.9811C38.7302 45.0764 39.49 44.3011 40.3917 43.7364V42.1786C39.5802 42.5705 38.8504 43.1006 38.2339 43.7374ZM45.4521 41.0061C46.2311 41.1698 46.9692 41.4426 47.649 41.8076C47.7621 41.3904 47.9538 41.0498 48.224 40.786C48.2949 40.7152 48.3695 40.6497 48.4478 40.5896C47.5187 40.0783 46.5015 39.7332 45.4521 39.5567V41.0061ZM45.4521 38.9597C46.1259 39.0664 46.7887 39.2387 47.4273 39.4762V38.263H45.4521V38.9597ZM47.4723 39.4931C47.7213 39.134 48.0437 38.8457 48.4398 38.6282C48.534 38.5775 48.632 38.5309 48.7336 38.4884C49.3791 38.7938 49.9981 39.1599 50.581 39.584V40.1387C50.4925 40.1165 50.4095 40.1055 50.332 40.1055C50.2546 40.0944 50.1771 40.0889 50.0997 40.0889C49.712 40.0889 49.3634 40.1454 49.0539 40.2586C48.5504 39.9552 48.0204 39.7 47.4723 39.4931ZM47.5436 42.4228C46.9004 42.0556 46.1973 41.7786 45.4521 41.6093V43.0092C46.1134 43.1978 46.8432 43.5059 47.5269 43.9893V42.8276C47.5269 42.6873 47.5324 42.5523 47.5436 42.4228ZM47.5269 44.7343C46.8647 44.1819 46.1267 43.8334 45.4521 43.6224V45.0476C45.7843 45.1935 46.0978 45.3823 46.3814 45.6119C46.8734 46.0101 47.244 46.5015 47.5269 47.0486V44.7343ZM46.9031 47.1267C46.6697 46.7266 46.378 46.3674 46.0107 46.07C45.8368 45.9293 45.6494 45.8063 45.4521 45.7018V47.1267H46.9031ZM40.3917 44.4449C39.4441 45.125 38.7112 46.0671 38.3855 47.1267H39.8205C39.9647 46.7858 40.1571 46.4778 40.3917 46.1982V44.4449ZM64.7285 25.7433C64.2315 26.0794 63.733 26.4618 63.2507 26.884L63.2663 26.8777C63.8749 26.6232 64.3784 26.2635 64.7768 25.7988L64.7285 25.7433ZM56.6267 24.4508C56.599 23.6689 56.5384 22.6815 56.4127 21.6414C56.3453 21.9743 56.3115 22.3254 56.3115 22.6948C56.3115 23.3298 56.4166 23.9151 56.6267 24.4508ZM35.1977 15.5077H34.3831V17.3335H34.6356C34.7805 16.7134 34.97 16.1026 35.1977 15.5077ZM35.2416 17.3335C35.3935 16.7135 35.5921 16.1024 35.8306 15.5077H37.424C37.3226 15.7378 37.2286 15.9719 37.1424 16.2096C37.087 16.3626 37.1661 16.5316 37.3191 16.587C37.4721 16.6424 37.6411 16.5634 37.6965 16.4104C37.8079 16.1029 37.9333 15.8018 38.0716 15.5077H39.5688C38.9889 16.5282 38.5905 17.6564 38.4196 18.8489C38.219 20.2483 38.4306 21.6262 38.6425 23.0056C38.7606 23.7745 38.8788 24.5438 38.9257 25.3176C38.9618 25.9131 38.9582 26.5205 38.8879 27.1267H38.2339V17.3335H35.2416ZM39.4809 27.1267H40.3917V21.742C40.3204 21.3146 40.2831 20.8759 40.2831 20.4288C40.2831 19.9805 40.3203 19.5409 40.3917 19.1128V17.3335H40.9088C41.1869 16.6762 41.5508 16.0631 41.9868 15.5077H40.2539C39.6154 16.5414 39.1794 17.7017 39.003 18.9326C38.8074 20.2965 39.0187 21.6475 39.2299 22.9981L39.2299 22.9982C39.3488 23.7588 39.4677 24.5193 39.5139 25.2819C39.5502 25.8807 39.5487 26.5007 39.4809 27.1267ZM42.7552 15.5077C42.2696 16.0522 41.8633 16.6666 41.5539 17.3335H43.0756C43.3862 16.8176 43.7832 16.3476 44.2426 15.9394V15.5077H42.7552ZM44.2426 16.7636C44.075 16.9442 43.9203 17.1347 43.7804 17.3335H44.2426V16.7636ZM45.6628 15.6433C46.3 15.2812 47.0072 15.0316 47.7376 14.93V16.2885C47.6936 16.296 47.6497 16.3042 47.6059 16.3132C47.4465 16.3457 47.3436 16.5013 47.3761 16.6608C47.4086 16.8202 47.5642 16.9231 47.7237 16.8906L47.7376 16.8878V18.3312C46.6152 18.7309 45.9264 20.0027 46.2421 21.2002C46.7561 23.2341 46.9274 25.2093 46.7541 27.1267H45.6628V18.0197C45.8864 17.7734 46.1521 17.5516 46.4558 17.3485C46.5911 17.258 46.6274 17.075 46.5369 16.9398C46.4465 16.8045 46.2635 16.7682 46.1282 16.8586C45.9639 16.9686 45.8085 17.0843 45.6628 17.2064V15.6433ZM47.3458 27.1267H47.7376V22.6451C47.7376 22.0475 47.8372 21.5551 48.0364 21.1678C48.0879 21.0701 48.1445 20.9785 48.206 20.8928C48.1806 20.7785 48.1544 20.6639 48.1274 20.5489C48.0902 20.3905 48.1885 20.2319 48.3469 20.1946C48.502 20.1582 48.6572 20.2516 48.6986 20.4041C48.7677 20.3558 48.8402 20.3116 48.9161 20.2715C49.2664 20.086 49.6647 19.9869 50.1109 19.9741C49.8696 19.2815 49.2275 18.7928 48.482 18.7928C48.4326 18.7928 48.3839 18.7949 48.3359 18.7991C48.1126 18.9427 47.9132 19.1092 47.7376 19.2986V18.9697C47.0096 19.3383 46.5934 20.2234 46.8123 21.0512L46.8131 21.0542C47.3377 23.1296 47.5176 25.1545 47.3458 27.1267ZM49.3041 18.3567C50.0153 18.6327 50.5566 19.256 50.737 20.0189C51.1531 20.0973 51.4923 20.2756 51.7544 20.5536C52.1307 20.9409 52.3188 21.5274 52.3188 22.3131V27.1267H52.6904C52.7912 25.8711 52.7972 24.6118 52.6821 23.3373L52.6588 23.0764L52.6587 23.0751C52.5164 21.4684 52.3432 19.5131 51.3182 18.202C51.1167 18.1763 50.908 18.1634 50.6921 18.1634C50.1926 18.1634 49.73 18.2279 49.3041 18.3567ZM52.1515 18.3957C52.9552 19.8017 53.1197 21.6266 53.2595 23.1788L53.269 23.2843C53.386 24.5798 53.3812 25.8572 53.2816 27.1267H54.3936V22.0475C54.3936 21.1512 54.2332 20.4208 53.9123 19.8565C53.5914 19.2811 53.1487 18.8551 52.5844 18.5784C52.445 18.5087 52.3007 18.4478 52.1515 18.3957ZM46.0171 14.8105C45.8974 14.8623 45.7792 14.9176 45.6628 14.9763V14.8105H46.0171ZM63.3843 46.6619C63.4755 46.7103 63.5682 46.7556 63.6625 46.7979C63.9361 46.2275 64.1506 45.639 64.3075 45.0327C63.9793 44.8202 63.7158 44.5388 63.5171 44.1887C63.3849 43.9494 63.2902 43.685 63.2333 43.3956C63.168 44.2928 62.9759 45.2078 62.572 46.0943C62.8163 46.3081 63.0871 46.4973 63.3843 46.6619ZM65.6333 47.2384C65.1307 47.2198 64.6583 47.1424 64.2162 47.0062C64.4785 46.4522 64.6882 45.8828 64.8467 45.2988C65.1584 45.4108 65.4954 45.4668 65.8575 45.4668C65.9892 45.4668 66.118 45.458 66.2438 45.4403C66.0885 46.0733 65.8843 46.672 65.6333 47.2384ZM65.8575 39.9229C65.5557 39.9229 65.2715 39.9618 65.0047 40.0396C64.9871 39.94 64.9684 39.8402 64.9487 39.7401C64.9173 39.5804 64.7623 39.4764 64.6027 39.5079C64.443 39.5393 64.339 39.6943 64.3705 39.8539C64.3981 39.9943 64.4236 40.134 64.4469 40.273C64.0531 40.4935 63.7432 40.8084 63.5171 41.2176C63.3907 41.4404 63.2986 41.6877 63.241 41.9596L63.2365 41.8813C63.1903 41.119 63.0714 40.3588 62.9525 39.5985L62.9525 39.5985L62.9525 39.5984L62.9525 39.5984L62.9525 39.5983L62.9525 39.5983L62.9525 39.5982L62.9525 39.5982L62.9525 39.5981L62.9524 39.5981L62.9524 39.598L62.9524 39.598L62.9524 39.5979L62.9524 39.5979L62.9524 39.5978L62.9524 39.5977L62.9524 39.5977L62.9524 39.5976L62.9524 39.5976L62.9524 39.5975C62.9247 39.4202 62.8969 39.2429 62.8701 39.0656C63.0317 38.949 63.2031 38.842 63.3843 38.7444C63.622 38.6183 63.8703 38.5128 64.1292 38.4277C64.1596 38.5855 64.3112 38.6902 64.47 38.662C64.6302 38.6335 64.7371 38.4806 64.7086 38.3203L64.701 38.2767C65.0726 38.2012 65.4636 38.1634 65.8741 38.1634C65.9563 38.1634 66.0377 38.1651 66.118 38.1683C66.1709 38.6857 66.2467 39.2017 66.3224 39.7179L66.3224 39.7179L66.3225 39.718L66.3225 39.7182L66.3591 39.9681C66.1969 39.938 66.0297 39.9229 65.8575 39.9229ZM61.6913 40.3545C61.8785 40.0408 62.098 39.7583 62.35 39.5071L62.365 39.605L62.365 39.6051L62.365 39.6051L62.3651 39.6052L62.3651 39.6052L62.3651 39.6053L62.3651 39.6053L62.3651 39.6054L62.3651 39.6054L62.3651 39.6055L62.3651 39.6055L62.3651 39.6056L62.3651 39.6056L62.3651 39.6057L62.3651 39.6057L62.3651 39.6058L62.3651 39.6059L62.3651 39.6059L62.3651 39.606L62.3651 39.606C62.4832 40.3745 62.6013 41.1435 62.6482 41.917C62.7227 43.1467 62.6281 44.4276 62.1258 45.6425C61.9655 45.4544 61.8206 45.252 61.6913 45.0352C61.4732 44.6699 61.3132 44.2779 61.2113 43.8592C61.3257 43.2816 61.3766 42.6896 61.3413 42.0923C61.3261 41.834 61.2995 41.5771 61.2654 41.321C61.3666 40.9779 61.5085 40.6557 61.6913 40.3545ZM66.9101 39.7559C66.8346 39.2452 66.7592 38.7346 66.7062 38.2231C67.2333 38.302 67.7139 38.4591 68.1481 38.6946L68.1639 38.7028C68.2078 38.9265 68.2557 39.1474 68.3039 39.3698L68.3039 39.3702C68.4111 39.8646 68.5038 40.3587 68.5728 40.855L68.0651 41.1512C67.7995 40.7307 67.4731 40.4208 67.0858 40.2217C67.0475 40.2014 67.0089 40.1822 66.9699 40.164C66.9504 40.0287 66.9304 39.8934 66.9104 39.7582L66.9101 39.7559ZM68.8801 39.2455L68.867 39.1852C69.1887 39.4708 69.4526 39.8163 69.6586 40.2217L69.1213 40.5351C69.0552 40.1044 68.973 39.6751 68.8801 39.2455ZM68.0651 44.2385L68.5517 44.5223C68.4197 45.325 68.2015 46.0928 67.8939 46.8382C67.4089 47.0588 66.8703 47.1892 66.2783 47.2294C66.5353 46.6084 66.74 45.9528 66.89 45.2614C66.9562 45.2332 67.0215 45.2021 67.0858 45.168C67.4731 44.9688 67.7995 44.659 68.0651 44.2385ZM69.0946 44.8391C69.0003 45.3499 68.8721 45.8484 68.7091 46.3372C69.1033 46.0199 69.4198 45.6301 69.6586 45.168L69.0946 44.8391ZM78.3616 43.1995C78.4343 41.914 78.435 40.6109 78.3498 39.3735C78.0929 39.1228 77.8031 38.9076 77.4805 38.7278C77.2778 38.6148 77.0667 38.5188 76.8471 38.4398C76.9027 38.8971 76.9433 39.3481 76.9821 39.7782L76.9916 39.8836C77.0129 40.12 77.0302 40.3556 77.0436 40.5908C77.1788 40.7327 77.2967 40.8919 77.3975 41.0682C77.554 41.3421 77.6524 41.6464 77.6927 41.9811H77.0787C77.076 42.4418 77.0594 42.9009 77.0302 43.3588H78.3522C78.3555 43.3058 78.3586 43.2527 78.3616 43.1995ZM75.1733 38.1634C75.5453 38.1634 75.8998 38.1984 76.2369 38.2683C76.2994 38.7498 76.3415 39.2257 76.3812 39.6745L76.3814 39.6758L76.3927 39.8042L76.4046 39.9367C76.4101 39.9974 76.4153 40.0582 76.4203 40.1188C76.0588 39.9218 75.6431 39.8233 75.1733 39.8233C75.084 39.8233 74.9966 39.8267 74.911 39.8335C74.8589 39.2934 74.7919 38.7421 74.7123 38.1816C74.863 38.1695 75.0167 38.1634 75.1733 38.1634ZM75.0353 41.9811H76.4894C76.4866 42.4413 76.4696 42.9004 76.4397 43.3588H75.0055C75.0325 42.9126 75.0418 42.4529 75.0353 41.9811ZM75.5385 45.4834C75.7771 45.4834 76.0042 45.4656 76.22 45.43C76.1333 46.0295 76.0277 46.6292 75.9059 47.2306C75.7698 47.2388 75.6307 47.2428 75.4887 47.2428C75.1392 47.2428 74.8051 47.2185 74.4864 47.1697C74.6089 46.6011 74.7077 46.0153 74.7833 45.4125C75.0208 45.4598 75.2725 45.4834 75.5385 45.4834ZM77.5469 46.8777C77.2297 47.0069 76.8876 47.1018 76.5205 47.1624C76.6449 46.5312 76.7518 45.9002 76.8378 45.2682C76.8494 45.2638 76.861 45.2595 76.8726 45.255C76.876 45.2537 76.8795 45.2524 76.8829 45.251C77.2813 45.0961 77.6354 44.8527 77.9452 44.5207L78.2284 44.8462C78.1624 45.4723 78.0802 46.0828 77.9838 46.667C77.8447 46.7438 77.6991 46.814 77.5469 46.8777ZM78.652 46.2046C78.6883 45.9561 78.722 45.704 78.7531 45.4491L79.0573 45.7988C78.9325 45.9444 78.7974 46.0796 78.652 46.2046ZM74.2105 45.2417C74.1353 45.8646 74.035 46.4676 73.9092 47.0504C73.5506 46.9558 73.214 46.8263 72.8993 46.6619C72.813 46.6148 72.7289 46.5657 72.6471 46.5146C72.8193 45.786 72.9423 45.0345 73.0162 44.2608C73.2572 44.6433 73.589 44.9402 74.0114 45.1514C74.0763 45.1839 74.1427 45.214 74.2105 45.2417ZM72.2375 39.1203C72.6364 41.6671 72.5954 44.0095 72.1283 46.1388C71.7546 45.8255 71.4417 45.4576 71.1896 45.0352C71.1076 44.8939 71.0339 44.7485 70.9688 44.5992C71.1543 43.2851 71.1806 41.947 71.05 40.5857C71.0886 40.5073 71.1296 40.4302 71.173 40.3545C71.4555 39.868 71.8103 39.4566 72.2375 39.1203ZM72.7997 38.7444C73.21 38.5164 73.6529 38.3556 74.1284 38.2618C74.2096 38.8338 74.2774 39.3941 74.3293 39.9408C74.1525 39.9942 73.9856 40.0656 73.8288 40.1553C73.5099 40.3428 73.2467 40.594 73.0391 40.9087C72.9862 40.2069 72.8984 39.4899 72.7757 38.758L72.7997 38.7444ZM73.0932 41.9811H74.4459C74.4526 42.4547 74.443 42.9144 74.415 43.3588H73.0796C73.1002 42.9067 73.1047 42.4475 73.0932 41.9811ZM78.95 43.2328L78.9426 43.3588H79.6217C79.6328 43.2592 79.6383 43.1541 79.6383 43.0434C79.6494 42.9328 79.6549 42.8332 79.6549 42.7446C79.6549 41.8151 79.4612 41.0073 79.0739 40.3213C79.0442 40.2686 79.0136 40.2168 78.9822 40.166C79.0211 41.1775 79.0076 42.2136 78.95 43.2328Z" fill="white"/>
<g filter="url(#filter0_b_5507_80143)">
<path fill-rule="evenodd" clip-rule="evenodd" d="M29.8748 27.8432C26.1707 22.6147 26.8464 15.6136 31.1508 11.1814C31.7088 10.6163 32.3168 10.0915 32.9833 9.61919C33.3255 9.37586 33.6741 9.15099 34.036 8.94475C34.7588 8.53213 35.5128 8.19131 36.2751 7.93676C37.5674 7.47957 38.8958 7.24543 40.2317 7.22172C44.4249 7.12537 48.5924 9.04975 51.1958 12.7257C53.8072 16.4108 54.2335 20.98 52.7601 24.9061C52.2875 26.1566 51.6261 27.3335 50.774 28.4026C50.2726 29.0371 49.7027 29.6262 49.0737 30.1724C48.7603 30.4448 48.4317 30.6991 48.0887 30.9413C47.4221 31.4146 46.7252 31.822 46.0077 32.1527C40.4007 34.7463 33.5719 33.0619 29.8748 27.8432Z" fill="#141521" fill-opacity="0.01"/>
</g>
<path fill-rule="evenodd" clip-rule="evenodd" d="M30.2915 27.5539C26.5246 22.2357 27.7814 14.8728 33.0975 11.1031C38.4076 7.33842 45.7676 8.59382 49.5336 13.9127C53.2954 19.2248 52.0395 26.5878 46.7294 30.3525C41.4134 34.1214 34.0534 32.866 30.2915 27.5539M48.6577 33.0868C55.4813 28.2491 57.0933 18.7986 52.2592 11.9725C47.4258 5.14729 37.9753 3.53009 31.1518 8.36695C24.9432 12.7701 23.0459 21.0078 26.4022 27.6019C26.7306 28.2461 27.1141 28.8779 27.5484 29.4923C27.9838 30.106 28.4524 30.6775 28.9511 31.2002C34.0571 36.5545 42.4484 37.489 48.6577 33.0868" fill="white"/>
<path fill-rule="evenodd" clip-rule="evenodd" d="M1.66697 48.6902L1.46402 48.4036C0.120526 46.5075 0.572963 43.855 2.46918 42.5106L19.9687 30.104L25.0563 37.2882L7.55679 49.6948C5.66057 51.0391 3.01032 50.5871 1.66697 48.6902" fill="white"/>
<path fill-rule="evenodd" clip-rule="evenodd" d="M29.3612 31.6012L24.19 35.2674L21.59 31.5949L26.7611 27.9296C27.0962 28.5869 27.4877 29.2308 27.9308 29.8586C28.3741 30.4846 28.8523 31.0678 29.3612 31.6012" fill="white"/>
<path fill-rule="evenodd" clip-rule="evenodd" d="M7.79024 49.5064L2.73584 42.3681L4.02132 41.4575L9.07585 48.595L7.79024 49.5064Z" fill="white"/>
<path fill-rule="evenodd" clip-rule="evenodd" d="M24.794 37.5907L19.6003 30.2568L20.6894 29.4845L25.8832 36.8185L24.794 37.5907Z" fill="#0AC0A0"/>
<defs>
<filter id="filter0_b_5507_80143" x="24.3373" y="4.09047" width="32.3918" height="32.3908" filterUnits="userSpaceOnUse" color-interpolation-filters="sRGB">
<feFlood flood-opacity="0" result="BackgroundImageFix"/>
<feGaussianBlur in="BackgroundImageFix" stdDeviation="1.5639"/>
<feComposite in2="SourceAlpha" operator="in" result="effect1_backgroundBlur_5507_80143"/>
<feBlend mode="normal" in="SourceGraphic" in2="effect1_backgroundBlur_5507_80143" result="shape"/>
</filter>
</defs>
</svg>
