<svg width="80" height="58" viewBox="0 0 80 58" fill="none" xmlns="http://www.w3.org/2000/svg">
<path fill-rule="evenodd" clip-rule="evenodd" d="M61.8856 18.2054C61.5697 18.1449 61.2386 18.1146 60.8925 18.1146C60.743 18.1146 60.5961 18.1201 60.452 18.1312C60.5731 18.6653 60.6685 19.2135 60.7435 19.7777C60.7925 19.7756 60.8422 19.7745 60.8925 19.7745C61.3748 19.7745 61.8001 19.8783 62.1682 20.086C62.103 19.4476 62.0105 18.8205 61.8856 18.2054ZM62.8049 20.5874C62.7465 19.8375 62.6538 19.0991 62.5186 18.3741C62.7554 18.4563 62.9824 18.5579 63.1997 18.679C63.8747 19.0552 64.4058 19.5864 64.7931 20.2724C65.1804 20.9585 65.3741 21.7663 65.3741 22.6958C65.3741 22.7843 65.3685 22.8839 65.3575 22.9946C65.3575 23.1052 65.3519 23.2104 65.3409 23.31H61.0274C61.0155 23.0152 61.0004 22.7234 60.9825 22.4377C60.9723 22.2763 60.8324 22.1536 60.67 22.1637C60.5076 22.1738 60.3841 22.3128 60.3943 22.4742C60.4115 22.7486 60.4261 23.0282 60.4376 23.31H59.1629C59.1386 22.8955 59.1057 22.4848 59.0637 22.079C59.058 22.0237 59.0372 21.9736 59.0057 21.9323H62.2847L62.2869 22.015C62.2909 22.1766 62.426 22.3045 62.5887 22.3005C62.7514 22.2965 62.8801 22.1622 62.8761 22.0006L62.8743 21.9323H63.4119C63.3716 21.5975 63.2732 21.2932 63.1167 21.0194C63.0265 20.8616 62.9226 20.7176 62.8049 20.5874ZM58.5356 21.9323H58.3677C58.4131 21.5998 58.5078 21.301 58.6517 21.036C58.873 20.6376 59.1718 20.3278 59.548 20.1064C59.7375 19.9982 59.9415 19.9164 60.1601 19.8611C60.0847 19.292 59.9883 18.7424 59.8655 18.2095C59.3832 18.3027 58.9344 18.4648 58.5189 18.6956L58.5184 18.6959C58.6474 19.2602 58.7419 19.8376 58.8021 20.4231C58.8187 20.584 58.7009 20.7277 58.539 20.7442C58.3771 20.7606 58.2324 20.6435 58.2159 20.4826C58.1657 19.9951 58.091 19.5146 57.9918 19.0442C57.5489 19.3854 57.1824 19.8059 56.8922 20.3056C56.8765 20.3331 56.861 20.3607 56.8459 20.3885C56.8575 20.4607 56.8687 20.5324 56.8797 20.6036C57.1898 22.6046 57.2373 24.5568 57.2374 25.4631C57.6003 25.9214 58.0521 26.3 58.5927 26.5989C58.6315 25.7163 58.6365 24.8393 58.6047 23.9776C58.503 23.7695 58.4301 23.547 58.3862 23.31H58.5725C58.549 22.9155 58.5174 22.5248 58.4775 22.1389C58.4695 22.0621 58.4922 21.9893 58.5356 21.9323ZM59.2129 24.7633C59.2206 25.4559 59.2059 26.1555 59.1705 26.8574C59.5428 26.9947 59.9415 27.09 60.3665 27.1433C60.4209 26.5949 60.452 25.9876 60.4634 25.3557C60.2017 25.3004 59.9574 25.216 59.7306 25.1026C59.5395 25.007 59.3669 24.8939 59.2129 24.7633ZM61.0514 25.4297C61.039 26.0482 61.0077 26.6452 60.9541 27.1896C61.0378 27.1926 61.1223 27.194 61.2078 27.194C61.4659 27.194 61.7141 27.1805 61.9524 27.1535C62.6847 26.4035 63.4856 25.741 64.2896 25.1904L63.6644 24.4719C63.3546 24.8038 63.0005 25.0473 62.6021 25.2022C62.2038 25.3571 61.7556 25.4346 61.2576 25.4346C61.1879 25.4346 61.1192 25.4329 61.0514 25.4297ZM58.6757 42.6467C58.8516 41.5635 58.6572 40.4959 58.4345 39.4318C58.3247 39.2901 58.2018 39.1609 58.0659 39.0441C57.3688 38.4245 56.3784 38.1146 55.0948 38.1146C54.431 38.1146 53.7867 38.1972 53.1618 38.3625C53.6806 38.8224 54.1664 39.3183 54.6143 39.8465C54.6914 39.8427 54.7685 39.8409 54.8458 39.8409C55.5872 39.8409 56.1405 40.0124 56.5057 40.3554C56.8708 40.6874 57.0534 41.1577 57.0534 41.7663V41.8991H56.0662C56.3248 42.3437 56.5595 42.8034 56.7683 43.2768H57.0534V43.9745C57.1312 44.1809 57.2041 44.3895 57.2721 44.6004C57.5318 45.4066 57.7241 46.2334 57.8616 47.0778H59.1282V42.9382C59.0689 42.9769 58.9953 42.9945 58.9197 42.9824C58.759 42.9566 58.6498 42.8063 58.6757 42.6467ZM57.2644 47.0778C57.2352 46.9043 57.2037 46.7316 57.1696 46.5599V47.0778H57.2644ZM57.0783 46.129C56.9816 45.6998 56.8683 45.2768 56.7367 44.8601C56.5831 45.0508 56.3954 45.2091 56.1737 45.335C55.9686 45.4546 55.7487 45.5435 55.5143 45.6015C55.6426 46.0504 55.7498 46.509 55.8392 46.9786C56.0124 46.9189 56.1737 46.8469 56.3231 46.7625C56.6311 46.5921 56.8829 46.3809 57.0783 46.129ZM55.267 47.1233C55.1739 46.6289 55.061 46.149 54.9242 45.6817C54.8873 45.6829 54.8501 45.6835 54.8126 45.6835C54.2815 45.6835 53.8665 45.5729 53.5677 45.3516C53.269 45.1303 53.1196 44.8315 53.1196 44.4553C53.1196 44.1233 53.2413 43.8466 53.4847 43.6253C53.6002 43.5151 53.7679 43.431 53.988 43.3731C53.8044 43.0303 53.6013 42.6932 53.3768 42.361C53.3031 42.2521 53.313 42.1117 53.3915 42.0145C53.0974 42.0713 52.8352 42.149 52.605 42.2477C52.3297 42.3656 52.093 42.505 51.8947 42.6657C52.8343 43.9762 53.4776 45.5184 53.8297 47.1666C54.0066 47.1849 54.1904 47.194 54.3811 47.194C54.699 47.194 54.9943 47.1705 55.267 47.1233ZM53.2016 47.0563C52.8645 45.6065 52.2913 44.2593 51.4846 43.1044C51.4644 43.1337 51.445 43.1635 51.4265 43.1938C51.1941 43.5921 51.0779 44.0403 51.0779 44.5382C51.0779 44.7245 51.0957 44.904 51.1313 45.0769C51.2604 45.3461 51.3736 45.6257 51.4735 45.9116C51.4744 45.913 51.4754 45.9145 51.4763 45.9159C51.753 46.3143 52.1403 46.6297 52.6382 46.862C52.8155 46.9408 53.0033 47.0056 53.2016 47.0563ZM53.784 41.9534C53.8155 41.9742 53.8436 42.0013 53.866 42.0345C54.143 42.4444 54.3886 42.8607 54.6062 43.2848C54.7028 43.2794 54.8049 43.2768 54.9122 43.2768H56.1225C55.9021 42.8021 55.6543 42.3423 55.3814 41.8991H54.7628C54.4089 41.8991 54.0826 41.9172 53.784 41.9534ZM53.9115 39.9331C53.4753 39.4467 53.0049 38.991 52.5047 38.5693C52.0749 38.7333 51.6901 38.9452 51.3503 39.2049C51.805 39.5652 52.236 39.9606 52.6389 40.3896C52.8597 40.2652 53.1029 40.1597 53.3685 40.0732C53.5488 40.0159 53.7297 39.9692 53.9115 39.9331ZM50.5808 38.6433V38.1146C50.3069 38.1146 50.0473 38.1306 49.802 38.1626C50.067 38.3127 50.3269 38.473 50.5808 38.6433ZM44.2423 36.5905V35.4589H41.0854C41.0031 35.4748 40.9209 35.4915 40.8388 35.5091C40.753 35.5276 40.6678 35.5068 40.6021 35.4589H39.3467C39.3828 35.4939 39.4104 35.5386 39.4248 35.5904C39.4681 35.7463 39.376 35.9076 39.2191 35.9506C38.3955 36.1763 37.4187 36.6378 36.4287 37.2847H38.2337V37.9229C39.733 37.1521 41.3893 36.6867 43.0859 36.6048C43.4718 36.5814 43.8578 36.5767 44.2423 36.5905ZM38.2337 38.5867V40.1875C38.7497 39.8637 39.2968 39.5848 39.8686 39.3565C40.0197 39.2963 40.1913 39.3691 40.2519 39.5191C40.3126 39.6692 40.2393 39.8397 40.0883 39.9C39.4314 40.1622 38.8096 40.4952 38.2337 40.8887V42.6745C38.8698 42.1092 39.5972 41.6406 40.3915 41.2923V37.6723C39.6437 37.9033 38.9201 38.211 38.2337 38.5867ZM42.1171 37.2847C42.4479 37.2377 42.7813 37.2058 43.1163 37.1897L43.12 37.1895C43.4946 37.1667 43.8692 37.1625 44.2423 37.1765V37.2847H42.1171ZM40.3915 41.9371C39.58 42.3266 38.8502 42.8534 38.2337 43.4863V45.7161C38.7299 44.817 39.4898 44.0464 40.3915 43.4852V41.9371ZM40.3915 44.1893C39.3774 44.9126 38.6092 45.9341 38.3229 47.0778H39.734C39.8837 46.6488 40.1063 46.2695 40.3915 45.9318V44.1893ZM40.3915 47.0185C40.3826 47.0381 40.3739 47.0579 40.3653 47.0778H40.3915V47.0185ZM45.4518 43.3717C46.1265 43.5814 46.8645 43.9277 47.5266 44.4765V46.7761C47.2438 46.2326 46.8732 45.7444 46.3814 45.3489C46.0977 45.1206 45.7841 44.933 45.4518 44.788V43.3717ZM45.4518 45.4381V47.0778H47.0263C46.7746 46.5902 46.4457 46.154 46.0107 45.8041C45.8367 45.6642 45.6493 45.542 45.4518 45.4381ZM47.5266 43.7362C46.843 43.2559 46.1132 42.9498 45.4518 42.7624V41.3712C46.2047 41.5411 46.9146 41.8204 47.5632 42.1909C47.5388 42.375 47.5266 42.5709 47.5266 42.7788V43.7362ZM47.6985 41.595C47.0051 41.2189 46.2499 40.9384 45.4518 40.7718V39.3315C46.556 39.516 47.6245 39.886 48.5923 40.4387C48.4599 40.5244 48.3371 40.6239 48.2238 40.7372C47.9898 40.9656 47.8147 41.2515 47.6985 41.595ZM49.2471 40.1478C49.5064 40.076 49.7905 40.0401 50.0994 40.0401C50.1769 40.0401 50.2543 40.0456 50.3318 40.0566C50.4093 40.0566 50.4922 40.0677 50.5808 40.0898V39.3584C50.0573 38.98 49.5046 38.6479 48.9298 38.3644C48.7565 38.425 48.5931 38.4967 48.4396 38.5794C48.0953 38.7684 47.8067 39.0109 47.5736 39.3069C48.156 39.5326 48.7172 39.813 49.2471 40.1478ZM47.427 39.2514V38.2142H45.4518V38.7382C46.1257 38.8442 46.7885 39.0154 47.427 39.2514ZM35.4006 37.2847C36.5752 36.4189 37.7821 35.7845 38.8154 35.4589H34.3828V37.2847H35.4006ZM64.6775 25.6362C64.13 26.0076 63.5813 26.4345 63.0553 26.9084C63.1267 26.8835 63.197 26.857 63.2661 26.8288C63.8747 26.5743 64.3782 26.2147 64.7765 25.7499L64.6775 25.6362ZM56.6296 24.4099C56.6037 23.6294 56.5446 22.6276 56.4173 21.5689C56.3466 21.9087 56.3113 22.2678 56.3113 22.646C56.3113 23.2841 56.4174 23.8721 56.6296 24.4099ZM35.1879 15.4589H34.3828V17.2847H34.6268C34.7708 16.6646 34.96 16.0538 35.1879 15.4589ZM35.2324 17.2847C35.3834 16.6647 35.5816 16.0536 35.8203 15.4589H37.4127C37.3155 15.6794 37.2252 15.9036 37.1423 16.1312C37.0868 16.2832 37.1659 16.4512 37.3189 16.5063C37.4719 16.5614 37.6409 16.4828 37.6963 16.3307C37.8046 16.0339 37.9259 15.7431 38.0596 15.4589H39.5543C38.9822 16.4663 38.5889 17.5788 38.4194 18.754C38.2188 20.1447 38.4304 21.514 38.6423 22.8848C38.7604 23.6488 38.8786 24.4133 38.9255 25.1823C38.9635 25.8061 38.9575 26.4431 38.8757 27.0778H38.2337V17.2847H35.2324ZM39.4695 27.0778H40.3915V21.6287C40.3202 21.204 40.283 20.7682 40.283 20.324C40.283 19.8787 40.3201 19.442 40.3915 19.0166V17.2847H40.8932C41.169 16.6276 41.5315 16.0145 41.9669 15.4589H40.2381C39.6081 16.4798 39.1778 17.624 39.0028 18.8371C38.8073 20.1925 39.0185 21.5351 39.2297 22.8773C39.3486 23.6332 39.4675 24.389 39.5138 25.1469C39.5519 25.773 39.5482 26.4227 39.4695 27.0778ZM42.7325 15.4589C42.248 16.0037 41.8435 16.6181 41.5367 17.2847H43.0535C43.3672 16.7577 43.7721 16.278 44.2423 15.8628V15.4589H42.7325ZM44.2423 16.6818C44.0644 16.8723 43.9011 17.0739 43.7546 17.2847H44.2423V16.6818ZM45.6625 15.5685C46.2997 15.2086 47.007 14.9606 47.7374 14.8597V16.2097C47.6934 16.2171 47.6495 16.2253 47.6058 16.2341C47.4463 16.2664 47.3434 16.4211 47.3759 16.5796C47.4084 16.738 47.564 16.8403 47.7235 16.808L47.7374 16.8052V18.2395C46.615 18.6368 45.9262 19.9006 46.2419 21.0906C46.7647 23.1464 46.9329 25.1419 46.7447 27.0778H45.6625V17.93C45.8862 17.6852 46.1519 17.4649 46.4557 17.263C46.5909 17.1731 46.6272 16.9912 46.5368 16.8568C46.4463 16.7224 46.2633 16.6863 46.128 16.7762C45.9637 16.8854 45.8083 17.0004 45.6625 17.1218V15.5685ZM47.3367 27.0778H47.7374V22.5962C47.7374 21.9987 47.837 21.5063 48.0361 21.119C48.0905 21.016 48.1504 20.9197 48.2158 20.83C48.1873 20.7016 48.1578 20.5728 48.1272 20.4434C48.09 20.286 48.1883 20.1283 48.3467 20.0914C48.5051 20.0544 48.6637 20.152 48.701 20.3095L48.7099 20.3473C48.7755 20.3021 48.8442 20.2606 48.9159 20.2226C49.2708 20.0347 49.6749 19.9355 50.1283 19.9248C49.9019 19.2088 49.2462 18.6982 48.4818 18.6982C48.4602 18.6982 48.4386 18.6986 48.4172 18.6995C48.1607 18.8541 47.934 19.0376 47.7374 19.2498V18.8741C47.0094 19.2404 46.5933 20.1199 46.8121 20.9425L46.8129 20.9456C47.3463 23.0423 47.5233 25.0872 47.3367 27.0778ZM49.3656 18.2897C50.0634 18.5825 50.5875 19.2113 50.7494 19.9725C51.1598 20.0521 51.4947 20.2296 51.7542 20.5048C52.1304 20.8921 52.3186 21.4786 52.3186 22.2643V27.0778H52.6821C52.7907 25.7977 52.8 24.5139 52.6819 23.2143C52.6742 23.1291 52.6665 23.0426 52.6587 22.9551L52.6585 22.9538C52.5179 21.3761 52.3472 19.4603 51.3543 18.158C51.1416 18.1291 50.9208 18.1146 50.6919 18.1146C50.2164 18.1146 49.7743 18.173 49.3656 18.2897ZM52.182 18.3577C52.9593 19.7475 53.1213 21.5342 53.2594 23.0569L53.2689 23.1617C53.3889 24.4823 53.3807 25.7841 53.2735 27.0778H54.3934V21.9987C54.3934 21.1024 54.2329 20.372 53.912 19.8077C53.5911 19.2323 53.1485 18.8062 52.5841 18.5296C52.4544 18.4647 52.3203 18.4074 52.182 18.3577ZM45.969 14.7617C45.8656 14.8071 45.7634 14.8551 45.6625 14.9056V14.7617H45.969ZM63.3841 46.6131C63.446 46.6459 63.5087 46.6774 63.572 46.7074C63.8604 46.1403 64.0888 45.5549 64.2585 44.9515C63.9528 44.743 63.7056 44.4725 63.5169 44.1399C63.3754 43.884 63.2771 43.5994 63.2217 43.2862C63.1423 44.1844 62.9301 45.098 62.4988 45.9802C62.7618 46.2209 63.0569 46.4319 63.3841 46.6131ZM65.5309 47.185C65.0303 47.1583 64.5602 47.0723 64.1206 46.927C64.3973 46.3764 64.6204 45.8104 64.7915 45.2295C65.1185 45.3552 65.4737 45.418 65.8572 45.418C65.969 45.418 66.0787 45.4116 66.1863 45.3989C66.0171 46.0283 65.7978 46.6231 65.5309 47.185ZM65.8572 39.8741C65.5668 39.8741 65.2925 39.9101 65.0345 39.9822C65.0085 39.8259 64.9799 39.6689 64.9487 39.5112C64.9172 39.3525 64.7623 39.2492 64.6026 39.2804C64.4429 39.3117 64.339 39.4656 64.3704 39.6243C64.4093 39.8206 64.4439 40.0154 64.4742 40.209C64.0673 40.4302 63.7482 40.7501 63.5169 41.1687C63.3961 41.3816 63.3067 41.6168 63.2487 41.8744C63.2453 41.7956 63.2412 41.7172 63.2364 41.639C63.1902 40.8812 63.0713 40.1254 62.9523 39.3696L62.9523 39.3695C62.9329 39.2461 62.9135 39.1227 62.8944 38.9992C63.0487 38.8895 63.212 38.7882 63.3841 38.6956C63.6453 38.5571 63.9192 38.4433 64.2059 38.3543C64.2717 38.4223 64.3694 38.4575 64.47 38.4398C64.5862 38.4193 64.6743 38.3337 64.7031 38.2274C65.074 38.1522 65.4643 38.1146 65.8738 38.1146C65.9625 38.1146 66.05 38.1165 66.1364 38.1202C66.1877 38.5771 66.255 39.0331 66.3224 39.4891L66.3224 39.4891L66.3224 39.4893L66.3226 39.4904C66.3439 39.6351 66.3653 39.7798 66.3862 39.9245C66.2155 39.8909 66.0392 39.8741 65.8572 39.8741ZM61.691 40.3056C61.8842 39.982 62.1118 39.6916 62.3739 39.4344C62.489 40.1793 62.6024 40.9248 62.6481 41.6745C62.7256 42.9449 62.6203 44.2704 62.064 45.5199C61.928 45.353 61.8036 45.1751 61.691 44.9864C61.4563 44.5931 61.2889 44.1689 61.1887 43.7137C61.3189 43.1053 61.3788 42.48 61.3413 41.8487C61.3287 41.6367 61.3083 41.4256 61.2824 41.2151C61.3823 40.8933 61.5185 40.5901 61.691 40.3056ZM66.91 39.5266C66.8431 39.0769 66.7763 38.6274 66.7251 38.1771C67.2447 38.2569 67.719 38.4132 68.1478 38.6458C68.1665 38.6554 68.185 38.6652 68.2034 38.675C68.2358 38.8314 68.2698 38.9871 68.3039 39.1436C68.4236 39.6925 68.5252 40.2409 68.596 40.7925L68.0648 41.1024C67.7993 40.6819 67.4728 40.372 67.0855 40.1728C67.0566 40.1575 67.0274 40.1428 66.9981 40.1286C66.9697 39.9286 66.94 39.7286 66.9103 39.5287L66.91 39.5269L66.91 39.5266ZM69.1466 40.4713C69.0844 40.0396 69.0051 39.6095 68.9142 39.1794C69.2145 39.4565 69.4625 39.7876 69.6583 40.1728L69.1466 40.4713ZM68.0648 44.1897L68.5183 44.4542C68.3735 45.241 68.1433 45.9947 67.8248 46.7273C67.8102 46.7609 67.8024 46.7957 67.8009 46.8302C67.3127 47.0378 66.7718 47.1566 66.1781 47.1865C66.4513 46.5713 66.6713 45.9212 66.8357 45.2349C66.9206 45.201 67.0038 45.1625 67.0855 45.1192C67.4728 44.92 67.7993 44.6102 68.0648 44.1897ZM69.0575 44.7687C68.946 45.3158 68.7945 45.8489 68.602 46.3713C69.0462 46.0397 69.3983 45.6223 69.6583 45.1192L69.0575 44.7687ZM78.3615 42.949C78.4305 41.7372 78.4347 40.5097 78.3622 39.337C78.1022 39.0811 77.8082 38.8618 77.4802 38.679C77.2842 38.5697 77.0802 38.4763 76.8683 38.3988C76.9133 38.7914 76.9484 39.178 76.982 39.5489L76.982 39.5491L76.9915 39.6538C77.0188 39.9545 77.0395 40.2543 77.0539 40.5531C77.1847 40.6922 77.2991 40.8476 77.3972 41.0194C77.5537 41.2932 77.6521 41.5975 77.6924 41.9323H77.0767C77.0701 42.3929 77.0495 42.852 77.0163 43.31H78.3391C78.3472 43.1899 78.3547 43.0696 78.3615 42.949ZM75.173 38.1146C75.5533 38.1146 75.9152 38.1511 76.2589 38.2241C76.3096 38.6425 76.3463 39.0547 76.3812 39.446L76.3813 39.4472C76.3891 39.5348 76.3968 39.6213 76.4046 39.7065C76.4158 39.8306 76.426 39.9545 76.4349 40.0782C76.07 39.8757 75.6494 39.7745 75.173 39.7745C75.0897 39.7745 75.008 39.7774 74.9279 39.7834C74.8786 39.2434 74.8138 38.692 74.736 38.1309C74.879 38.1201 75.0247 38.1146 75.173 38.1146ZM75.037 41.9323H76.4873C76.4805 42.3924 76.4594 42.8515 76.4254 43.31H74.9918C75.0247 42.8643 75.0391 42.4045 75.037 41.9323ZM75.5382 45.4346C75.7648 45.4346 75.981 45.4185 76.1869 45.3865C76.0952 45.9849 75.9847 46.5838 75.8584 47.1844C75.7374 47.1908 75.6141 47.194 75.4884 47.194C75.1212 47.194 74.7708 47.1671 74.4375 47.1132C74.5678 46.5457 74.6737 45.9606 74.7557 45.3581C75.0012 45.4091 75.2621 45.4346 75.5382 45.4346ZM77.5466 46.8288C77.216 46.9636 76.8582 47.061 76.4733 47.1212C76.6025 46.4911 76.7146 45.8614 76.8059 45.2309C76.8317 45.2216 76.8573 45.2121 76.8827 45.2022C77.2811 45.0473 77.6352 44.8038 77.945 44.4719L78.2078 44.7739C78.1357 45.4183 78.0462 46.0446 77.9417 46.641C77.8153 46.7089 77.6837 46.7715 77.5466 46.8288ZM78.6138 46.188C78.6553 45.9206 78.6939 45.6487 78.7293 45.3732L79.0571 45.7499C78.9215 45.9081 78.7737 46.0542 78.6138 46.188ZM74.1847 45.1823C74.1029 45.8049 73.9953 46.4072 73.8615 46.9888C73.5207 46.8955 73.1998 46.7702 72.899 46.6131C72.7961 46.5569 72.6964 46.498 72.5999 46.4361C72.7828 45.7081 72.9156 44.9569 72.998 44.183C73.2404 44.5795 73.5781 44.8861 74.0111 45.1026C74.0679 45.131 74.1257 45.1575 74.1847 45.1823ZM72.2617 39.0524C72.6456 41.5962 72.5824 43.9331 72.0862 46.0545C71.731 45.749 71.432 45.3929 71.1894 44.9864C71.0975 44.8282 71.0163 44.6651 70.9456 44.4969C71.1442 43.1908 71.1831 41.8608 71.0643 40.5075C71.0986 40.4392 71.1348 40.3719 71.1728 40.3056C71.4606 39.8099 71.8236 39.3922 72.2617 39.0524ZM72.802 38.6942C73.2184 38.4632 73.6683 38.3013 74.1518 38.2084C74.2312 38.7806 74.2966 39.3408 74.3456 39.8871C74.1626 39.9409 73.9903 40.014 73.8286 40.1064C73.516 40.2903 73.2569 40.5353 73.0512 40.8414C73.0036 40.1409 72.9205 39.425 72.802 38.6942ZM73.097 41.9323H74.4477C74.4499 42.4064 74.4349 42.8662 74.4008 43.31H73.0691C73.0949 42.858 73.1042 42.3988 73.097 41.9323ZM78.9499 42.9821C78.9437 43.0915 78.937 43.2008 78.9297 43.31H79.6214C79.6325 43.2104 79.638 43.1052 79.638 42.9946C79.6491 42.8839 79.6546 42.7843 79.6546 42.6958C79.6546 41.7663 79.461 40.9585 79.0737 40.2724C79.0462 40.2237 79.018 40.1758 78.989 40.1286C79.0191 41.0719 79.0039 42.0343 78.9499 42.9821Z" fill="#141521"/>
<g filter="url(#filter0_b_5498_42099)">
<path fill-rule="evenodd" clip-rule="evenodd" d="M29.8745 27.6937C26.1812 22.4978 26.8659 15.5372 31.1722 11.1284C31.7305 10.5662 32.3386 10.0442 33.0051 9.57422C33.3473 9.33211 33.6959 9.10834 34.0577 8.9031C34.7804 8.49246 35.5341 8.1532 36.2961 7.89968C37.5877 7.44441 38.9152 7.21085 40.2498 7.1865C44.439 7.08825 48.5998 8.99897 51.1956 12.6519C53.7994 16.314 54.2189 20.8563 52.7415 24.7604C52.2677 26.0039 51.6053 27.1742 50.7525 28.2376C50.2507 28.8687 49.6807 29.4547 49.0515 29.9981C48.7381 30.2691 48.4094 30.5221 48.0664 30.7631C47.3998 31.234 46.703 31.6395 45.9857 31.9686C40.3807 34.5503 33.5609 32.8798 29.8745 27.6937Z" fill="#141521" fill-opacity="0.01"/>
</g>
<path fill-rule="evenodd" clip-rule="evenodd" d="M30.291 27.4105C26.5439 22.1256 27.8167 14.8035 33.1329 11.0509C38.443 7.30339 45.787 8.54575 49.5331 13.8314C53.2752 19.1103 52.0032 26.4325 46.6931 30.18C41.3771 33.9318 34.0331 32.6894 30.291 27.4105ZM48.6114 32.896C55.435 28.0803 57.0675 18.6823 52.2589 11.8988C47.4509 5.11625 38.021 3.51581 31.1976 8.33065C24.989 12.7138 23.0746 20.9062 26.4086 27.4601C26.7348 28.1003 27.1161 28.7283 27.5482 29.3388C27.9812 29.9487 28.4476 30.5166 28.9441 31.0359C34.0279 36.3557 42.4021 37.2781 48.6114 32.896Z" fill="#141521"/>
<path fill-rule="evenodd" clip-rule="evenodd" d="M1.66594 48.4126L1.46358 48.1278C0.124017 46.2436 0.579668 43.6063 2.47588 42.2687L19.9754 29.9243L25.0482 37.0635L7.54861 49.408C5.6524 50.7456 3.00536 50.2977 1.66594 48.4126Z" fill="#141521"/>
<path fill-rule="evenodd" clip-rule="evenodd" d="M29.3576 31.4196L24.1864 35.0674L21.5941 31.418L26.7651 27.771C27.099 28.4243 27.4892 29.0641 27.931 29.688C28.3731 30.3102 28.85 30.8897 29.3576 31.4196Z" fill="#141521"/>
<path fill-rule="evenodd" clip-rule="evenodd" d="M7.78309 49.2159L2.74348 42.1222L4.02895 41.2162L9.0687 48.309L7.78309 49.2159Z" fill="#141521"/>
<path fill-rule="evenodd" clip-rule="evenodd" d="M24.7867 37.3732L19.6081 30.0851L20.6972 29.3167L25.8758 36.6048L24.7867 37.3732Z" fill="#0AC0A0"/>
<defs>
<filter id="filter0_b_5498_42099" x="24.3497" y="4.05482" width="32.3662" height="32.239" filterUnits="userSpaceOnUse" color-interpolation-filters="sRGB">
<feFlood flood-opacity="0" result="BackgroundImageFix"/>
<feGaussianBlur in="BackgroundImageFix" stdDeviation="1.5639"/>
<feComposite in2="SourceAlpha" operator="in" result="effect1_backgroundBlur_5498_42099"/>
<feBlend mode="normal" in="SourceGraphic" in2="effect1_backgroundBlur_5498_42099" result="shape"/>
</filter>
</defs>
</svg>
