<svg width="205" height="280" viewBox="0 0 205 280" fill="none" xmlns="http://www.w3.org/2000/svg">
<g filter="url(#filter0_b_5150_178212)">
<path fill-rule="evenodd" clip-rule="evenodd" d="M71.7859 135.731C59.7092 110.476 67.803 80.8323 89.6183 64.9364C92.4393 62.9166 95.4457 61.1075 98.6652 59.5673C100.319 58.773 101.986 58.063 103.697 57.443C107.115 56.2017 110.614 55.2926 114.085 54.7611C119.987 53.7496 125.88 53.7252 131.65 54.6124C149.775 57.3026 166.294 68.6744 174.781 86.4296C183.296 104.23 181.748 124.219 172.496 140.032C169.536 145.066 165.816 149.644 161.356 153.616C158.727 155.977 155.837 158.091 152.724 159.977C151.173 160.918 149.57 161.769 147.914 162.558C144.693 164.102 141.391 165.34 138.057 166.233C111.995 173.248 83.8398 160.939 71.7859 135.731Z" fill="white" fill-opacity="0.01"/>
</g>
<path fill-rule="evenodd" clip-rule="evenodd" d="M73.7927 134.8C61.512 109.113 72.3756 78.3413 98.0566 66.0471C123.708 53.77 154.467 64.6255 166.743 90.3154C179.007 115.973 168.147 146.745 142.496 159.022C116.816 171.313 86.0562 160.458 73.7927 134.8ZM148.774 172.22C181.736 156.444 195.675 116.947 179.916 83.9769C164.16 51.011 124.667 37.0497 91.7058 52.8224C61.7133 67.1831 47.4441 101.246 57.0117 132.123C57.9487 135.14 59.1322 138.145 60.5474 141.112C61.9673 144.076 63.5618 146.884 65.3219 149.504C83.3414 176.339 118.779 186.576 148.774 172.22Z" fill="white"/>
<path fill-rule="evenodd" clip-rule="evenodd" d="M-65.1083 204.604L-65.7699 203.219C-70.1503 194.061 -66.2381 182.975 -57.0782 178.591L27.4557 138.132L44.0409 172.831L-40.4929 213.291C-49.6528 217.675 -60.729 213.766 -65.1083 204.604Z" fill="white"/>
<path fill-rule="evenodd" clip-rule="evenodd" d="M66.7914 151.528L41.8113 163.484L33.3364 145.746L58.3152 133.794C59.2712 136.872 60.4802 139.934 61.923 142.965C63.3683 145.989 64.9954 148.854 66.7914 151.528Z" fill="white"/>
<path fill-rule="evenodd" clip-rule="evenodd" d="M42.6926 173.943L25.7611 138.52L31.0223 136.001L47.9538 171.425L42.6926 173.943Z" fill="#0BC1A0"/>
<defs>
<filter id="filter0_b_5150_178212" x="52.511" y="40.3078" width="141.533" height="141.541" filterUnits="userSpaceOnUse" color-interpolation-filters="sRGB">
<feFlood flood-opacity="0" result="BackgroundImageFix"/>
<feGaussianBlur in="BackgroundImageFix" stdDeviation="6.83241"/>
<feComposite in2="SourceAlpha" operator="in" result="effect1_backgroundBlur_5150_178212"/>
<feBlend mode="normal" in="SourceGraphic" in2="effect1_backgroundBlur_5150_178212" result="shape"/>
</filter>
</defs>
</svg>
