<svg width="212" height="252" viewBox="0 0 212 252" fill="none" xmlns="http://www.w3.org/2000/svg">
<g filter="url(#filter0_b_5145_118043)">
<path fill-rule="evenodd" clip-rule="evenodd" d="M92.4356 120.633C76.387 97.9796 79.3146 67.6466 97.964 48.4435C100.382 45.9952 103.016 43.7217 105.904 41.6752C107.386 40.6209 108.897 39.6466 110.465 38.7531C113.596 36.9653 116.863 35.4887 120.166 34.3858C125.765 32.405 131.52 31.3906 137.308 31.2878C155.476 30.8704 173.532 39.208 184.811 55.1345C196.126 71.1004 197.973 90.8971 191.589 107.908C189.542 113.326 186.676 118.425 182.984 123.057C180.811 125.806 178.343 128.358 175.617 130.725C174.26 131.905 172.836 133.006 171.35 134.056C168.461 136.106 165.442 137.872 162.333 139.304C138.041 150.541 108.454 143.244 92.4356 120.633Z" fill="#141521" fill-opacity="0.01"/>
</g>
<path fill-rule="evenodd" clip-rule="evenodd" d="M94.2418 119.38C77.9212 96.3386 83.3663 64.438 106.399 48.1051C129.406 31.7942 161.294 37.2334 177.61 60.278C193.909 83.2933 188.468 115.195 165.461 131.506C142.429 147.835 110.541 142.396 94.2418 119.38ZM173.815 143.352C203.38 122.392 210.364 81.4469 189.419 51.8717C168.478 22.3009 127.533 15.2942 97.9691 36.2504C71.0696 55.3277 62.8494 91.0184 77.3907 119.588C78.8135 122.379 80.4752 125.117 82.3571 127.778C84.2433 130.437 86.2736 132.913 88.4342 135.178C110.557 158.376 146.913 162.425 173.815 143.352Z" fill="white"/>
<path fill-rule="evenodd" clip-rule="evenodd" d="M-29.7775 210.954L-30.6568 209.712C-36.4777 201.497 -34.5174 190.005 -26.3018 184.181L49.5171 130.427L71.5598 161.554L-4.25917 215.307C-12.4748 221.131 -23.9573 219.173 -29.7775 210.954Z" fill="white"/>
<path fill-rule="evenodd" clip-rule="evenodd" d="M90.2111 136.914L67.8063 152.798L56.5417 136.887L78.9459 121.006C80.3977 123.854 82.094 126.644 84.0137 129.364C85.9346 132.076 88.0064 134.603 90.2111 136.914Z" fill="white"/>
<path fill-rule="evenodd" clip-rule="evenodd" d="M-3.24839 214.491L-25.1471 183.563L-19.5777 179.618L2.32169 210.542L-3.24839 214.491Z" fill="white"/>
<path fill-rule="evenodd" clip-rule="evenodd" d="M70.4223 162.866L47.9196 131.091L52.6384 127.745L75.141 159.52L70.4223 162.866Z" fill="#0AC0A0"/>
<defs>
<filter id="filter0_b_5145_118043" x="68.4445" y="17.7214" width="140.339" height="140.337" filterUnits="userSpaceOnUse" color-interpolation-filters="sRGB">
<feFlood flood-opacity="0" result="BackgroundImageFix"/>
<feGaussianBlur in="BackgroundImageFix" stdDeviation="6.77577"/>
<feComposite in2="SourceAlpha" operator="in" result="effect1_backgroundBlur_5145_118043"/>
<feBlend mode="normal" in="SourceGraphic" in2="effect1_backgroundBlur_5145_118043" result="shape"/>
</filter>
</defs>
</svg>
