<svg width="1440" height="1182" viewBox="0 0 1440 1182" fill="none" xmlns="http://www.w3.org/2000/svg">
<path d="M-158.155 -35L-158.155 1252.25M-5.32153 -35L-5.32156 1252.25M147.512 -35L147.512 1252.25M1637 -34.255L-197 -34.2551M300.345 -35L300.345 1252.25M1637 108.773L-197 108.773M453.178 -35L453.178 1252.25M1637 251.802L-197 251.802M606.012 -35V1252.25M1637 394.83L-197 394.83M758.845 -35V1252.25M1637 537.858L-197 537.858M911.678 -35V1252.25M1637 680.887L-197 680.887M1064.51 -35V1252.25M1637 823.915L-197 823.915M1446.6 -35V1252.25M1637 1181.49L-197 1181.49M1217.35 -35V1252.25M1637 966.943L-197 966.943M1599.43 -35V1252.25M-81.7382 -35L-81.7382 1252.25M71.0952 -35L71.0951 1252.25M223.928 -35L223.928 1252.25M1637 37.2592L-197 37.2591M376.762 -35L376.762 1252.25M1637 180.288L-197 180.287M529.595 -35V1252.25M1637 323.316L-197 323.316M682.428 -35V1252.25M1637 466.344L-197 466.344M835.262 -35V1252.25M1637 609.373L-197 609.372M988.095 -35V1252.25M1637 752.401L-197 752.401M1370.18 -35V1252.25M1637 1109.97L-197 1109.97M1140.93 -35V1252.25M1637 895.429L-197 895.429M1523.01 -35V1252.25M1637 1253L-197 1253M1293.76 -35V1252.25M1637 1038.46L-197 1038.46" stroke="url(#paint0_radial_5305_80766)" stroke-opacity="0.9" stroke-width="1.1021"/>
<defs>
<radialGradient id="paint0_radial_5305_80766" cx="0" cy="0" r="1" gradientUnits="userSpaceOnUse" gradientTransform="translate(720 608.627) rotate(90) scale(618.299 528.549)">
<stop stop-color="white"/>
<stop offset="1" stop-color="white" stop-opacity="0"/>
</radialGradient>
</defs>
</svg>
