<svg width="1440" height="32" viewBox="0 0 1440 32" fill="none" xmlns="http://www.w3.org/2000/svg">
<g clip-path="url(#clip0_5139_126333)">
<g filter="url(#filter0_d_5139_126333)">
<rect width="1440" height="32" rx="2.98431" fill="white"/>
</g>
<path d="M6.688 22.16C5.83467 22.16 5.04 22.0213 4.304 21.744C3.57867 21.456 2.944 21.056 2.4 20.544C1.86667 20.0213 1.45067 19.408 1.152 18.704C0.853333 18 0.704 17.232 0.704 16.4C0.704 15.568 0.853333 14.8 1.152 14.096C1.45067 13.392 1.872 12.784 2.416 12.272C2.96 11.7493 3.59467 11.3493 4.32 11.072C5.04533 10.784 5.84 10.64 6.704 10.64C7.62133 10.64 8.45867 10.8 9.216 11.12C9.97333 11.4293 10.6133 11.8933 11.136 12.512L9.792 13.776C9.38667 13.3387 8.93333 13.0133 8.432 12.8C7.93067 12.576 7.38667 12.464 6.8 12.464C6.21333 12.464 5.67467 12.56 5.184 12.752C4.704 12.944 4.28267 13.216 3.92 13.568C3.568 13.92 3.29067 14.336 3.088 14.816C2.896 15.296 2.8 15.824 2.8 16.4C2.8 16.976 2.896 17.504 3.088 17.984C3.29067 18.464 3.568 18.88 3.92 19.232C4.28267 19.584 4.704 19.856 5.184 20.048C5.67467 20.24 6.21333 20.336 6.8 20.336C7.38667 20.336 7.93067 20.2293 8.432 20.016C8.93333 19.792 9.38667 19.456 9.792 19.008L11.136 20.288C10.6133 20.896 9.97333 21.36 9.216 21.68C8.45867 22 7.616 22.16 6.688 22.16ZM13.129 22V10.8H17.737C18.729 10.8 19.577 10.96 20.281 11.28C20.9957 11.6 21.545 12.0587 21.929 12.656C22.313 13.2533 22.505 13.9627 22.505 14.784C22.505 15.6053 22.313 16.3147 21.929 16.912C21.545 17.4987 20.9957 17.952 20.281 18.272C19.577 18.5813 18.729 18.736 17.737 18.736H14.281L15.209 17.792V22H13.129ZM20.457 22L17.625 17.936H19.849L22.697 22H20.457ZM15.209 18.016L14.281 17.024H17.641C18.5583 17.024 19.2463 16.8267 19.705 16.432C20.1743 16.0373 20.409 15.488 20.409 14.784C20.409 14.0693 20.1743 13.52 19.705 13.136C19.2463 12.752 18.5583 12.56 17.641 12.56H14.281L15.209 11.536V18.016ZM24.8321 22V10.8H26.9121V22H24.8321ZM29.9415 22V10.8H31.6535L36.5495 18.976H35.6535L40.4695 10.8H42.1815L42.1975 22H40.2295L40.2135 13.888H40.6295L36.5335 20.72H35.6055L31.4455 13.888H31.9255V22H29.9415ZM47.1428 15.456H52.7108V17.168H47.1428V15.456ZM47.3028 20.256H53.6228V22H45.2228V10.8H53.3988V12.544H47.3028V20.256ZM63.8354 22.16C62.9607 22.16 62.1234 22.0373 61.3234 21.792C60.5234 21.536 59.8887 21.2107 59.4194 20.816L60.1394 19.2C60.5874 19.552 61.142 19.8453 61.8034 20.08C62.4647 20.3147 63.142 20.432 63.8354 20.432C64.422 20.432 64.8967 20.368 65.2594 20.24C65.622 20.112 65.8887 19.9413 66.0594 19.728C66.23 19.504 66.3154 19.2533 66.3154 18.976C66.3154 18.6347 66.1927 18.3627 65.9474 18.16C65.702 17.9467 65.382 17.7813 64.9874 17.664C64.6034 17.536 64.1714 17.4187 63.6914 17.312C63.222 17.2053 62.7474 17.0827 62.2674 16.944C61.798 16.7947 61.366 16.608 60.9714 16.384C60.5874 16.1493 60.2727 15.84 60.0274 15.456C59.782 15.072 59.6594 14.5813 59.6594 13.984C59.6594 13.376 59.8194 12.8213 60.1394 12.32C60.47 11.808 60.966 11.4027 61.6274 11.104C62.2994 10.7947 63.1474 10.64 64.1714 10.64C64.8434 10.64 65.51 10.7253 66.1714 10.896C66.8327 11.0667 67.4087 11.312 67.8994 11.632L67.2434 13.248C66.742 12.9493 66.2247 12.7307 65.6914 12.592C65.158 12.4427 64.646 12.368 64.1554 12.368C63.5794 12.368 63.11 12.4373 62.7474 12.576C62.3954 12.7147 62.134 12.896 61.9634 13.12C61.8034 13.344 61.7234 13.6 61.7234 13.888C61.7234 14.2293 61.8407 14.5067 62.0754 14.72C62.3207 14.9227 62.6354 15.0827 63.0194 15.2C63.414 15.3173 63.8514 15.4347 64.3314 15.552C64.8114 15.6587 65.286 15.7813 65.7554 15.92C66.2354 16.0587 66.6674 16.24 67.0514 16.464C67.446 16.688 67.7607 16.992 67.9954 17.376C68.2407 17.76 68.3634 18.2453 68.3634 18.832C68.3634 19.4293 68.198 19.984 67.8674 20.496C67.5474 20.9973 67.0514 21.4027 66.3794 21.712C65.7074 22.0107 64.8594 22.16 63.8354 22.16ZM75.6099 22.16C74.7565 22.16 73.9619 22.0213 73.2259 21.744C72.5005 21.456 71.8659 21.056 71.3219 20.544C70.7885 20.0213 70.3725 19.408 70.0739 18.704C69.7752 18 69.6259 17.232 69.6259 16.4C69.6259 15.568 69.7752 14.8 70.0739 14.096C70.3725 13.392 70.7939 12.784 71.3379 12.272C71.8819 11.7493 72.5165 11.3493 73.2419 11.072C73.9672 10.784 74.7619 10.64 75.6259 10.64C76.5432 10.64 77.3805 10.8 78.1379 11.12C78.8952 11.4293 79.5352 11.8933 80.0579 12.512L78.7139 13.776C78.3085 13.3387 77.8552 13.0133 77.3539 12.8C76.8525 12.576 76.3085 12.464 75.7219 12.464C75.1352 12.464 74.5965 12.56 74.1059 12.752C73.6259 12.944 73.2045 13.216 72.8419 13.568C72.4899 13.92 72.2125 14.336 72.0099 14.816C71.8179 15.296 71.7219 15.824 71.7219 16.4C71.7219 16.976 71.8179 17.504 72.0099 17.984C72.2125 18.464 72.4899 18.88 72.8419 19.232C73.2045 19.584 73.6259 19.856 74.1059 20.048C74.5965 20.24 75.1352 20.336 75.7219 20.336C76.3085 20.336 76.8525 20.2293 77.3539 20.016C77.8552 19.792 78.3085 19.456 78.7139 19.008L80.0579 20.288C79.5352 20.896 78.8952 21.36 78.1379 21.68C77.3805 22 76.5379 22.16 75.6099 22.16ZM83.9709 15.456H89.5389V17.168H83.9709V15.456ZM84.1309 20.256H90.4509V22H82.0509V10.8H90.2269V12.544H84.1309V20.256ZM92.7696 22V10.8H94.4816L101.506 19.424H100.658V10.8H102.722V22H101.01L93.9856 13.376H94.8336V22H92.7696ZM107.643 15.456H113.211V17.168H107.643V15.456ZM107.803 20.256H114.123V22H105.723V10.8H113.899V12.544H107.803V20.256Z" fill="#141521"/>
<path d="M193.688 22.16C192.835 22.16 192.04 22.0213 191.304 21.744C190.579 21.456 189.944 21.056 189.4 20.544C188.867 20.0213 188.451 19.408 188.152 18.704C187.853 18 187.704 17.232 187.704 16.4C187.704 15.568 187.853 14.8 188.152 14.096C188.451 13.392 188.872 12.784 189.416 12.272C189.96 11.7493 190.595 11.3493 191.32 11.072C192.045 10.784 192.84 10.64 193.704 10.64C194.621 10.64 195.459 10.8 196.216 11.12C196.973 11.4293 197.613 11.8933 198.136 12.512L196.792 13.776C196.387 13.3387 195.933 13.0133 195.432 12.8C194.931 12.576 194.387 12.464 193.8 12.464C193.213 12.464 192.675 12.56 192.184 12.752C191.704 12.944 191.283 13.216 190.92 13.568C190.568 13.92 190.291 14.336 190.088 14.816C189.896 15.296 189.8 15.824 189.8 16.4C189.8 16.976 189.896 17.504 190.088 17.984C190.291 18.464 190.568 18.88 190.92 19.232C191.283 19.584 191.704 19.856 192.184 20.048C192.675 20.24 193.213 20.336 193.8 20.336C194.387 20.336 194.931 20.2293 195.432 20.016C195.933 19.792 196.387 19.456 196.792 19.008L198.136 20.288C197.613 20.896 196.973 21.36 196.216 21.68C195.459 22 194.616 22.16 193.688 22.16ZM200.129 22V10.8H204.737C205.729 10.8 206.577 10.96 207.281 11.28C207.996 11.6 208.545 12.0587 208.929 12.656C209.313 13.2533 209.505 13.9627 209.505 14.784C209.505 15.6053 209.313 16.3147 208.929 16.912C208.545 17.4987 207.996 17.952 207.281 18.272C206.577 18.5813 205.729 18.736 204.737 18.736H201.281L202.209 17.792V22H200.129ZM207.457 22L204.625 17.936H206.849L209.697 22H207.457ZM202.209 18.016L201.281 17.024H204.641C205.558 17.024 206.246 16.8267 206.705 16.432C207.174 16.0373 207.409 15.488 207.409 14.784C207.409 14.0693 207.174 13.52 206.705 13.136C206.246 12.752 205.558 12.56 204.641 12.56H201.281L202.209 11.536V18.016ZM211.832 22V10.8H213.912V22H211.832ZM216.942 22V10.8H218.654L223.55 18.976H222.654L227.47 10.8H229.182L229.198 22H227.23L227.214 13.888H227.63L223.534 20.72H222.606L218.446 13.888H218.926V22H216.942ZM234.143 15.456H239.711V17.168H234.143V15.456ZM234.303 20.256H240.623V22H232.223V10.8H240.399V12.544H234.303V20.256ZM250.835 22.16C249.961 22.16 249.123 22.0373 248.323 21.792C247.523 21.536 246.889 21.2107 246.419 20.816L247.139 19.2C247.587 19.552 248.142 19.8453 248.803 20.08C249.465 20.3147 250.142 20.432 250.835 20.432C251.422 20.432 251.897 20.368 252.259 20.24C252.622 20.112 252.889 19.9413 253.059 19.728C253.23 19.504 253.315 19.2533 253.315 18.976C253.315 18.6347 253.193 18.3627 252.947 18.16C252.702 17.9467 252.382 17.7813 251.987 17.664C251.603 17.536 251.171 17.4187 250.691 17.312C250.222 17.2053 249.747 17.0827 249.267 16.944C248.798 16.7947 248.366 16.608 247.971 16.384C247.587 16.1493 247.273 15.84 247.027 15.456C246.782 15.072 246.659 14.5813 246.659 13.984C246.659 13.376 246.819 12.8213 247.139 12.32C247.47 11.808 247.966 11.4027 248.627 11.104C249.299 10.7947 250.147 10.64 251.171 10.64C251.843 10.64 252.51 10.7253 253.171 10.896C253.833 11.0667 254.409 11.312 254.899 11.632L254.243 13.248C253.742 12.9493 253.225 12.7307 252.691 12.592C252.158 12.4427 251.646 12.368 251.155 12.368C250.579 12.368 250.11 12.4373 249.747 12.576C249.395 12.7147 249.134 12.896 248.963 13.12C248.803 13.344 248.723 13.6 248.723 13.888C248.723 14.2293 248.841 14.5067 249.075 14.72C249.321 14.9227 249.635 15.0827 250.019 15.2C250.414 15.3173 250.851 15.4347 251.331 15.552C251.811 15.6587 252.286 15.7813 252.755 15.92C253.235 16.0587 253.667 16.24 254.051 16.464C254.446 16.688 254.761 16.992 254.995 17.376C255.241 17.76 255.363 18.2453 255.363 18.832C255.363 19.4293 255.198 19.984 254.867 20.496C254.547 20.9973 254.051 21.4027 253.379 21.712C252.707 22.0107 251.859 22.16 250.835 22.16ZM262.61 22.16C261.757 22.16 260.962 22.0213 260.226 21.744C259.501 21.456 258.866 21.056 258.322 20.544C257.789 20.0213 257.373 19.408 257.074 18.704C256.775 18 256.626 17.232 256.626 16.4C256.626 15.568 256.775 14.8 257.074 14.096C257.373 13.392 257.794 12.784 258.338 12.272C258.882 11.7493 259.517 11.3493 260.242 11.072C260.967 10.784 261.762 10.64 262.626 10.64C263.543 10.64 264.381 10.8 265.138 11.12C265.895 11.4293 266.535 11.8933 267.058 12.512L265.714 13.776C265.309 13.3387 264.855 13.0133 264.354 12.8C263.853 12.576 263.309 12.464 262.722 12.464C262.135 12.464 261.597 12.56 261.106 12.752C260.626 12.944 260.205 13.216 259.842 13.568C259.49 13.92 259.213 14.336 259.01 14.816C258.818 15.296 258.722 15.824 258.722 16.4C258.722 16.976 258.818 17.504 259.01 17.984C259.213 18.464 259.49 18.88 259.842 19.232C260.205 19.584 260.626 19.856 261.106 20.048C261.597 20.24 262.135 20.336 262.722 20.336C263.309 20.336 263.853 20.2293 264.354 20.016C264.855 19.792 265.309 19.456 265.714 19.008L267.058 20.288C266.535 20.896 265.895 21.36 265.138 21.68C264.381 22 263.538 22.16 262.61 22.16ZM270.971 15.456H276.539V17.168H270.971V15.456ZM271.131 20.256H277.451V22H269.051V10.8H277.227V12.544H271.131V20.256ZM279.77 22V10.8H281.482L288.506 19.424H287.658V10.8H289.722V22H288.01L280.986 13.376H281.834V22H279.77ZM294.643 15.456H300.211V17.168H294.643V15.456ZM294.803 20.256H301.123V22H292.723V10.8H300.899V12.544H294.803V20.256Z" fill="#141521"/>
<path d="M151 10L151.877 13.8827L155.243 11.7574L153.117 15.123L157 16L153.117 16.877L155.243 20.2426L151.877 18.1173L151 22L150.123 18.1173L146.757 20.2426L148.883 16.877L145 16L148.883 15.123L146.757 11.7574L150.123 13.8827L151 10Z" fill="#E82326"/>
<path d="M338 10L338.877 13.8827L342.243 11.7574L340.117 15.123L344 16L340.117 16.877L342.243 20.2426L338.877 18.1173L338 22L337.123 18.1173L333.757 20.2426L335.883 16.877L332 16L335.883 15.123L333.757 11.7574L337.123 13.8827L338 10Z" fill="#E82326"/>
<path d="M380.688 22.16C379.835 22.16 379.04 22.0213 378.304 21.744C377.579 21.456 376.944 21.056 376.4 20.544C375.867 20.0213 375.451 19.408 375.152 18.704C374.853 18 374.704 17.232 374.704 16.4C374.704 15.568 374.853 14.8 375.152 14.096C375.451 13.392 375.872 12.784 376.416 12.272C376.96 11.7493 377.595 11.3493 378.32 11.072C379.045 10.784 379.84 10.64 380.704 10.64C381.621 10.64 382.459 10.8 383.216 11.12C383.973 11.4293 384.613 11.8933 385.136 12.512L383.792 13.776C383.387 13.3387 382.933 13.0133 382.432 12.8C381.931 12.576 381.387 12.464 380.8 12.464C380.213 12.464 379.675 12.56 379.184 12.752C378.704 12.944 378.283 13.216 377.92 13.568C377.568 13.92 377.291 14.336 377.088 14.816C376.896 15.296 376.8 15.824 376.8 16.4C376.8 16.976 376.896 17.504 377.088 17.984C377.291 18.464 377.568 18.88 377.92 19.232C378.283 19.584 378.704 19.856 379.184 20.048C379.675 20.24 380.213 20.336 380.8 20.336C381.387 20.336 381.931 20.2293 382.432 20.016C382.933 19.792 383.387 19.456 383.792 19.008L385.136 20.288C384.613 20.896 383.973 21.36 383.216 21.68C382.459 22 381.616 22.16 380.688 22.16ZM387.129 22V10.8H391.737C392.729 10.8 393.577 10.96 394.281 11.28C394.996 11.6 395.545 12.0587 395.929 12.656C396.313 13.2533 396.505 13.9627 396.505 14.784C396.505 15.6053 396.313 16.3147 395.929 16.912C395.545 17.4987 394.996 17.952 394.281 18.272C393.577 18.5813 392.729 18.736 391.737 18.736H388.281L389.209 17.792V22H387.129ZM394.457 22L391.625 17.936H393.849L396.697 22H394.457ZM389.209 18.016L388.281 17.024H391.641C392.558 17.024 393.246 16.8267 393.705 16.432C394.174 16.0373 394.409 15.488 394.409 14.784C394.409 14.0693 394.174 13.52 393.705 13.136C393.246 12.752 392.558 12.56 391.641 12.56H388.281L389.209 11.536V18.016ZM398.832 22V10.8H400.912V22H398.832ZM403.942 22V10.8H405.654L410.55 18.976H409.654L414.47 10.8H416.182L416.198 22H414.23L414.214 13.888H414.63L410.534 20.72H409.606L405.446 13.888H405.926V22H403.942ZM421.143 15.456H426.711V17.168H421.143V15.456ZM421.303 20.256H427.623V22H419.223V10.8H427.399V12.544H421.303V20.256ZM437.835 22.16C436.961 22.16 436.123 22.0373 435.323 21.792C434.523 21.536 433.889 21.2107 433.419 20.816L434.139 19.2C434.587 19.552 435.142 19.8453 435.803 20.08C436.465 20.3147 437.142 20.432 437.835 20.432C438.422 20.432 438.897 20.368 439.259 20.24C439.622 20.112 439.889 19.9413 440.059 19.728C440.23 19.504 440.315 19.2533 440.315 18.976C440.315 18.6347 440.193 18.3627 439.947 18.16C439.702 17.9467 439.382 17.7813 438.987 17.664C438.603 17.536 438.171 17.4187 437.691 17.312C437.222 17.2053 436.747 17.0827 436.267 16.944C435.798 16.7947 435.366 16.608 434.971 16.384C434.587 16.1493 434.273 15.84 434.027 15.456C433.782 15.072 433.659 14.5813 433.659 13.984C433.659 13.376 433.819 12.8213 434.139 12.32C434.47 11.808 434.966 11.4027 435.627 11.104C436.299 10.7947 437.147 10.64 438.171 10.64C438.843 10.64 439.51 10.7253 440.171 10.896C440.833 11.0667 441.409 11.312 441.899 11.632L441.243 13.248C440.742 12.9493 440.225 12.7307 439.691 12.592C439.158 12.4427 438.646 12.368 438.155 12.368C437.579 12.368 437.11 12.4373 436.747 12.576C436.395 12.7147 436.134 12.896 435.963 13.12C435.803 13.344 435.723 13.6 435.723 13.888C435.723 14.2293 435.841 14.5067 436.075 14.72C436.321 14.9227 436.635 15.0827 437.019 15.2C437.414 15.3173 437.851 15.4347 438.331 15.552C438.811 15.6587 439.286 15.7813 439.755 15.92C440.235 16.0587 440.667 16.24 441.051 16.464C441.446 16.688 441.761 16.992 441.995 17.376C442.241 17.76 442.363 18.2453 442.363 18.832C442.363 19.4293 442.198 19.984 441.867 20.496C441.547 20.9973 441.051 21.4027 440.379 21.712C439.707 22.0107 438.859 22.16 437.835 22.16ZM449.61 22.16C448.757 22.16 447.962 22.0213 447.226 21.744C446.501 21.456 445.866 21.056 445.322 20.544C444.789 20.0213 444.373 19.408 444.074 18.704C443.775 18 443.626 17.232 443.626 16.4C443.626 15.568 443.775 14.8 444.074 14.096C444.373 13.392 444.794 12.784 445.338 12.272C445.882 11.7493 446.517 11.3493 447.242 11.072C447.967 10.784 448.762 10.64 449.626 10.64C450.543 10.64 451.381 10.8 452.138 11.12C452.895 11.4293 453.535 11.8933 454.058 12.512L452.714 13.776C452.309 13.3387 451.855 13.0133 451.354 12.8C450.853 12.576 450.309 12.464 449.722 12.464C449.135 12.464 448.597 12.56 448.106 12.752C447.626 12.944 447.205 13.216 446.842 13.568C446.49 13.92 446.213 14.336 446.01 14.816C445.818 15.296 445.722 15.824 445.722 16.4C445.722 16.976 445.818 17.504 446.01 17.984C446.213 18.464 446.49 18.88 446.842 19.232C447.205 19.584 447.626 19.856 448.106 20.048C448.597 20.24 449.135 20.336 449.722 20.336C450.309 20.336 450.853 20.2293 451.354 20.016C451.855 19.792 452.309 19.456 452.714 19.008L454.058 20.288C453.535 20.896 452.895 21.36 452.138 21.68C451.381 22 450.538 22.16 449.61 22.16ZM457.971 15.456H463.539V17.168H457.971V15.456ZM458.131 20.256H464.451V22H456.051V10.8H464.227V12.544H458.131V20.256ZM466.77 22V10.8H468.482L475.506 19.424H474.658V10.8H476.722V22H475.01L467.986 13.376H468.834V22H466.77ZM481.643 15.456H487.211V17.168H481.643V15.456ZM481.803 20.256H488.123V22H479.723V10.8H487.899V12.544H481.803V20.256Z" fill="#141521"/>
<path d="M567.688 22.16C566.835 22.16 566.04 22.0213 565.304 21.744C564.579 21.456 563.944 21.056 563.4 20.544C562.867 20.0213 562.451 19.408 562.152 18.704C561.853 18 561.704 17.232 561.704 16.4C561.704 15.568 561.853 14.8 562.152 14.096C562.451 13.392 562.872 12.784 563.416 12.272C563.96 11.7493 564.595 11.3493 565.32 11.072C566.045 10.784 566.84 10.64 567.704 10.64C568.621 10.64 569.459 10.8 570.216 11.12C570.973 11.4293 571.613 11.8933 572.136 12.512L570.792 13.776C570.387 13.3387 569.933 13.0133 569.432 12.8C568.931 12.576 568.387 12.464 567.8 12.464C567.213 12.464 566.675 12.56 566.184 12.752C565.704 12.944 565.283 13.216 564.92 13.568C564.568 13.92 564.291 14.336 564.088 14.816C563.896 15.296 563.8 15.824 563.8 16.4C563.8 16.976 563.896 17.504 564.088 17.984C564.291 18.464 564.568 18.88 564.92 19.232C565.283 19.584 565.704 19.856 566.184 20.048C566.675 20.24 567.213 20.336 567.8 20.336C568.387 20.336 568.931 20.2293 569.432 20.016C569.933 19.792 570.387 19.456 570.792 19.008L572.136 20.288C571.613 20.896 570.973 21.36 570.216 21.68C569.459 22 568.616 22.16 567.688 22.16ZM574.129 22V10.8H578.737C579.729 10.8 580.577 10.96 581.281 11.28C581.996 11.6 582.545 12.0587 582.929 12.656C583.313 13.2533 583.505 13.9627 583.505 14.784C583.505 15.6053 583.313 16.3147 582.929 16.912C582.545 17.4987 581.996 17.952 581.281 18.272C580.577 18.5813 579.729 18.736 578.737 18.736H575.281L576.209 17.792V22H574.129ZM581.457 22L578.625 17.936H580.849L583.697 22H581.457ZM576.209 18.016L575.281 17.024H578.641C579.558 17.024 580.246 16.8267 580.705 16.432C581.174 16.0373 581.409 15.488 581.409 14.784C581.409 14.0693 581.174 13.52 580.705 13.136C580.246 12.752 579.558 12.56 578.641 12.56H575.281L576.209 11.536V18.016ZM585.832 22V10.8H587.912V22H585.832ZM590.942 22V10.8H592.654L597.55 18.976H596.654L601.47 10.8H603.182L603.198 22H601.23L601.214 13.888H601.63L597.534 20.72H596.606L592.446 13.888H592.926V22H590.942ZM608.143 15.456H613.711V17.168H608.143V15.456ZM608.303 20.256H614.623V22H606.223V10.8H614.399V12.544H608.303V20.256ZM624.835 22.16C623.961 22.16 623.123 22.0373 622.323 21.792C621.523 21.536 620.889 21.2107 620.419 20.816L621.139 19.2C621.587 19.552 622.142 19.8453 622.803 20.08C623.465 20.3147 624.142 20.432 624.835 20.432C625.422 20.432 625.897 20.368 626.259 20.24C626.622 20.112 626.889 19.9413 627.059 19.728C627.23 19.504 627.315 19.2533 627.315 18.976C627.315 18.6347 627.193 18.3627 626.947 18.16C626.702 17.9467 626.382 17.7813 625.987 17.664C625.603 17.536 625.171 17.4187 624.691 17.312C624.222 17.2053 623.747 17.0827 623.267 16.944C622.798 16.7947 622.366 16.608 621.971 16.384C621.587 16.1493 621.273 15.84 621.027 15.456C620.782 15.072 620.659 14.5813 620.659 13.984C620.659 13.376 620.819 12.8213 621.139 12.32C621.47 11.808 621.966 11.4027 622.627 11.104C623.299 10.7947 624.147 10.64 625.171 10.64C625.843 10.64 626.51 10.7253 627.171 10.896C627.833 11.0667 628.409 11.312 628.899 11.632L628.243 13.248C627.742 12.9493 627.225 12.7307 626.691 12.592C626.158 12.4427 625.646 12.368 625.155 12.368C624.579 12.368 624.11 12.4373 623.747 12.576C623.395 12.7147 623.134 12.896 622.963 13.12C622.803 13.344 622.723 13.6 622.723 13.888C622.723 14.2293 622.841 14.5067 623.075 14.72C623.321 14.9227 623.635 15.0827 624.019 15.2C624.414 15.3173 624.851 15.4347 625.331 15.552C625.811 15.6587 626.286 15.7813 626.755 15.92C627.235 16.0587 627.667 16.24 628.051 16.464C628.446 16.688 628.761 16.992 628.995 17.376C629.241 17.76 629.363 18.2453 629.363 18.832C629.363 19.4293 629.198 19.984 628.867 20.496C628.547 20.9973 628.051 21.4027 627.379 21.712C626.707 22.0107 625.859 22.16 624.835 22.16ZM636.61 22.16C635.757 22.16 634.962 22.0213 634.226 21.744C633.501 21.456 632.866 21.056 632.322 20.544C631.789 20.0213 631.373 19.408 631.074 18.704C630.775 18 630.626 17.232 630.626 16.4C630.626 15.568 630.775 14.8 631.074 14.096C631.373 13.392 631.794 12.784 632.338 12.272C632.882 11.7493 633.517 11.3493 634.242 11.072C634.967 10.784 635.762 10.64 636.626 10.64C637.543 10.64 638.381 10.8 639.138 11.12C639.895 11.4293 640.535 11.8933 641.058 12.512L639.714 13.776C639.309 13.3387 638.855 13.0133 638.354 12.8C637.853 12.576 637.309 12.464 636.722 12.464C636.135 12.464 635.597 12.56 635.106 12.752C634.626 12.944 634.205 13.216 633.842 13.568C633.49 13.92 633.213 14.336 633.01 14.816C632.818 15.296 632.722 15.824 632.722 16.4C632.722 16.976 632.818 17.504 633.01 17.984C633.213 18.464 633.49 18.88 633.842 19.232C634.205 19.584 634.626 19.856 635.106 20.048C635.597 20.24 636.135 20.336 636.722 20.336C637.309 20.336 637.853 20.2293 638.354 20.016C638.855 19.792 639.309 19.456 639.714 19.008L641.058 20.288C640.535 20.896 639.895 21.36 639.138 21.68C638.381 22 637.538 22.16 636.61 22.16ZM644.971 15.456H650.539V17.168H644.971V15.456ZM645.131 20.256H651.451V22H643.051V10.8H651.227V12.544H645.131V20.256ZM653.77 22V10.8H655.482L662.506 19.424H661.658V10.8H663.722V22H662.01L654.986 13.376H655.834V22H653.77ZM668.643 15.456H674.211V17.168H668.643V15.456ZM668.803 20.256H675.123V22H666.723V10.8H674.899V12.544H668.803V20.256Z" fill="#141521"/>
<path d="M525 10L525.877 13.8827L529.243 11.7574L527.117 15.123L531 16L527.117 16.877L529.243 20.2426L525.877 18.1173L525 22L524.123 18.1173L520.757 20.2426L522.883 16.877L519 16L522.883 15.123L520.757 11.7574L524.123 13.8827L525 10Z" fill="#E82326"/>
<path d="M712 10L712.877 13.8827L716.243 11.7574L714.117 15.123L718 16L714.117 16.877L716.243 20.2426L712.877 18.1173L712 22L711.123 18.1173L707.757 20.2426L709.883 16.877L706 16L709.883 15.123L707.757 11.7574L711.123 13.8827L712 10Z" fill="#E82326"/>
<path d="M754.688 22.16C753.835 22.16 753.04 22.0213 752.304 21.744C751.579 21.456 750.944 21.056 750.4 20.544C749.867 20.0213 749.451 19.408 749.152 18.704C748.853 18 748.704 17.232 748.704 16.4C748.704 15.568 748.853 14.8 749.152 14.096C749.451 13.392 749.872 12.784 750.416 12.272C750.96 11.7493 751.595 11.3493 752.32 11.072C753.045 10.784 753.84 10.64 754.704 10.64C755.621 10.64 756.459 10.8 757.216 11.12C757.973 11.4293 758.613 11.8933 759.136 12.512L757.792 13.776C757.387 13.3387 756.933 13.0133 756.432 12.8C755.931 12.576 755.387 12.464 754.8 12.464C754.213 12.464 753.675 12.56 753.184 12.752C752.704 12.944 752.283 13.216 751.92 13.568C751.568 13.92 751.291 14.336 751.088 14.816C750.896 15.296 750.8 15.824 750.8 16.4C750.8 16.976 750.896 17.504 751.088 17.984C751.291 18.464 751.568 18.88 751.92 19.232C752.283 19.584 752.704 19.856 753.184 20.048C753.675 20.24 754.213 20.336 754.8 20.336C755.387 20.336 755.931 20.2293 756.432 20.016C756.933 19.792 757.387 19.456 757.792 19.008L759.136 20.288C758.613 20.896 757.973 21.36 757.216 21.68C756.459 22 755.616 22.16 754.688 22.16ZM761.129 22V10.8H765.737C766.729 10.8 767.577 10.96 768.281 11.28C768.996 11.6 769.545 12.0587 769.929 12.656C770.313 13.2533 770.505 13.9627 770.505 14.784C770.505 15.6053 770.313 16.3147 769.929 16.912C769.545 17.4987 768.996 17.952 768.281 18.272C767.577 18.5813 766.729 18.736 765.737 18.736H762.281L763.209 17.792V22H761.129ZM768.457 22L765.625 17.936H767.849L770.697 22H768.457ZM763.209 18.016L762.281 17.024H765.641C766.558 17.024 767.246 16.8267 767.705 16.432C768.174 16.0373 768.409 15.488 768.409 14.784C768.409 14.0693 768.174 13.52 767.705 13.136C767.246 12.752 766.558 12.56 765.641 12.56H762.281L763.209 11.536V18.016ZM772.832 22V10.8H774.912V22H772.832ZM777.942 22V10.8H779.654L784.55 18.976H783.654L788.47 10.8H790.182L790.198 22H788.23L788.214 13.888H788.63L784.534 20.72H783.606L779.446 13.888H779.926V22H777.942ZM795.143 15.456H800.711V17.168H795.143V15.456ZM795.303 20.256H801.623V22H793.223V10.8H801.399V12.544H795.303V20.256ZM811.835 22.16C810.961 22.16 810.123 22.0373 809.323 21.792C808.523 21.536 807.889 21.2107 807.419 20.816L808.139 19.2C808.587 19.552 809.142 19.8453 809.803 20.08C810.465 20.3147 811.142 20.432 811.835 20.432C812.422 20.432 812.897 20.368 813.259 20.24C813.622 20.112 813.889 19.9413 814.059 19.728C814.23 19.504 814.315 19.2533 814.315 18.976C814.315 18.6347 814.193 18.3627 813.947 18.16C813.702 17.9467 813.382 17.7813 812.987 17.664C812.603 17.536 812.171 17.4187 811.691 17.312C811.222 17.2053 810.747 17.0827 810.267 16.944C809.798 16.7947 809.366 16.608 808.971 16.384C808.587 16.1493 808.273 15.84 808.027 15.456C807.782 15.072 807.659 14.5813 807.659 13.984C807.659 13.376 807.819 12.8213 808.139 12.32C808.47 11.808 808.966 11.4027 809.627 11.104C810.299 10.7947 811.147 10.64 812.171 10.64C812.843 10.64 813.51 10.7253 814.171 10.896C814.833 11.0667 815.409 11.312 815.899 11.632L815.243 13.248C814.742 12.9493 814.225 12.7307 813.691 12.592C813.158 12.4427 812.646 12.368 812.155 12.368C811.579 12.368 811.11 12.4373 810.747 12.576C810.395 12.7147 810.134 12.896 809.963 13.12C809.803 13.344 809.723 13.6 809.723 13.888C809.723 14.2293 809.841 14.5067 810.075 14.72C810.321 14.9227 810.635 15.0827 811.019 15.2C811.414 15.3173 811.851 15.4347 812.331 15.552C812.811 15.6587 813.286 15.7813 813.755 15.92C814.235 16.0587 814.667 16.24 815.051 16.464C815.446 16.688 815.761 16.992 815.995 17.376C816.241 17.76 816.363 18.2453 816.363 18.832C816.363 19.4293 816.198 19.984 815.867 20.496C815.547 20.9973 815.051 21.4027 814.379 21.712C813.707 22.0107 812.859 22.16 811.835 22.16ZM823.61 22.16C822.757 22.16 821.962 22.0213 821.226 21.744C820.501 21.456 819.866 21.056 819.322 20.544C818.789 20.0213 818.373 19.408 818.074 18.704C817.775 18 817.626 17.232 817.626 16.4C817.626 15.568 817.775 14.8 818.074 14.096C818.373 13.392 818.794 12.784 819.338 12.272C819.882 11.7493 820.517 11.3493 821.242 11.072C821.967 10.784 822.762 10.64 823.626 10.64C824.543 10.64 825.381 10.8 826.138 11.12C826.895 11.4293 827.535 11.8933 828.058 12.512L826.714 13.776C826.309 13.3387 825.855 13.0133 825.354 12.8C824.853 12.576 824.309 12.464 823.722 12.464C823.135 12.464 822.597 12.56 822.106 12.752C821.626 12.944 821.205 13.216 820.842 13.568C820.49 13.92 820.213 14.336 820.01 14.816C819.818 15.296 819.722 15.824 819.722 16.4C819.722 16.976 819.818 17.504 820.01 17.984C820.213 18.464 820.49 18.88 820.842 19.232C821.205 19.584 821.626 19.856 822.106 20.048C822.597 20.24 823.135 20.336 823.722 20.336C824.309 20.336 824.853 20.2293 825.354 20.016C825.855 19.792 826.309 19.456 826.714 19.008L828.058 20.288C827.535 20.896 826.895 21.36 826.138 21.68C825.381 22 824.538 22.16 823.61 22.16ZM831.971 15.456H837.539V17.168H831.971V15.456ZM832.131 20.256H838.451V22H830.051V10.8H838.227V12.544H832.131V20.256ZM840.77 22V10.8H842.482L849.506 19.424H848.658V10.8H850.722V22H849.01L841.986 13.376H842.834V22H840.77ZM855.643 15.456H861.211V17.168H855.643V15.456ZM855.803 20.256H862.123V22H853.723V10.8H861.899V12.544H855.803V20.256Z" fill="#141521"/>
<path d="M941.688 22.16C940.835 22.16 940.04 22.0213 939.304 21.744C938.579 21.456 937.944 21.056 937.4 20.544C936.867 20.0213 936.451 19.408 936.152 18.704C935.853 18 935.704 17.232 935.704 16.4C935.704 15.568 935.853 14.8 936.152 14.096C936.451 13.392 936.872 12.784 937.416 12.272C937.96 11.7493 938.595 11.3493 939.32 11.072C940.045 10.784 940.84 10.64 941.704 10.64C942.621 10.64 943.459 10.8 944.216 11.12C944.973 11.4293 945.613 11.8933 946.136 12.512L944.792 13.776C944.387 13.3387 943.933 13.0133 943.432 12.8C942.931 12.576 942.387 12.464 941.8 12.464C941.213 12.464 940.675 12.56 940.184 12.752C939.704 12.944 939.283 13.216 938.92 13.568C938.568 13.92 938.291 14.336 938.088 14.816C937.896 15.296 937.8 15.824 937.8 16.4C937.8 16.976 937.896 17.504 938.088 17.984C938.291 18.464 938.568 18.88 938.92 19.232C939.283 19.584 939.704 19.856 940.184 20.048C940.675 20.24 941.213 20.336 941.8 20.336C942.387 20.336 942.931 20.2293 943.432 20.016C943.933 19.792 944.387 19.456 944.792 19.008L946.136 20.288C945.613 20.896 944.973 21.36 944.216 21.68C943.459 22 942.616 22.16 941.688 22.16ZM948.129 22V10.8H952.737C953.729 10.8 954.577 10.96 955.281 11.28C955.996 11.6 956.545 12.0587 956.929 12.656C957.313 13.2533 957.505 13.9627 957.505 14.784C957.505 15.6053 957.313 16.3147 956.929 16.912C956.545 17.4987 955.996 17.952 955.281 18.272C954.577 18.5813 953.729 18.736 952.737 18.736H949.281L950.209 17.792V22H948.129ZM955.457 22L952.625 17.936H954.849L957.697 22H955.457ZM950.209 18.016L949.281 17.024H952.641C953.558 17.024 954.246 16.8267 954.705 16.432C955.174 16.0373 955.409 15.488 955.409 14.784C955.409 14.0693 955.174 13.52 954.705 13.136C954.246 12.752 953.558 12.56 952.641 12.56H949.281L950.209 11.536V18.016ZM959.832 22V10.8H961.912V22H959.832ZM964.942 22V10.8H966.654L971.55 18.976H970.654L975.47 10.8H977.182L977.198 22H975.23L975.214 13.888H975.63L971.534 20.72H970.606L966.446 13.888H966.926V22H964.942ZM982.143 15.456H987.711V17.168H982.143V15.456ZM982.303 20.256H988.623V22H980.223V10.8H988.399V12.544H982.303V20.256ZM998.835 22.16C997.961 22.16 997.123 22.0373 996.323 21.792C995.523 21.536 994.889 21.2107 994.419 20.816L995.139 19.2C995.587 19.552 996.142 19.8453 996.803 20.08C997.465 20.3147 998.142 20.432 998.835 20.432C999.422 20.432 999.897 20.368 1000.26 20.24C1000.62 20.112 1000.89 19.9413 1001.06 19.728C1001.23 19.504 1001.32 19.2533 1001.32 18.976C1001.32 18.6347 1001.19 18.3627 1000.95 18.16C1000.7 17.9467 1000.38 17.7813 999.987 17.664C999.603 17.536 999.171 17.4187 998.691 17.312C998.222 17.2053 997.747 17.0827 997.267 16.944C996.798 16.7947 996.366 16.608 995.971 16.384C995.587 16.1493 995.273 15.84 995.027 15.456C994.782 15.072 994.659 14.5813 994.659 13.984C994.659 13.376 994.819 12.8213 995.139 12.32C995.47 11.808 995.966 11.4027 996.627 11.104C997.299 10.7947 998.147 10.64 999.171 10.64C999.843 10.64 1000.51 10.7253 1001.17 10.896C1001.83 11.0667 1002.41 11.312 1002.9 11.632L1002.24 13.248C1001.74 12.9493 1001.22 12.7307 1000.69 12.592C1000.16 12.4427 999.646 12.368 999.155 12.368C998.579 12.368 998.11 12.4373 997.747 12.576C997.395 12.7147 997.134 12.896 996.963 13.12C996.803 13.344 996.723 13.6 996.723 13.888C996.723 14.2293 996.841 14.5067 997.075 14.72C997.321 14.9227 997.635 15.0827 998.019 15.2C998.414 15.3173 998.851 15.4347 999.331 15.552C999.811 15.6587 1000.29 15.7813 1000.76 15.92C1001.24 16.0587 1001.67 16.24 1002.05 16.464C1002.45 16.688 1002.76 16.992 1003 17.376C1003.24 17.76 1003.36 18.2453 1003.36 18.832C1003.36 19.4293 1003.2 19.984 1002.87 20.496C1002.55 20.9973 1002.05 21.4027 1001.38 21.712C1000.71 22.0107 999.859 22.16 998.835 22.16ZM1010.61 22.16C1009.76 22.16 1008.96 22.0213 1008.23 21.744C1007.5 21.456 1006.87 21.056 1006.32 20.544C1005.79 20.0213 1005.37 19.408 1005.07 18.704C1004.78 18 1004.63 17.232 1004.63 16.4C1004.63 15.568 1004.78 14.8 1005.07 14.096C1005.37 13.392 1005.79 12.784 1006.34 12.272C1006.88 11.7493 1007.52 11.3493 1008.24 11.072C1008.97 10.784 1009.76 10.64 1010.63 10.64C1011.54 10.64 1012.38 10.8 1013.14 11.12C1013.9 11.4293 1014.54 11.8933 1015.06 12.512L1013.71 13.776C1013.31 13.3387 1012.86 13.0133 1012.35 12.8C1011.85 12.576 1011.31 12.464 1010.72 12.464C1010.14 12.464 1009.6 12.56 1009.11 12.752C1008.63 12.944 1008.2 13.216 1007.84 13.568C1007.49 13.92 1007.21 14.336 1007.01 14.816C1006.82 15.296 1006.72 15.824 1006.72 16.4C1006.72 16.976 1006.82 17.504 1007.01 17.984C1007.21 18.464 1007.49 18.88 1007.84 19.232C1008.2 19.584 1008.63 19.856 1009.11 20.048C1009.6 20.24 1010.14 20.336 1010.72 20.336C1011.31 20.336 1011.85 20.2293 1012.35 20.016C1012.86 19.792 1013.31 19.456 1013.71 19.008L1015.06 20.288C1014.54 20.896 1013.9 21.36 1013.14 21.68C1012.38 22 1011.54 22.16 1010.61 22.16ZM1018.97 15.456H1024.54V17.168H1018.97V15.456ZM1019.13 20.256H1025.45V22H1017.05V10.8H1025.23V12.544H1019.13V20.256ZM1027.77 22V10.8H1029.48L1036.51 19.424H1035.66V10.8H1037.72V22H1036.01L1028.99 13.376H1029.83V22H1027.77ZM1042.64 15.456H1048.21V17.168H1042.64V15.456ZM1042.8 20.256H1049.12V22H1040.72V10.8H1048.9V12.544H1042.8V20.256Z" fill="#141521"/>
<path d="M899 10L899.877 13.8827L903.243 11.7574L901.117 15.123L905 16L901.117 16.877L903.243 20.2426L899.877 18.1173L899 22L898.123 18.1173L894.757 20.2426L896.883 16.877L893 16L896.883 15.123L894.757 11.7574L898.123 13.8827L899 10Z" fill="#E82326"/>
<path d="M1086 10L1086.88 13.8827L1090.24 11.7574L1088.12 15.123L1092 16L1088.12 16.877L1090.24 20.2426L1086.88 18.1173L1086 22L1085.12 18.1173L1081.76 20.2426L1083.88 16.877L1080 16L1083.88 15.123L1081.76 11.7574L1085.12 13.8827L1086 10Z" fill="#E82326"/>
<path d="M1128.69 22.16C1127.83 22.16 1127.04 22.0213 1126.3 21.744C1125.58 21.456 1124.94 21.056 1124.4 20.544C1123.87 20.0213 1123.45 19.408 1123.15 18.704C1122.85 18 1122.7 17.232 1122.7 16.4C1122.7 15.568 1122.85 14.8 1123.15 14.096C1123.45 13.392 1123.87 12.784 1124.42 12.272C1124.96 11.7493 1125.59 11.3493 1126.32 11.072C1127.05 10.784 1127.84 10.64 1128.7 10.64C1129.62 10.64 1130.46 10.8 1131.22 11.12C1131.97 11.4293 1132.61 11.8933 1133.14 12.512L1131.79 13.776C1131.39 13.3387 1130.93 13.0133 1130.43 12.8C1129.93 12.576 1129.39 12.464 1128.8 12.464C1128.21 12.464 1127.67 12.56 1127.18 12.752C1126.7 12.944 1126.28 13.216 1125.92 13.568C1125.57 13.92 1125.29 14.336 1125.09 14.816C1124.9 15.296 1124.8 15.824 1124.8 16.4C1124.8 16.976 1124.9 17.504 1125.09 17.984C1125.29 18.464 1125.57 18.88 1125.92 19.232C1126.28 19.584 1126.7 19.856 1127.18 20.048C1127.67 20.24 1128.21 20.336 1128.8 20.336C1129.39 20.336 1129.93 20.2293 1130.43 20.016C1130.93 19.792 1131.39 19.456 1131.79 19.008L1133.14 20.288C1132.61 20.896 1131.97 21.36 1131.22 21.68C1130.46 22 1129.62 22.16 1128.69 22.16ZM1135.13 22V10.8H1139.74C1140.73 10.8 1141.58 10.96 1142.28 11.28C1143 11.6 1143.55 12.0587 1143.93 12.656C1144.31 13.2533 1144.51 13.9627 1144.51 14.784C1144.51 15.6053 1144.31 16.3147 1143.93 16.912C1143.55 17.4987 1143 17.952 1142.28 18.272C1141.58 18.5813 1140.73 18.736 1139.74 18.736H1136.28L1137.21 17.792V22H1135.13ZM1142.46 22L1139.63 17.936H1141.85L1144.7 22H1142.46ZM1137.21 18.016L1136.28 17.024H1139.64C1140.56 17.024 1141.25 16.8267 1141.7 16.432C1142.17 16.0373 1142.41 15.488 1142.41 14.784C1142.41 14.0693 1142.17 13.52 1141.7 13.136C1141.25 12.752 1140.56 12.56 1139.64 12.56H1136.28L1137.21 11.536V18.016ZM1146.83 22V10.8H1148.91V22H1146.83ZM1151.94 22V10.8H1153.65L1158.55 18.976H1157.65L1162.47 10.8H1164.18L1164.2 22H1162.23L1162.21 13.888H1162.63L1158.53 20.72H1157.61L1153.45 13.888H1153.93V22H1151.94ZM1169.14 15.456H1174.71V17.168H1169.14V15.456ZM1169.3 20.256H1175.62V22H1167.22V10.8H1175.4V12.544H1169.3V20.256ZM1185.84 22.16C1184.96 22.16 1184.12 22.0373 1183.32 21.792C1182.52 21.536 1181.89 21.2107 1181.42 20.816L1182.14 19.2C1182.59 19.552 1183.14 19.8453 1183.8 20.08C1184.46 20.3147 1185.14 20.432 1185.84 20.432C1186.42 20.432 1186.9 20.368 1187.26 20.24C1187.62 20.112 1187.89 19.9413 1188.06 19.728C1188.23 19.504 1188.32 19.2533 1188.32 18.976C1188.32 18.6347 1188.19 18.3627 1187.95 18.16C1187.7 17.9467 1187.38 17.7813 1186.99 17.664C1186.6 17.536 1186.17 17.4187 1185.69 17.312C1185.22 17.2053 1184.75 17.0827 1184.27 16.944C1183.8 16.7947 1183.37 16.608 1182.97 16.384C1182.59 16.1493 1182.27 15.84 1182.03 15.456C1181.78 15.072 1181.66 14.5813 1181.66 13.984C1181.66 13.376 1181.82 12.8213 1182.14 12.32C1182.47 11.808 1182.97 11.4027 1183.63 11.104C1184.3 10.7947 1185.15 10.64 1186.17 10.64C1186.84 10.64 1187.51 10.7253 1188.17 10.896C1188.83 11.0667 1189.41 11.312 1189.9 11.632L1189.24 13.248C1188.74 12.9493 1188.22 12.7307 1187.69 12.592C1187.16 12.4427 1186.65 12.368 1186.16 12.368C1185.58 12.368 1185.11 12.4373 1184.75 12.576C1184.4 12.7147 1184.13 12.896 1183.96 13.12C1183.8 13.344 1183.72 13.6 1183.72 13.888C1183.72 14.2293 1183.84 14.5067 1184.08 14.72C1184.32 14.9227 1184.64 15.0827 1185.02 15.2C1185.41 15.3173 1185.85 15.4347 1186.33 15.552C1186.81 15.6587 1187.29 15.7813 1187.76 15.92C1188.24 16.0587 1188.67 16.24 1189.05 16.464C1189.45 16.688 1189.76 16.992 1190 17.376C1190.24 17.76 1190.36 18.2453 1190.36 18.832C1190.36 19.4293 1190.2 19.984 1189.87 20.496C1189.55 20.9973 1189.05 21.4027 1188.38 21.712C1187.71 22.0107 1186.86 22.16 1185.84 22.16ZM1197.61 22.16C1196.76 22.16 1195.96 22.0213 1195.23 21.744C1194.5 21.456 1193.87 21.056 1193.32 20.544C1192.79 20.0213 1192.37 19.408 1192.07 18.704C1191.78 18 1191.63 17.232 1191.63 16.4C1191.63 15.568 1191.78 14.8 1192.07 14.096C1192.37 13.392 1192.79 12.784 1193.34 12.272C1193.88 11.7493 1194.52 11.3493 1195.24 11.072C1195.97 10.784 1196.76 10.64 1197.63 10.64C1198.54 10.64 1199.38 10.8 1200.14 11.12C1200.9 11.4293 1201.54 11.8933 1202.06 12.512L1200.71 13.776C1200.31 13.3387 1199.86 13.0133 1199.35 12.8C1198.85 12.576 1198.31 12.464 1197.72 12.464C1197.14 12.464 1196.6 12.56 1196.11 12.752C1195.63 12.944 1195.2 13.216 1194.84 13.568C1194.49 13.92 1194.21 14.336 1194.01 14.816C1193.82 15.296 1193.72 15.824 1193.72 16.4C1193.72 16.976 1193.82 17.504 1194.01 17.984C1194.21 18.464 1194.49 18.88 1194.84 19.232C1195.2 19.584 1195.63 19.856 1196.11 20.048C1196.6 20.24 1197.14 20.336 1197.72 20.336C1198.31 20.336 1198.85 20.2293 1199.35 20.016C1199.86 19.792 1200.31 19.456 1200.71 19.008L1202.06 20.288C1201.54 20.896 1200.9 21.36 1200.14 21.68C1199.38 22 1198.54 22.16 1197.61 22.16ZM1205.97 15.456H1211.54V17.168H1205.97V15.456ZM1206.13 20.256H1212.45V22H1204.05V10.8H1212.23V12.544H1206.13V20.256ZM1214.77 22V10.8H1216.48L1223.51 19.424H1222.66V10.8H1224.72V22H1223.01L1215.99 13.376H1216.83V22H1214.77ZM1229.64 15.456H1235.21V17.168H1229.64V15.456ZM1229.8 20.256H1236.12V22H1227.72V10.8H1235.9V12.544H1229.8V20.256Z" fill="#141521"/>
<path d="M1315.69 22.16C1314.83 22.16 1314.04 22.0213 1313.3 21.744C1312.58 21.456 1311.94 21.056 1311.4 20.544C1310.87 20.0213 1310.45 19.408 1310.15 18.704C1309.85 18 1309.7 17.232 1309.7 16.4C1309.7 15.568 1309.85 14.8 1310.15 14.096C1310.45 13.392 1310.87 12.784 1311.42 12.272C1311.96 11.7493 1312.59 11.3493 1313.32 11.072C1314.05 10.784 1314.84 10.64 1315.7 10.64C1316.62 10.64 1317.46 10.8 1318.22 11.12C1318.97 11.4293 1319.61 11.8933 1320.14 12.512L1318.79 13.776C1318.39 13.3387 1317.93 13.0133 1317.43 12.8C1316.93 12.576 1316.39 12.464 1315.8 12.464C1315.21 12.464 1314.67 12.56 1314.18 12.752C1313.7 12.944 1313.28 13.216 1312.92 13.568C1312.57 13.92 1312.29 14.336 1312.09 14.816C1311.9 15.296 1311.8 15.824 1311.8 16.4C1311.8 16.976 1311.9 17.504 1312.09 17.984C1312.29 18.464 1312.57 18.88 1312.92 19.232C1313.28 19.584 1313.7 19.856 1314.18 20.048C1314.67 20.24 1315.21 20.336 1315.8 20.336C1316.39 20.336 1316.93 20.2293 1317.43 20.016C1317.93 19.792 1318.39 19.456 1318.79 19.008L1320.14 20.288C1319.61 20.896 1318.97 21.36 1318.22 21.68C1317.46 22 1316.62 22.16 1315.69 22.16ZM1322.13 22V10.8H1326.74C1327.73 10.8 1328.58 10.96 1329.28 11.28C1330 11.6 1330.55 12.0587 1330.93 12.656C1331.31 13.2533 1331.51 13.9627 1331.51 14.784C1331.51 15.6053 1331.31 16.3147 1330.93 16.912C1330.55 17.4987 1330 17.952 1329.28 18.272C1328.58 18.5813 1327.73 18.736 1326.74 18.736H1323.28L1324.21 17.792V22H1322.13ZM1329.46 22L1326.63 17.936H1328.85L1331.7 22H1329.46ZM1324.21 18.016L1323.28 17.024H1326.64C1327.56 17.024 1328.25 16.8267 1328.7 16.432C1329.17 16.0373 1329.41 15.488 1329.41 14.784C1329.41 14.0693 1329.17 13.52 1328.7 13.136C1328.25 12.752 1327.56 12.56 1326.64 12.56H1323.28L1324.21 11.536V18.016ZM1333.83 22V10.8H1335.91V22H1333.83ZM1338.94 22V10.8H1340.65L1345.55 18.976H1344.65L1349.47 10.8H1351.18L1351.2 22H1349.23L1349.21 13.888H1349.63L1345.53 20.72H1344.61L1340.45 13.888H1340.93V22H1338.94ZM1356.14 15.456H1361.71V17.168H1356.14V15.456ZM1356.3 20.256H1362.62V22H1354.22V10.8H1362.4V12.544H1356.3V20.256ZM1372.84 22.16C1371.96 22.16 1371.12 22.0373 1370.32 21.792C1369.52 21.536 1368.89 21.2107 1368.42 20.816L1369.14 19.2C1369.59 19.552 1370.14 19.8453 1370.8 20.08C1371.46 20.3147 1372.14 20.432 1372.84 20.432C1373.42 20.432 1373.9 20.368 1374.26 20.24C1374.62 20.112 1374.89 19.9413 1375.06 19.728C1375.23 19.504 1375.32 19.2533 1375.32 18.976C1375.32 18.6347 1375.19 18.3627 1374.95 18.16C1374.7 17.9467 1374.38 17.7813 1373.99 17.664C1373.6 17.536 1373.17 17.4187 1372.69 17.312C1372.22 17.2053 1371.75 17.0827 1371.27 16.944C1370.8 16.7947 1370.37 16.608 1369.97 16.384C1369.59 16.1493 1369.27 15.84 1369.03 15.456C1368.78 15.072 1368.66 14.5813 1368.66 13.984C1368.66 13.376 1368.82 12.8213 1369.14 12.32C1369.47 11.808 1369.97 11.4027 1370.63 11.104C1371.3 10.7947 1372.15 10.64 1373.17 10.64C1373.84 10.64 1374.51 10.7253 1375.17 10.896C1375.83 11.0667 1376.41 11.312 1376.9 11.632L1376.24 13.248C1375.74 12.9493 1375.22 12.7307 1374.69 12.592C1374.16 12.4427 1373.65 12.368 1373.16 12.368C1372.58 12.368 1372.11 12.4373 1371.75 12.576C1371.4 12.7147 1371.13 12.896 1370.96 13.12C1370.8 13.344 1370.72 13.6 1370.72 13.888C1370.72 14.2293 1370.84 14.5067 1371.08 14.72C1371.32 14.9227 1371.64 15.0827 1372.02 15.2C1372.41 15.3173 1372.85 15.4347 1373.33 15.552C1373.81 15.6587 1374.29 15.7813 1374.76 15.92C1375.24 16.0587 1375.67 16.24 1376.05 16.464C1376.45 16.688 1376.76 16.992 1377 17.376C1377.24 17.76 1377.36 18.2453 1377.36 18.832C1377.36 19.4293 1377.2 19.984 1376.87 20.496C1376.55 20.9973 1376.05 21.4027 1375.38 21.712C1374.71 22.0107 1373.86 22.16 1372.84 22.16ZM1384.61 22.16C1383.76 22.16 1382.96 22.0213 1382.23 21.744C1381.5 21.456 1380.87 21.056 1380.32 20.544C1379.79 20.0213 1379.37 19.408 1379.07 18.704C1378.78 18 1378.63 17.232 1378.63 16.4C1378.63 15.568 1378.78 14.8 1379.07 14.096C1379.37 13.392 1379.79 12.784 1380.34 12.272C1380.88 11.7493 1381.52 11.3493 1382.24 11.072C1382.97 10.784 1383.76 10.64 1384.63 10.64C1385.54 10.64 1386.38 10.8 1387.14 11.12C1387.9 11.4293 1388.54 11.8933 1389.06 12.512L1387.71 13.776C1387.31 13.3387 1386.86 13.0133 1386.35 12.8C1385.85 12.576 1385.31 12.464 1384.72 12.464C1384.14 12.464 1383.6 12.56 1383.11 12.752C1382.63 12.944 1382.2 13.216 1381.84 13.568C1381.49 13.92 1381.21 14.336 1381.01 14.816C1380.82 15.296 1380.72 15.824 1380.72 16.4C1380.72 16.976 1380.82 17.504 1381.01 17.984C1381.21 18.464 1381.49 18.88 1381.84 19.232C1382.2 19.584 1382.63 19.856 1383.11 20.048C1383.6 20.24 1384.14 20.336 1384.72 20.336C1385.31 20.336 1385.85 20.2293 1386.35 20.016C1386.86 19.792 1387.31 19.456 1387.71 19.008L1389.06 20.288C1388.54 20.896 1387.9 21.36 1387.14 21.68C1386.38 22 1385.54 22.16 1384.61 22.16ZM1392.97 15.456H1398.54V17.168H1392.97V15.456ZM1393.13 20.256H1399.45V22H1391.05V10.8H1399.23V12.544H1393.13V20.256ZM1401.77 22V10.8H1403.48L1410.51 19.424H1409.66V10.8H1411.72V22H1410.01L1402.99 13.376H1403.83V22H1401.77ZM1416.64 15.456H1422.21V17.168H1416.64V15.456ZM1416.8 20.256H1423.12V22H1414.72V10.8H1422.9V12.544H1416.8V20.256Z" fill="#141521"/>
<path d="M1273 10L1273.88 13.8827L1277.24 11.7574L1275.12 15.123L1279 16L1275.12 16.877L1277.24 20.2426L1273.88 18.1173L1273 22L1272.12 18.1173L1268.76 20.2426L1270.88 16.877L1267 16L1270.88 15.123L1268.76 11.7574L1272.12 13.8827L1273 10Z" fill="#E82326"/>
</g>
<defs>
<filter id="filter0_d_5139_126333" x="-9.94771" y="-7.95817" width="1459.9" height="51.8954" filterUnits="userSpaceOnUse" color-interpolation-filters="sRGB">
<feFlood flood-opacity="0" result="BackgroundImageFix"/>
<feColorMatrix in="SourceAlpha" type="matrix" values="0 0 0 0 0 0 0 0 0 0 0 0 0 0 0 0 0 0 127 0" result="hardAlpha"/>
<feOffset dy="1.98954"/>
<feGaussianBlur stdDeviation="4.97386"/>
<feComposite in2="hardAlpha" operator="out"/>
<feColorMatrix type="matrix" values="0 0 0 0 0.5675 0 0 0 0 0.5675 0 0 0 0 0.5675 0 0 0 0.25 0"/>
<feBlend mode="normal" in2="BackgroundImageFix" result="effect1_dropShadow_5139_126333"/>
<feBlend mode="normal" in="SourceGraphic" in2="effect1_dropShadow_5139_126333" result="shape"/>
</filter>
<clipPath id="clip0_5139_126333">
<rect width="1440" height="32" fill="white"/>
</clipPath>
</defs>
</svg>
