<svg width="163" height="190" viewBox="0 0 163 190" fill="none" xmlns="http://www.w3.org/2000/svg">
<g clip-path="url(#clip0_5371_82210)">
<rect width="163" height="190" fill="#0BC1A0"/>
<path d="M86.8361 18H91.0069V18.782L88.9215 20.0854L88.6608 21.1282L92.8317 20.8675L96.2205 20.3461H99.088L99.6094 20.6068L99.3487 21.3888L97.2633 22.6922L97.0026 23.9956L98.5667 23.735L102.738 22.9529H108.212L111.079 23.735V24.2563L106.908 25.0384L104.302 26.0811L103.78 26.8631L108.473 27.1238L110.819 27.6452L112.904 28.6879L113.165 29.4699L110.819 30.252L110.297 30.5126L111.079 31.034L114.207 31.816L117.336 33.1194L120.203 34.6835L123.331 37.0296L125.938 38.8544L131.412 41.7219L136.626 45.1107L141.579 48.7602L145.228 51.6277L148.617 54.4952L152.527 58.1447L155.916 61.5336L158.262 64.401L160.348 66.7472L162.955 70.136L166.083 74.5676L169.211 79.5205L172.86 86.5588L175.467 92.5545L177.553 98.2894L179.117 103.764L180.681 111.323L181.724 118.883L182.245 126.182V133.481L181.463 143.648L180.159 151.468L178.335 158.767L175.989 165.806L173.642 171.28L171.036 176.754L168.429 181.186L167.125 183.271L165.561 186.399L162.955 189.788L160.608 192.656L157.741 196.044L154.091 199.955L149.921 204.125L147.053 206.472L143.404 209.339L140.015 211.946L135.583 215.074L129.327 218.724L124.374 221.33L118.118 223.937L109.515 226.805L103.259 228.369L95.6992 229.672L90.2249 230.193L84.2293 230.454H78.755L69.3705 229.933L62.5928 228.89L56.8579 227.587L49.5588 225.501L42.7812 222.894L36.0035 219.766L30.7899 216.899L25.0549 213.249L20.884 210.121L18.0166 208.036L14.6277 205.168L12.0209 202.822L6.02528 196.826L4.20052 194.741L0.550998 190.309L-2.83784 185.617L-6.48736 179.361L-9.35484 173.887L-12.7437 165.806L-14.5684 160.331L-16.6539 152.511L-17.9573 145.212L-18.7393 138.173L-19 134.263V123.836L-18.218 114.973L-16.6539 106.892L-14.5684 99.0715L-12.2223 92.5545L-9.35484 86.2982L-6.48736 80.5632L-3.09852 75.0889L0.290317 70.6574L3.1578 67.0078L6.28596 63.3583L9.41412 59.9695L15.9311 53.4525L18.7986 51.1064L21.9268 48.4996L26.619 45.1107L31.5719 41.9826L36.2642 39.3758L41.4778 36.769L46.4307 34.1622L51.905 31.816L57.6399 29.9913L61.2894 27.1238L63.3749 25.5597L67.0244 23.4743L71.1953 21.9102L72.4987 22.1709L74.3234 22.4316L78.4943 20.3461L81.8831 19.0427L86.8361 18Z" fill="white"/>
<path d="M42.2598 36.2451H42.7812V36.7665H46.4307L45.1273 37.8092L42.5205 39.3733L39.653 41.9801H39.1316L38.6103 43.0228L36.2642 45.6296L35.4821 46.933L36.5248 46.6723L36.2642 47.9757L34.7001 50.5825L33.3967 53.9714L32.354 58.1422L32.0933 59.7063V62.3131L33.6574 61.0097L33.3967 62.5738L32.6146 64.9199L32.0933 69.3515V72.4796L32.8753 80.0394L34.1787 86.5564V88.9025L31.8326 89.6845L31.3112 92.8127L31.5719 97.5049L33.136 102.719L34.1787 106.889L34.9608 113.667L35.7428 116.274L37.5676 118.881L39.3923 120.184H43.8239L45.1273 129.829L46.17 134.782L47.7341 138.953L49.8195 142.603L51.6443 145.209V151.466L51.1229 156.419L50.3409 159.025L49.0375 161.111L46.952 162.936L42.5205 165.021L34.7001 168.41L27.1404 171.538L19.8413 174.666L9.93548 178.837L-2.83784 184.572L-3.61988 184.311L-6.74804 178.837L-9.35484 173.884L-12.7437 165.803L-14.5684 160.329L-16.6539 152.508L-17.9573 145.209L-18.7393 138.171L-19 134.261V123.834L-18.218 114.97L-16.6539 106.889L-14.5684 99.069L-12.2223 92.552L-9.35484 86.2957L-6.48736 80.5607L-3.09852 75.0864L0.290319 70.6549L3.1578 67.0054L6.28596 63.3558L9.41412 59.967L15.9311 53.45L18.7986 51.1039L21.9268 48.4971L26.619 45.1082L31.5719 41.9801L36.2642 39.3733L41.4778 36.7665L42.2598 36.2451Z" fill="#0BC1A0"/>
<path d="M124.644 38.3262L125.948 38.8475L131.422 41.715L136.636 45.1039L141.589 48.7534L145.238 51.6209L148.627 54.4883L152.537 58.1379L155.926 61.5267L158.272 64.3942L160.358 66.7403L162.964 70.1291L166.093 74.5607L169.221 79.5136L172.87 86.552L175.477 92.5476L177.562 98.2826L179.127 103.757L180.691 111.317L181.733 118.876L182.255 126.175V133.474L181.473 143.641L180.169 151.461L178.344 158.76L175.998 165.799L173.652 171.273L171.045 176.747L168.439 181.179L167.135 183.264L166.614 184.307L161.4 182.222L152.016 178.051L122.82 165.799L118.127 163.713L115.26 161.888L113.696 159.803L112.653 156.936L112.132 152.504L111.871 145.466L114.217 142.077L116.563 137.645L117.867 133.735L118.649 129.825L119.691 121.222L119.952 120.18L123.08 120.44L125.166 119.658L125.948 118.876H126.469L126.991 117.834L128.294 115.487L129.076 112.099L129.597 106.885L130.901 101.932L131.943 98.5432L132.465 95.6758V93.069L131.943 90.4622L130.64 89.1588L128.555 89.4194L127.773 89.6801L127.512 88.8981L129.337 82.9025L130.901 75.8641L131.943 68.8257L132.204 66.4796V62.5694L131.422 57.0951L130.119 52.9243L128.555 49.7961L126.469 47.1893L124.123 45.1039L124.644 44.5825H128.294L126.991 41.9757L124.644 38.5869V38.3262Z" fill="#0BC1A0"/>
<path d="M46.9438 138.697L47.7258 138.958L49.8113 142.607L51.636 145.214V151.471L51.1147 156.424L50.3326 159.03L49.0292 161.116L46.9438 162.941L44.5977 163.462V162.941L46.6831 161.376L48.7685 159.03L49.8113 156.684L50.0719 153.817L50.854 151.471V147.821L49.2899 143.911L47.7258 141.304L46.9438 139.479V138.697Z" fill="#0BC1A0"/>
<path d="M39.9096 37.5498V38.3318L36.7814 39.8959L32.3499 42.242L30.2644 43.5454L26.0936 46.4129L23.2261 48.4984L21.4013 49.8018H20.88V50.3231L17.2304 53.1906L13.3202 56.8401L9.41003 60.7503L8.88867 60.4896L15.927 53.4513L18.7945 51.1052L21.9227 48.4984L26.6149 45.1095L31.5678 41.9814L36.2601 39.3746L39.9096 37.5498Z" fill="#0BC1A0"/>
<path d="M43.0612 120.438H43.5826V121.742H44.1039L45.1467 129.823L46.1894 134.776L46.9714 137.122V138.425L45.9287 137.122L44.886 134.255L44.6253 133.994L44.1039 130.084L43.5826 128.78V125.652L43.0612 123.306L42.2792 121.742L41.7578 120.96L43.0612 120.438Z" fill="#0BC1A0"/>
<path d="M118.646 131.654H118.907V133.218L118.385 136.347L117.343 138.953L115.257 141.821L114.475 143.385L113.693 145.47L112.65 146.774H112.129V145.21L114.736 141.299L117.082 136.347L118.125 132.697H118.646V131.654Z" fill="#0BC1A0"/>
<path d="M46.957 138.697L47.7391 138.958L49.8245 142.607L51.6493 145.214V151.471L51.1279 152.774H50.8672V147.821L49.3032 143.911L47.7391 141.304L46.957 139.479V138.697Z" fill="#0BC1A0"/>
<path d="M141.836 49.2715L142.879 49.7928L146.528 52.6603L149.656 55.5278L151.742 57.3526L155.913 61.5234L158.259 64.3909L160.344 66.737L162.169 69.0832L161.908 69.6045L160.866 68.5618V68.0404H160.344L157.737 64.6516L154.87 61.2628L153.567 59.9594L151.742 58.3953L150.699 57.0919L148.614 55.2671L146.007 52.921L143.661 51.0962L142.097 50.0535L141.836 49.2715Z" fill="#0BC1A0"/>
<path d="M125.945 39.0986L127.509 39.62L132.723 42.4875L136.633 45.0943L141.586 48.7438L141.847 49.2652L140.543 48.7438L136.373 45.6156L132.723 43.2695L130.116 41.7054L128.552 40.9234L126.727 40.402L125.945 39.0986Z" fill="#0BC1A0"/>
<path d="M112.902 156.15L113.424 156.411V157.975L114.206 157.714L115.77 160.321L116.291 160.582L117.073 161.885L117.855 162.928L116.291 162.667L114.466 161.103L113.163 158.757L112.902 156.15Z" fill="#0BC1A0"/>
<path d="M44.5977 128.262H44.8583L46.1617 134.779L46.9438 137.125V138.428L45.9011 137.125L44.8583 134.257L44.5977 133.997V128.262Z" fill="#0BC1A0"/>
<path d="M119.938 120.19L123.066 120.451L125.151 120.19L124.63 121.233L121.502 122.015L121.241 122.276H119.938V120.19Z" fill="#0BC1A0"/>
<path d="M128.55 114.721H129.071L128.55 117.849L126.725 119.934L125.422 120.195L126.986 117.849L128.289 115.503L128.55 114.721Z" fill="#0BC1A0"/>
<path d="M43.0612 120.438H43.5826L44.1039 124.088V126.173L43.5826 125.652L43.0612 123.306L42.2792 121.742L41.7578 120.96L43.0612 120.438Z" fill="#0BC1A0"/>
<path d="M35.4844 117.06L36.7878 117.842L37.8305 119.145L39.3946 120.188V120.709H40.698V120.97L38.3519 120.709V120.188L37.0485 119.927V119.406H36.5271L35.4844 117.842V117.06Z" fill="#0BC1A0"/>
<path d="M113.954 143.371L114.475 143.632L113.693 145.457L112.65 146.76H112.129V145.196L113.432 143.892L113.954 143.371Z" fill="#0BC1A0"/>
<path d="M162.184 69.8701L163.226 70.3915L166.094 74.5624L165.833 75.0837L163.487 71.9556L162.184 69.8701Z" fill="#0BC1A0"/>
<path d="M45.91 134.78L46.4314 135.562L46.9528 137.126V138.43L45.91 137.126L45.3887 135.562L45.91 134.78Z" fill="#0BC1A0"/>
<path d="M72.2234 22.1689L73.7875 22.6903L72.7448 23.4723L71.4414 23.9937L71.9628 22.6903L72.2234 22.1689Z" fill="#0BC1A0"/>
</g>
<defs>
<clipPath id="clip0_5371_82210">
<rect width="163" height="190" rx="6" fill="white"/>
</clipPath>
</defs>
</svg>
