<svg width="610" height="615" viewBox="0 0 610 615" fill="none" xmlns="http://www.w3.org/2000/svg">
<g filter="url(#filter0_b_5346_67544)">
<path fill-rule="evenodd" clip-rule="evenodd" d="M317.824 297.585C288.555 242.105 304.06 175.02 351.5 137.503C357.638 132.732 364.209 128.416 371.282 124.683C374.914 122.759 378.585 121.022 382.361 119.483C389.903 116.402 397.656 114.057 405.381 112.561C418.507 109.775 431.699 109.2 444.695 110.677C485.515 115.101 523.504 139.103 544.074 178.107C564.71 217.209 563.008 262.101 543.69 298.323C537.506 309.856 529.583 320.433 519.946 329.721C514.269 335.238 507.986 340.227 501.183 344.725C497.793 346.967 494.279 349.016 490.641 350.928C483.565 354.67 476.281 357.734 468.895 360.026C411.162 378.033 347.038 352.959 317.824 297.585Z" fill="#141521" fill-opacity="0.01"/>
</g>
<path fill-rule="evenodd" clip-rule="evenodd" d="M322.229 295.303C292.465 238.873 314.071 169.019 370.485 139.225C426.833 109.472 496.661 131.062 526.415 187.497C556.137 243.861 534.539 313.718 478.191 343.47C421.78 373.256 351.951 351.666 322.229 295.303M493.416 372.476C565.824 334.244 593.546 244.582 555.352 172.153C517.163 99.7352 427.507 71.9628 355.101 110.187C289.217 144.989 260.276 222.515 284.424 290.803C286.788 297.474 289.703 304.097 293.133 310.615C296.574 317.127 300.392 323.273 304.564 328.983C347.279 387.474 427.526 407.267 493.416 372.476" fill="white"/>
<path fill-rule="evenodd" clip-rule="evenodd" d="M17.413 463.864L15.8095 460.823C5.19324 440.704 12.9739 415.538 33.0956 404.914L218.792 306.864L258.989 383.091L73.2929 481.141C53.1712 491.765 28.0269 483.991 17.413 463.864" fill="white"/>
<path fill-rule="evenodd" clip-rule="evenodd" d="M308.035 333.399L253.161 362.374L232.62 323.408L287.492 294.442C289.904 301.25 292.881 307.999 296.379 314.659C299.882 321.301 303.778 327.572 308.035 333.399" fill="white"/>
<path fill-rule="evenodd" clip-rule="evenodd" d="M75.7952 479.611L35.8617 403.871L49.5015 396.676L89.4375 472.408L75.7952 479.611Z" fill="white"/>
<path fill-rule="evenodd" clip-rule="evenodd" d="M256.054 385.695L215.018 307.879L226.575 301.775L267.611 379.592L256.054 385.695Z" fill="#0AC0A0"/>
<defs>
<filter id="filter0_b_5346_67544" x="272.372" y="79.2689" width="317.122" height="317.143" filterUnits="userSpaceOnUse" color-interpolation-filters="sRGB">
<feFlood flood-opacity="0" result="BackgroundImageFix"/>
<feGaussianBlur in="BackgroundImageFix" stdDeviation="15.3094"/>
<feComposite in2="SourceAlpha" operator="in" result="effect1_backgroundBlur_5346_67544"/>
<feBlend mode="normal" in="SourceGraphic" in2="effect1_backgroundBlur_5346_67544" result="shape"/>
</filter>
</defs>
</svg>
