<svg width="77" height="118" viewBox="0 0 77 118" fill="none" xmlns="http://www.w3.org/2000/svg">
<path fill-rule="evenodd" clip-rule="evenodd" d="M22.0438 2.72529C22.2904 2.84711 24.7213 2.60992 27.4472 2.19787C30.5317 1.73115 31.6681 1.33738 30.4556 1.15411C28.5896 0.872172 21.12 2.26682 22.0438 2.72529ZM33.7232 1.12004C33.9367 1.95165 43.5506 2.73581 44.0103 1.95947C44.2166 1.611 44.2147 1.37022 44.0075 1.42345C43.7993 1.4769 41.366 1.29671 38.5996 1.02252C35.8334 0.749213 33.6391 0.792833 33.7232 1.12004ZM16.7306 7.07085C17.0639 7.26766 21.1357 6.85872 25.7807 6.16236C34.0814 4.91705 39.9965 5.1606 49.7816 7.15098L54.72 8.15499L51.6111 6.78401C47.1045 4.79669 35.74 3.83001 27.6716 4.74821C20.0115 5.61953 15.7907 6.51648 16.7306 7.07085ZM11.8366 12.4907C11.4575 13.7046 13.1787 13.2625 15.3493 11.5886C16.7449 10.513 16.6574 10.4419 14.533 10.9286C13.2247 11.2291 12.0112 11.9316 11.8366 12.4907ZM17.4735 10.4446C17.7203 10.5673 20.7441 10.1779 24.1947 9.58064C27.9869 8.92467 29.698 8.37769 28.5203 8.19859C26.6686 7.91765 16.5345 9.97789 17.4735 10.4446ZM16.8908 13.1769C9.20854 16.0541 10.4982 16.2718 20.1015 13.7195C24.9186 12.4394 28.7965 11.1367 28.72 10.8244C28.4987 9.92279 22.2786 11.1593 16.8908 13.1769ZM32.0314 9.1128C32.8641 9.34781 35.125 9.38897 37.055 9.20564C41.0103 8.82758 54.5916 10.5818 55.6604 11.6089C56.0442 11.977 56.8079 12.1624 57.3594 12.0207C60.4453 11.2282 47.3967 7.9318 40.1071 7.6616C34.5142 7.45501 29.4093 8.37237 32.0314 9.1128ZM8.77552 17.6558C9.4738 17.7467 10.2236 17.5205 10.4403 17.1544C10.6571 16.7883 10.0858 16.7143 9.16987 16.9898C8.1576 17.2946 8.00286 17.556 8.77552 17.6558ZM26.5731 13.3741C22.0853 15.1382 22.2006 15.1422 29.4079 13.4773C33.561 12.5173 38.6432 11.9378 40.7761 12.1802C42.8973 12.4209 46.4549 12.7322 48.6828 12.8707C50.9099 13.0094 54.4809 13.7923 56.6185 14.6104L60.5041 16.0971L56.1864 13.8648C53.2106 12.3269 49.5134 11.5194 44.2859 11.2666C34.7597 10.8059 32.3844 11.0887 26.5731 13.3741ZM12.8042 18.0809C10.7582 19.1356 9.54202 20.0426 10.1013 20.0954C10.6608 20.149 13.3203 19.0227 16.0114 17.5929C18.7024 16.1631 19.9186 15.2561 18.714 15.5776C17.5094 15.8991 14.8499 17.0253 12.8042 18.0809ZM32.5225 14.1343C32.9194 14.3858 35.4219 14.6053 38.0829 14.6223C40.7437 14.6384 44.4258 15.274 46.2648 16.0342C51.7322 18.2928 52.8769 18.2083 48.4723 15.8712C46.0068 14.5632 42.6051 13.7106 39.9683 13.7407C37.551 13.7687 34.724 13.7653 33.6864 13.7344C32.6485 13.7027 32.1247 13.883 32.5225 14.1343ZM21.0931 18.2328C21.7913 18.3237 22.5411 18.0975 22.7579 17.7314C22.9746 17.3653 22.4033 17.2913 21.4874 17.5668C20.4751 17.8716 20.3204 18.133 21.0931 18.2328ZM25.8691 17.0119C26.7707 17.016 28.1547 16.6605 28.9428 16.2225C29.731 15.7854 28.9935 15.7821 27.303 16.2163C25.6125 16.6504 24.9678 17.0086 25.8691 17.0119ZM32.5313 16.5268C35.2115 16.9428 36.5981 16.5867 34.7268 15.963C33.8822 15.6815 32.6038 15.6245 31.8863 15.8378C31.0259 16.0924 31.2452 16.3269 32.5313 16.5268ZM6.19725 25.16C4.85799 26.6083 6.24464 26.2522 8.39271 24.5962C9.4233 23.8013 9.50252 23.4901 8.62589 23.6816C7.8944 23.8405 6.80167 24.5064 6.19725 25.16ZM44.9533 18.4216C52.4092 20.6044 55.0436 21.9065 51.3862 21.6002C50.4659 21.5233 51.1174 22.0115 52.8349 22.685C54.5525 23.3585 58.916 25.7108 62.5311 27.9121C66.1463 30.1134 67.9415 30.9035 66.5204 29.6676C65.0996 28.4326 62.3137 26.4129 60.3279 25.1799C58.3433 23.9475 56.6021 22.5479 56.4589 22.0704C56.1285 20.9695 42.6118 16.2991 39.4682 16.2003C38.1704 16.1586 40.6382 17.1584 44.9533 18.4216ZM12.5802 24.4989C11.7855 25.3958 12.1613 25.3863 13.975 24.4623C17.0186 22.9111 17.5906 22.2293 15.3487 22.8238C14.4251 23.0694 13.1788 23.8224 12.5802 24.4989ZM33.3862 19.4622C36.4967 19.3301 41.1497 19.7772 43.7264 20.4573C46.3038 21.1363 48.0796 21.3731 47.6732 20.9828C46.0505 19.4246 37.1454 18.2182 32.5767 18.938L27.7301 19.702L33.3862 19.4622ZM51.3618 15.1263C52.7955 15.697 56.0417 17.2636 58.5743 18.6068C61.1072 19.9509 63.0744 20.6379 62.9451 20.1344C62.6858 19.1247 56.4976 16.2395 51.779 14.9285C48.7882 14.0976 48.784 14.0996 51.3618 15.1263ZM21.2813 22.8403C21.9481 22.929 22.936 22.6753 23.4767 22.2765C24.0185 21.8783 23.473 21.8061 22.2655 22.1162C21.0579 22.4264 20.6155 22.7522 21.2813 22.8403ZM7.75129 27.5661C7.14687 28.2198 7.0475 28.653 7.5305 28.5289C8.0135 28.4049 8.90324 27.7687 9.50766 27.1151C10.1121 26.4615 10.2115 26.0282 9.72845 26.1523C9.24545 26.2763 8.35572 26.9125 7.75129 27.5661ZM17.1156 24.8452C17.7824 24.9339 18.7704 24.6802 19.3111 24.2813C19.8529 23.8832 19.3073 23.811 18.0998 24.1211C16.8923 24.4312 16.4499 24.7571 17.1156 24.8452ZM26.5855 23.3772C27.4972 23.3806 28.6789 23.0612 29.2117 22.6682C29.7445 22.2751 28.9989 22.2731 27.5544 22.6627C26.1099 23.0524 25.6738 23.3738 26.5855 23.3772ZM9.95823 28.8695C9.35381 29.5232 9.25444 29.9564 9.73744 29.8323C10.2204 29.7083 11.1102 29.0721 11.7146 28.4185C12.319 27.7648 12.4184 27.3316 11.9354 27.4557C11.4524 27.5797 10.5627 28.2159 9.95823 28.8695ZM19.3226 26.1486C19.9894 26.2373 20.9773 25.9835 21.518 25.5847C22.0598 25.1866 21.5143 25.1144 20.3068 25.4245C19.0993 25.7346 18.6569 26.0605 19.3226 26.1486ZM36.0681 21.8677C36.7664 21.9586 37.5162 21.7324 37.7329 21.3662C37.9497 21.0001 37.3784 20.9262 36.4625 21.2016C35.4502 21.5064 35.2955 21.7678 36.0681 21.8677ZM58.1747 21.4614C61.2711 23.5743 64.1526 25.2188 64.5774 25.1162C65.4862 24.8968 56.3288 18.7608 54.0813 18.0831C53.236 17.828 55.0784 19.3485 58.1747 21.4614ZM6.46063 31.6277C6.28078 32.2031 6.67079 32.26 7.37555 31.7602C8.74675 30.7862 8.8636 30.0857 7.60077 30.4101C7.14587 30.5269 6.63315 31.0747 6.46063 31.6277ZM23.7486 26.911C24.6603 26.9144 25.842 26.595 26.3748 26.202C26.9076 25.8089 26.162 25.8069 24.7175 26.1965C23.273 26.5862 22.8369 26.9077 23.7486 26.911ZM29.6573 25.0813C29.9039 25.2031 32.1389 25.0228 34.6256 24.6815C37.5345 24.2823 38.4509 23.9506 37.195 23.7514C35.3303 23.456 28.7277 24.6215 29.6573 25.0813ZM47.9979 23.8982C55.312 26.2577 59.5314 28.6067 64.8031 33.2524C68.9313 36.8901 69.8358 37.1132 66.8347 33.7527C63.3662 29.8698 54.8495 24.9308 48.4922 23.1149C40.2881 20.7708 39.9528 21.302 47.9979 23.8982ZM14.8365 30.9409C9.17274 34.836 0.143584 45.3285 0.674583 47.3961C0.814486 47.9408 1.90825 46.8707 3.10604 45.0174C7.03813 38.932 10.8261 34.8622 15.7147 31.4663C18.3643 29.6272 19.9404 28.2809 19.2184 28.4766C18.4961 28.6714 16.5239 29.7801 14.8365 30.9409ZM5.03989 36.3416C2.68186 38.7912 0.967936 40.9238 1.23277 41.0802C1.4976 41.2367 3.82029 39.1234 6.39511 36.3844C8.97102 33.6461 10.6841 31.5136 10.2031 31.6456C9.72236 31.7784 7.39856 33.8909 5.03989 36.3416ZM29.0056 27.4021C29.6724 27.4909 30.6603 27.2371 31.201 26.8383C31.7428 26.4402 31.1973 26.368 29.9897 26.6781C28.7822 26.9882 28.3398 27.3141 29.0056 27.4021ZM43.6242 25.1112C50.1897 26.495 62.2585 34.0274 67.0366 39.7219C69.2438 42.353 70.5533 43.5811 69.9458 42.4514C67.8694 38.5907 63.7519 34.2255 59.1614 31.0189C54.4078 27.698 42.8193 23.2346 40.4996 23.8322C39.7716 24.0192 41.1776 24.595 43.6242 25.1112ZM2.30282 35.511C1.64269 36.2247 1.62234 36.5975 2.25338 36.4447C2.83039 36.304 3.44542 35.7318 3.6201 35.1727C4.01386 33.9102 3.71001 33.9882 2.30282 35.511ZM33.6218 27.1517C34.2886 27.2404 35.2765 26.9867 35.8172 26.5879C36.359 26.1897 35.8135 26.1176 34.606 26.4277C33.3985 26.7378 32.9561 27.0637 33.6218 27.1517ZM53.6766 22.3174C54.0991 22.7232 54.8398 22.9537 55.3228 22.8297C55.8058 22.7056 55.8555 22.2721 55.433 21.8663C55.0105 21.4605 54.2698 21.2299 53.7868 21.354C53.3038 21.478 53.2541 21.9116 53.6766 22.3174ZM16.5791 32.7797C15.9746 33.4333 15.8753 33.8665 16.3583 33.7425C16.8413 33.6185 17.731 32.9823 18.3354 32.3286C18.9398 31.675 19.0392 31.2418 18.5562 31.3658C18.0732 31.4899 17.1835 32.1261 16.5791 32.7797ZM22.6559 31.8381C23.3228 31.9268 24.3107 31.6731 24.8514 31.2743C25.3932 30.8761 24.8476 30.8039 23.6401 31.1141C22.4326 31.4242 21.9902 31.75 22.6559 31.8381ZM30.6196 29.8125C31.3179 29.9034 32.0677 29.6772 32.2845 29.3111C32.5012 28.945 31.9299 28.871 31.014 29.1464C30.0017 29.4513 29.847 29.7127 30.6196 29.8125ZM40.4486 27.3079C41.2407 27.385 43.3711 27.8908 45.1837 28.4314C46.9965 28.973 48.3879 29.0617 48.2768 28.6292C48.0439 27.7222 41.6231 26.3115 40.0584 26.8237C39.4712 27.0156 39.644 27.2293 40.4486 27.3079ZM9.21798 39.656C5.31326 44.0401 1.07862 51.4189 0.0679603 55.5973C-0.28394 57.052 0.809351 55.6192 2.51981 52.3868C4.21744 49.1774 5.65357 46.138 5.71203 45.633C5.77027 45.1271 7.80983 42.5602 10.2435 39.9275C12.6762 37.2951 14.2511 35.2477 13.7417 35.3785C13.2324 35.5094 11.1963 37.4339 9.21798 39.656ZM12.098 40.1283C9.14004 43.2527 6.93806 45.9381 7.20422 46.096C7.62111 46.3415 9.39256 44.5896 17.876 35.5408C18.633 34.7339 18.852 34.1578 18.3633 34.2599C17.8749 34.3629 15.0557 37.0029 12.098 40.1283ZM21.7312 34.6162C20.2007 35.6732 17.2902 38.2824 15.2635 40.4149C13.2367 42.5466 10.3438 45.4468 8.83437 46.8593C5.99169 49.5212 3.42692 54.6103 1.59259 61.2277C-0.0631935 67.2027 0.686428 66.8811 2.69136 60.7567C3.68248 57.7268 5.57256 53.5974 6.88984 51.5787C10.1773 46.5443 20.7936 35.9482 24.7785 33.7242C26.5796 32.7183 27.2571 32.0759 26.2837 32.295C25.3105 32.515 23.2618 33.5592 21.7312 34.6162ZM39.3296 29.3476C39.6805 29.5549 41.9168 30.1999 44.2999 30.782C46.6836 31.363 48.7201 32.1743 48.8275 32.5853C48.9347 32.9954 50.413 34.4467 52.113 35.8101C56.6509 39.4501 57.5616 40.6525 61.9227 48.7543C66.9548 58.1023 70.5913 71.0525 69.6906 76.4137C69.3519 78.4298 69.4176 79.9904 69.8373 79.8826C70.6171 79.6823 71.2366 72.9673 70.9543 67.7819C70.7154 63.4035 60.2077 41.7814 56.6665 38.381C55.6103 37.3665 53.418 35.6648 51.7955 34.5994C50.0968 33.4852 49.4472 32.6908 50.2657 32.7284C52.5239 32.832 59.0733 38.4287 61.0712 41.9617C65.6975 50.1413 70.593 60.8494 71.7292 65.2732C73.8996 73.7244 71.526 85.5429 66.185 92.8785C61.7762 98.9339 60.0103 99.4538 63.9362 93.5411C65.5773 91.0699 67.2368 88.9662 67.6259 88.8663C68.4997 88.6419 69.8023 83.2345 69.3559 81.6894C69.1755 81.0671 68.8076 81.9312 68.5378 83.6107C68.2669 85.2896 67.6809 87.0428 67.2347 87.5071C66.1523 88.6323 66.1139 88.2241 66.944 84.3632C68.5981 76.6719 68.7091 68.6222 67.2211 64.2644C65.1001 58.054 61.2514 49.6692 58.3588 44.9595C54.454 38.6014 46.8007 33.0329 40.181 31.7332C37.2352 31.1544 37.233 31.1568 39.678 32.1915C51.1941 37.0653 55.3009 41.0133 61.1362 52.8144C66.4017 63.4649 67.6198 70.0306 66.3237 80.785C65.2602 89.6094 61.6511 97.3278 56.2855 102.256C52.5862 105.654 52.0378 104.9 55.458 101.119C59.2332 96.9454 63.5748 89.5495 64.4303 85.8344C65.4626 81.3502 64.4331 81.6174 63.2227 86.1483C62.2359 89.84 54.9751 100.354 53.8641 99.6989C53.204 99.3083 58.1549 91.6895 59.0289 91.7502C59.3807 91.7749 60.5504 89.2658 61.6267 86.1738C62.7032 83.0828 63.91 80.4697 64.3087 80.3674C65.2202 80.1333 65.7675 76.042 65.5709 70.9392C65.3941 66.3541 61.3438 55.0699 57.4998 48.4529C53.8508 42.1722 47.3863 36.5452 42.5876 35.4726C37.1234 34.2511 36.3982 34.7076 41.433 36.2002C48.9096 38.416 55.1267 45.1865 60.1018 56.5324C62.3886 61.7483 62.5066 62.4408 61.3465 63.8505C59.643 65.9216 59.0078 65.3947 59.7181 62.4996C60.1799 60.6164 59.8118 59.1466 57.9062 55.2514C53.7592 46.7767 50.1391 42.3577 45.1508 39.6796C40.9465 37.422 33.8179 35.9454 33.0866 37.1805C32.9286 37.4473 34.4551 37.7304 36.48 37.8107C44.1948 38.1148 53.0187 46.0215 56.8819 56.0923C58.1903 59.5032 59.8241 72.878 59.6229 78.5317C59.5813 79.7 59.9041 80.5634 60.3397 80.4516C60.7753 80.3397 61.0178 79.5415 60.8781 78.6769C60.3674 75.511 59.9935 67.1987 60.3362 66.6198C60.9304 65.6162 61.734 69.8646 62.0629 75.745C62.3566 80.9893 59.9884 90.6641 58.6102 89.8501C58.2681 89.6481 58.3675 88.6463 58.8305 87.6242C60.2634 84.4668 60.911 81.2399 60.0688 81.4562C59.628 81.5694 58.6182 84.0384 57.8249 86.9417C56.4826 91.859 52.4702 99.6333 52.0735 98.0885C51.9764 97.7104 52.9865 95.261 54.3181 92.6458C57.3788 86.6336 58.8835 78.8965 58.1244 73.0723C57.5484 68.657 57.5241 68.7119 57.1048 75.3679C56.4202 86.2364 52.0353 97.885 48.9862 96.9363C48.3462 96.737 47.1605 97.5221 46.3513 98.68C45.5431 99.8376 46.1589 98.2001 47.7194 95.0399C51.3058 87.7799 54.7463 71.4441 52.9159 70.3638C52.6376 70.1987 52.3633 70.8732 52.3072 71.861C51.7758 81.1754 45.3364 99.266 42.2725 100.053C41.7684 100.182 42.6817 98.0486 44.3024 95.3125C46.9 90.9237 48.7665 85.5361 49.5409 80.1859C50.0636 76.5787 48.4671 79.045 47.3909 83.5077C45.4841 91.4173 39.9167 100.62 34.2491 105.229C31.4807 107.48 27.9058 109.963 26.3047 110.745C23.6671 112.033 23.626 112.117 25.8686 111.639C27.23 111.348 31.0485 108.925 34.3548 106.253C39.0718 102.44 40.8687 101.447 42.7033 101.636C44.8444 101.855 44.4922 102.343 38.5316 107.415C34.9506 110.461 32.3042 112.885 32.6507 112.801C34.3141 112.397 41.1468 107.389 43.6512 104.736C45.1982 103.098 46.5444 102.074 46.6438 102.461C46.9519 103.661 39.2103 111.017 35.7326 112.828C33.9162 113.774 33.1015 114.418 33.9229 114.26C36.2056 113.817 43.9641 109.826 46.7202 107.676C49.5967 105.434 53.6028 104.116 50.906 106.3C48.1084 108.565 44.649 110.998 43.3738 111.599C42.6847 111.923 39.8948 113.361 37.174 114.796L32.2269 117.402L36.0403 116.519C38.1369 116.033 40.5815 114.967 41.4718 114.151C42.6863 113.037 43.2387 112.895 43.6831 113.583C44.7543 115.243 52.2364 112.567 56.6599 108.941C58.966 107.051 62.1757 104.787 63.7926 103.91C68.116 101.564 73.2793 97.7938 71.7367 98.1077C70.7093 98.3173 70.718 97.9831 71.7761 96.6538C72.5322 95.705 72.8039 95.0172 72.3806 95.1259C71.9565 95.2348 70.9835 96.2683 70.2163 97.4219C68.8535 99.4747 64.3312 102.847 62.3888 103.258C61.851 103.373 62.9499 102.075 64.8306 100.377C66.711 98.6774 69.2437 95.4172 70.4588 93.1321C72.277 89.714 72.3083 89.5115 70.6339 91.9912C69.5152 93.6494 67.0629 96.4027 65.1848 98.1109C63.3066 99.8192 60.9438 102.101 59.9341 103.181C58.9244 104.261 57.1778 105.662 56.0528 106.293C53.8619 107.523 57.4776 103.421 62.5687 98.8997C64.0322 97.6 66.6448 94.2425 68.3753 91.4379C70.1068 88.634 71.6429 86.7565 71.7909 87.2674C72.4519 89.5569 76.7693 73.9637 76.146 71.5364C75.991 70.9328 75.239 73.589 74.4752 77.4385C73.7106 81.2882 72.721 84.8161 72.2763 85.2791C71.032 86.5721 70.9987 85.0574 72.1882 81.1668C74.0562 75.0523 74.1525 70.1314 72.5161 64.3754C70.421 57.0083 61.0067 39.0094 57.8624 36.3599C54.4103 33.4519 48.4855 30.5645 43.8376 29.5252C40.0201 28.6719 38.054 28.5943 39.3296 29.3476ZM22.7927 37.0656C16.7552 41.7945 9.38012 50.0378 7.38828 54.285C5.30614 58.7237 1.21196 73.0683 1.90913 73.4793C2.16954 73.6331 3.72429 69.4663 5.36498 64.2199C8.58533 53.9233 9.3452 52.4789 14.9099 46.062C19.6616 40.5834 23.0458 37.5916 23.912 38.1032C24.2925 38.3271 24.4843 38.046 24.3383 37.4775C24.1662 36.8073 25.2625 36.2649 27.4526 35.9353C29.312 35.656 30.0302 35.4379 29.0489 35.4514C27.605 35.4716 27.4632 35.2658 28.3041 34.3738C30.3826 32.1662 26.8369 33.8987 22.7927 37.0656ZM53.4317 31.8068C55.9762 33.4256 59.5607 36.193 61.3969 37.9554C63.2332 39.7186 64.885 40.9084 65.0678 40.5996C65.8486 39.2807 56.8183 32.1705 51.6551 30.0395C49.8615 29.2994 50.5204 29.955 53.4317 31.8068ZM33.893 35.4978C34.5598 35.5865 35.5478 35.3328 36.0884 34.934C36.6302 34.5358 36.0847 34.4637 34.8772 34.7738C33.6697 35.0839 33.2273 35.4098 33.893 35.4978ZM23.7145 39.7763C17.2961 44.1083 9.60014 54.9625 8.09113 61.8114C7.75633 63.329 6.84496 66.4179 6.06546 68.6753C4.4382 73.3871 2.84372 80.2458 3.75441 78.6196C4.08979 78.0192 5.53066 74.0725 6.95577 69.8492C8.38088 65.626 9.82437 61.9591 10.1634 61.701C10.5031 61.4417 10.6645 60.769 10.5228 60.206C9.90382 57.7486 17.5112 46.5497 22.915 41.963C28.6739 37.0748 28.9883 36.2179 23.7145 39.7763ZM29.525 40.3599C30.1918 40.4486 31.1798 40.1949 31.7205 39.7961C32.2623 39.3979 31.7167 39.3258 30.5092 39.6359C29.3017 39.946 28.8593 40.2719 29.525 40.3599ZM22.7373 44.0013C17.6131 48.7182 14.271 54.7644 10.2382 66.6143C7.92629 73.4095 5.73733 79.5719 5.37485 80.3074C5.01259 81.0438 5.05051 81.5596 5.45974 81.4545C5.86898 81.3494 7.00755 79.2691 7.98955 76.8307C8.97155 74.3922 10.6733 70.2476 11.7698 67.6208C12.867 64.9929 13.8115 62.0002 13.8698 60.9698C14.0514 57.7513 21.4639 46.2565 25.0832 43.5822C27.032 42.1419 27.7639 41.2264 26.7687 41.4736C25.8007 41.7138 23.9867 42.852 22.7373 44.0013ZM34.2013 40.1137C34.8995 40.2046 35.6493 39.9784 35.8661 39.6123C36.0828 39.2462 35.5115 39.1722 34.5956 39.4476C33.5834 39.7525 33.4286 40.0138 34.2013 40.1137ZM39.8432 40.9997C43.8655 42.541 47.0733 45.4631 51.1377 51.2912C54.0832 55.5141 57.6765 65.485 55.8679 64.4169C55.4375 64.1627 54.7956 62.4687 54.4407 60.6531C54.0388 58.5888 52.0563 55.0247 49.1525 51.1428C43.5677 43.6778 38.9476 41.11 32.8922 42.1059C29.0767 42.7333 29.0625 42.7472 32.3659 42.6226C34.2339 42.5515 36.9854 42.9099 38.48 43.4191C41.734 44.5275 47.8188 50.0537 49.5439 53.4688C50.9334 56.2183 50.5602 58.031 49.0943 55.6545C48.5761 54.8142 46.6745 52.3159 44.8684 50.1017C41.5265 46.0049 38.7637 44.5347 34.602 44.6376C33.2264 44.672 33.6815 44.917 35.7173 45.2367C40.1713 45.9368 45.7121 51.1015 47.6988 56.4028C49.5665 61.3897 48.184 60.8545 45.7583 55.6519C43.4631 50.7281 39.9801 47.8093 35.3826 46.9553C33.3833 46.5842 31.3927 45.9705 30.9592 45.5909C30.2409 44.9628 25.4707 49.1698 22.6112 52.9544C21.9998 53.7632 20.5902 57.3943 19.4776 61.0229C16.7677 69.8663 16.5528 70.7135 15.2806 77.5297C14.6761 80.7707 13.0429 85.5869 11.6509 88.2335C9.21313 92.8692 9.20654 92.9457 11.463 90.323C13.8538 87.5452 17.3151 79.386 16.858 77.6062C16.7185 77.0631 17.5882 73.8887 18.7903 70.5503C19.9924 67.2119 20.913 64.2357 20.836 63.9357C20.7589 63.6356 21.3518 61.8433 22.1531 59.9515C22.9544 58.0598 23.4978 56.0753 23.3606 55.541C23.2232 55.0059 24.6103 52.8506 26.442 50.7503L29.7739 46.9314L34.7375 47.8662C39.9748 48.8533 41.7446 50.4261 45.1799 57.1433C46.7849 60.2835 46.6406 63.0313 44.9881 60.7888C44.5883 60.2454 44.5061 61.0005 44.8058 62.4664C45.1055 63.9324 45.2137 66.0085 45.0462 67.0801C44.7752 68.817 44.6912 68.8582 44.2729 67.4592C44.0156 66.5958 43.7962 63.9918 43.7857 61.6727C43.7609 56.163 41.1027 51.6083 36.9887 50.027C32.4759 48.2928 32.3483 48.9146 36.7218 51.3279C40.0418 53.1599 40.763 54.0473 41.6087 57.3404C43.3101 63.9652 42.5613 73.4681 39.7226 81.2814C36.8823 89.0959 30.611 98.5715 25.6223 102.584C23.9117 103.96 23.1054 104.94 23.8313 104.759C25.6187 104.316 32.9944 98.2072 33.4311 96.8093C33.6236 96.1923 34.2022 95.5799 34.715 95.4482C36.8797 94.8922 33.6333 99.0586 28.6029 103.291C25.6394 105.785 24.1381 107.321 25.267 106.705C31.5099 103.293 40.936 93.0557 38.9266 91.869C38.4256 91.5731 37.6546 92.234 37.2134 93.3375C36.7714 94.4413 36.0807 95.1489 35.6779 94.911C35.2751 94.6731 35.8501 92.8732 36.9562 90.9106C40.6466 84.3617 41.4958 82.1351 42.7709 75.6548C43.4679 72.1141 44.3261 69.6636 44.6777 70.2091C45.0303 70.7544 44.6774 73.7578 43.8944 76.8839C43.1115 80.0099 42.5767 82.9796 42.7062 83.484C43.0372 84.7726 44.7225 80.1086 45.8344 74.8259C46.4569 71.8664 46.9344 70.977 47.2601 72.1688C47.5292 73.1545 47.4221 74.5126 47.0234 75.1873C46.6236 75.8613 46.6297 76.8911 47.0377 77.4737C48.1522 79.0688 48.9825 72.2707 48.3336 66.8605C48.0244 64.2824 48.123 62.0821 48.5533 61.9716C48.9836 61.8611 49.3802 62.7055 49.4369 63.8486C49.7345 69.9428 50.3174 73.1528 50.8558 71.6662C51.1635 70.8157 51.0994 68.8676 50.7148 67.3374C50.3292 65.8066 50.1244 63.7553 50.2602 62.7787C50.4409 61.4737 50.9147 62.0141 52.0468 64.8147C53.506 68.4262 53.5202 68.3244 52.3102 62.8769C51.3278 58.4538 51.3331 57.5342 52.3317 58.8926C56.0058 63.8896 55.2408 79.6169 50.7289 91.8031L48.8168 96.9696L51.7365 91.549C54.6561 86.1285 55.8876 79.7556 55.6786 71.156C55.5782 67.0216 56.5311 64.9582 57.4084 67.4119C57.6187 68.0012 57.7122 66.8196 57.6152 64.7873C57.1959 55.9958 48.6955 43.469 41.1915 40.5851C39.5007 39.9356 37.7889 39.4888 37.3876 39.5918C36.9854 39.6951 38.0907 40.3286 39.8432 40.9997ZM24.6872 46.1263C24.2715 47.0045 23.4339 47.8508 22.8244 48.0073C20.4006 48.6298 11.9178 69.3052 12.7527 72.5562C13.2148 74.3554 11.6934 81.331 9.88761 85.694C9.11343 87.5639 8.68515 89.0419 8.93543 88.9776C9.95413 88.716 13.9721 77.6759 13.9548 75.1846C13.9298 71.6573 18.917 56.8608 21.7032 52.1964C22.9101 50.1743 25.0908 47.4243 26.5486 46.084C28.6796 44.1248 28.8311 43.7342 27.3204 44.0886C26.2876 44.3314 25.1029 45.2481 24.6872 46.1263ZM27.4594 51.9562C26.2193 53.5791 23.2637 61.7721 20.678 70.7528C17.9836 80.112 14.9652 88.4249 13.351 90.9275C11.842 93.2675 11.3562 94.5546 12.272 93.7864C14.2308 92.1444 19.2282 82.549 20.0925 78.77C20.4231 77.3236 21.0633 75.4751 21.5154 74.6624C21.9667 73.8498 22.7095 71.5224 23.166 69.491C24.5979 63.1107 28.2679 53.4205 30.2144 50.8774C31.2477 49.5283 31.5421 48.5784 30.8716 48.7562C30.2038 48.9333 28.6685 50.373 27.4594 51.9562ZM29.8178 53.9258C29.1263 55.261 27.5041 60.2006 26.2117 64.904C24.9202 69.6072 23.3166 74.7066 22.6477 76.2352C21.9798 77.7645 20.4305 81.6755 19.2061 84.927C17.9818 88.1786 15.8997 92.3367 14.579 94.1673C13.2584 95.998 12.6268 97.3805 13.1739 97.2399C14.3629 96.9346 22.5973 81.3537 25.5187 73.8839C26.655 70.9748 27.9118 66.4937 28.3107 63.9245C28.7088 61.3556 29.8531 57.4167 30.8539 55.1717C32.7838 50.8366 31.9416 49.8242 29.8178 53.9258ZM64.3269 43.4268C64.845 45.0648 67.0267 47.4875 66.7208 46.0849C66.5621 45.3541 65.8962 44.2628 65.2422 43.6593C64.5883 43.0558 64.1758 42.9513 64.3269 43.4268ZM32.6029 54.1456C32.2793 54.872 32.2855 57.6224 32.6159 60.2577C33.2534 65.3388 32.4395 69.5547 29.3482 77.1897C26.523 84.1663 19.5216 95.1731 16.182 97.8869C14.5697 99.1977 13.483 100.408 13.7674 100.575C14.7939 101.182 21.6268 93.9479 24.883 88.8066C28.5719 82.9809 34.6507 69.8612 34.1618 68.7776C33.3824 67.0515 33.745 66.3637 34.9195 67.3431C35.9727 68.2219 36.0267 68.1369 35.2209 66.873C34.1186 65.1466 33.5232 55.7167 34.3874 53.6873C34.7471 52.8422 34.6336 52.4552 34.0681 52.6004C33.585 52.7245 32.9259 53.4202 32.6029 54.1456ZM36.7999 53.4511C38.3403 55.2717 40.1136 66.5142 39.5912 71.1433C38.7959 78.1979 30.4306 95.0626 25.471 99.611C23.073 101.81 22.2861 101.126 24.466 98.7377C27.9977 94.8693 32.6144 87.0174 35.4544 80.051C38.5428 72.4738 38.9835 65.6168 36.903 57.4829C35.4662 51.8626 34.8142 55.1776 36.0128 62.0101C36.9059 67.0986 36.7194 68.0273 33.2386 75.8081C28.9741 85.3415 21.8481 96.7852 18.1044 100.112C16.7028 101.358 15.8082 102.526 16.116 102.707C16.939 103.193 19.8216 100.405 23.2284 95.8323C24.8759 93.6194 26.4492 91.9418 26.7238 92.1031C27.5174 92.5726 21.0968 101.879 18.5173 103.998C16.6836 105.504 16.6194 105.677 18.2226 104.79C19.3499 104.168 21.4016 103.135 22.7821 102.496C29.2966 99.4823 37.4357 86.6068 40.2572 74.8556C41.4201 70.0087 41.5753 65.7507 40.8087 59.7003C40.3177 55.827 39.8561 54.8646 37.8132 53.4564C35.6705 51.9804 35.556 51.9789 36.7999 53.4511ZM30.4376 59.7109C29.9542 66.562 26.8558 76.2803 22.6783 84.0456C21.3947 86.4324 19.5996 89.8053 18.6889 91.5409L17.0347 94.6971L19.2272 92.1863C21.2658 89.8524 25.4919 82.4768 28.2303 76.4744C29.9174 72.7758 31.4176 66.1367 31.4926 62.0329C31.5581 58.4133 30.6678 56.4519 30.4376 59.7109ZM70.4655 48.8635C70.6513 49.5872 71.6913 51.4241 72.7757 52.9456C73.8601 54.4671 74.5959 55.1198 74.4101 54.396C74.2242 53.6723 73.1843 51.8355 72.0998 50.3139C71.0154 48.7924 70.2796 48.1398 70.4655 48.8635ZM70.2211 53.6017C73.3447 60.4027 74.5196 62.4115 74.0247 60.1055C73.7633 58.8869 72.4977 56.2664 71.213 54.282C69.302 51.3317 69.1214 51.2079 70.2211 53.6017ZM49.7045 59.4158C50.0091 60.427 50.2707 60.5814 50.3712 59.8103C50.4624 59.1118 50.2364 58.3628 49.87 58.1465C49.5037 57.9301 49.4293 58.5009 49.7045 59.4158ZM46.1713 63.6755C46.3123 64.4977 46.358 65.9587 46.2722 66.9224C46.1517 68.2755 46.3052 68.3848 46.9421 67.4021C47.3969 66.7018 47.3521 65.2405 46.8421 64.155C46.3321 63.0694 46.0306 62.8542 46.1713 63.6755ZM8.9581 78.7504C7.99772 81.5208 7.2797 84.0504 7.36193 84.3706C7.60929 85.3338 10.0611 80.0016 10.767 76.9655C11.8422 72.3459 10.834 73.3407 8.9581 78.7504ZM62.6218 66.261C62.9255 67.4435 63.165 70.8221 63.1543 73.7694C63.1327 79.5501 63.9463 81.4787 64.4919 76.9437C64.8832 73.6995 63.4562 63.7548 62.6307 63.9668C62.3216 64.0461 62.3181 65.0785 62.6218 66.261ZM33.1487 78.9899C31.517 82.9922 29.3222 87.3093 28.2701 88.5819C27.2192 89.8551 26.7818 91.1373 27.2975 91.4321C28.4234 92.0762 34.4416 80.8497 35.9026 75.3811C37.4597 69.554 36.4624 70.8611 33.1487 78.9899ZM75.2407 64.0787C75.5454 65.0899 75.8069 65.2443 75.9075 64.4732C75.9986 63.7747 75.7726 63.0257 75.4062 62.8094C75.0399 62.593 74.9655 63.1638 75.2407 64.0787ZM49.6788 75.3974C49.4389 75.8013 49.3478 76.54 49.476 77.0391C49.617 77.5883 50.013 77.4314 50.4811 76.6407C50.9061 75.9228 50.9972 75.1841 50.6839 74.999C50.3702 74.8131 49.9175 74.9929 49.6788 75.3974ZM43.4197 86.7653C40.3325 94.9378 35.8624 101.206 30.003 105.579C27.468 107.471 26.0517 108.859 26.8564 108.665C29.4778 108.032 37.792 100.497 40.5045 96.2963C43.3777 91.847 47.4096 81.2512 46.4461 80.6814C46.1185 80.4888 44.7565 83.2259 43.4197 86.7653ZM40.6569 87.1428C39.2899 89.912 38.9482 91.5558 39.786 91.3406C40.1934 91.236 40.9229 89.7863 41.4074 88.1189C42.3907 84.7339 42.0599 84.3027 40.6569 87.1428ZM74.076 86.9358C73.9211 88.3081 74.0471 88.3833 74.694 87.3008C75.1417 86.5508 75.2295 85.7737 74.8898 85.5738C74.55 85.3731 74.1841 85.9861 74.076 86.9358ZM72.8481 91.9668C72.1138 93.6384 72.1524 93.6612 73.2652 92.2131C74.4338 90.6909 74.7134 89.8514 73.9906 90.037C73.8089 90.0837 73.2944 90.9526 72.8481 91.9668ZM47.5141 100.714C47.3906 101.112 48.2203 101.347 49.3576 101.237C51.077 101.072 50.7505 101.645 47.4321 104.62C42.8399 108.736 42.2167 110.115 46.5366 106.6C51.6674 102.427 53.2588 100.677 52.0054 100.59C51.3485 100.543 50.9324 100.115 51.0812 99.6374C51.2309 99.1595 50.5395 99.0444 49.5465 99.3807C48.5527 99.7173 47.6379 100.318 47.5141 100.714ZM37.9393 104.959C36.4966 106.329 35.8241 107.319 36.4441 107.16C37.7307 106.83 42.1215 103.077 41.9595 102.447C41.768 101.701 40.6079 102.425 37.9393 104.959ZM20.3487 109.424C18.473 110.602 18.4679 110.662 20.2801 110.283C21.3507 110.059 22.3695 109.419 22.5441 108.86C22.7188 108.301 22.7496 107.914 22.6127 108.001C22.4758 108.087 21.4571 108.728 20.3487 109.424ZM33.3088 109.539C34.007 109.63 34.7568 109.404 34.9736 109.038C35.1903 108.672 34.619 108.598 33.7031 108.873C32.6909 109.178 32.5361 109.439 33.3088 109.539ZM28.6274 112.499C26.7125 113.846 26.4164 114.322 27.6731 114.036C28.6742 113.808 30.1116 112.844 30.8677 111.895C32.4816 109.868 32.3011 109.917 28.6274 112.499ZM49.5308 109.547C48.0286 110.431 47.0658 111.311 47.3924 111.504C48.2335 112.001 52.9987 109.484 53.3513 108.357C53.6981 107.247 53.1641 107.413 49.5308 109.547ZM60.6856 107.93C56.7253 110.807 56.3756 111.272 58.5449 110.77C60.836 110.239 67.9261 105.14 67.6839 104.197C67.4858 103.426 65.2257 104.631 60.6856 107.93Z" fill="white"/>
</svg>
