<svg width="60" height="60" viewBox="0 0 60 60" fill="none" xmlns="http://www.w3.org/2000/svg">
<rect width="60" height="60" rx="6" fill="#0BC1A0" fill-opacity="0.2"/>
<path opacity="0.4" d="M40.625 27.7375H37.0125C34.05 27.7375 31.6375 25.325 31.6375 22.3625V18.75C31.6375 18.0625 31.075 17.5 30.3875 17.5H25.0875C21.2375 17.5 18.125 20 18.125 24.4625V35.5375C18.125 40 21.2375 42.5 25.0875 42.5H34.9125C38.7625 42.5 41.875 40 41.875 35.5375V28.9875C41.875 28.3 41.3125 27.7375 40.625 27.7375Z" fill="#0BC1A0"/>
<path d="M34.7496 17.7626C34.2371 17.2501 33.3496 17.6001 33.3496 18.3126V22.6751C33.3496 24.5001 34.8996 26.0126 36.7871 26.0126C37.9746 26.0251 39.6246 26.0251 41.0371 26.0251C41.7496 26.0251 42.1246 25.1876 41.6246 24.6876C39.8246 22.8751 36.5996 19.6126 34.7496 17.7626Z" fill="#0BC1A0"/>
<path d="M31.875 32.1875H24.375C23.8625 32.1875 23.4375 31.7625 23.4375 31.25C23.4375 30.7375 23.8625 30.3125 24.375 30.3125H31.875C32.3875 30.3125 32.8125 30.7375 32.8125 31.25C32.8125 31.7625 32.3875 32.1875 31.875 32.1875Z" fill="#0BC1A0"/>
<path d="M29.375 37.1875H24.375C23.8625 37.1875 23.4375 36.7625 23.4375 36.25C23.4375 35.7375 23.8625 35.3125 24.375 35.3125H29.375C29.8875 35.3125 30.3125 35.7375 30.3125 36.25C30.3125 36.7625 29.8875 37.1875 29.375 37.1875Z" fill="#0BC1A0"/>
</svg>
