<svg width="60" height="60" viewBox="0 0 60 60" fill="none" xmlns="http://www.w3.org/2000/svg">
<rect width="60" height="60" rx="6" fill="#0BC1A0" fill-opacity="0.2"/>
<path d="M42.5002 32.3752V35.2377C42.5002 39.7877 39.7877 42.5002 35.2377 42.5002H24.7627C21.5752 42.5002 19.2752 41.1627 18.2002 38.7877L18.3377 38.6877L24.4877 34.5627C25.4877 33.8877 26.9002 33.9627 27.7877 34.7377L28.2127 35.0877C29.1877 35.9252 30.7627 35.9252 31.7377 35.0877L36.9377 30.6252C37.9127 29.7877 39.4877 29.7877 40.4627 30.6252L42.5002 32.3752Z" fill="#0BC1A0"/>
<path opacity="0.4" d="M41.2125 25H37.5375C35.95 25 35 24.05 35 22.4625V18.7875C35 18.2875 35.1 17.8625 35.275 17.5C35.2625 17.5 35.25 17.5 35.2375 17.5H24.7625C20.2125 17.5 17.5 20.2125 17.5 24.7625V35.2375C17.5 36.6 17.7375 37.7875 18.2 38.7875L18.3375 38.6875L24.4875 34.5625C25.4875 33.8875 26.9 33.9625 27.7875 34.7375L28.2125 35.0875C29.1875 35.925 30.7625 35.925 31.7375 35.0875L36.9375 30.625C37.9125 29.7875 39.4875 29.7875 40.4625 30.625L42.5 32.375V24.7625C42.5 24.75 42.5 24.7375 42.5 24.725C42.1375 24.9 41.7125 25 41.2125 25Z" fill="#0BC1A0"/>
<path d="M26.2504 27.9749C27.8934 27.9749 29.2254 26.643 29.2254 24.9999C29.2254 23.3569 27.8934 22.0249 26.2504 22.0249C24.6073 22.0249 23.2754 23.3569 23.2754 24.9999C23.2754 26.643 24.6073 27.9749 26.2504 27.9749Z" fill="#0BC1A0"/>
<path d="M41.2125 16.25H37.5375C35.95 16.25 35 17.2 35 18.7875V22.4625C35 24.05 35.95 25 37.5375 25H41.2125C42.8 25 43.75 24.05 43.75 22.4625V18.7875C43.75 17.2 42.8 16.25 41.2125 16.25ZM38.7625 23.2125C38.725 23.25 38.6375 23.3 38.575 23.3L37.275 23.4875C37.2375 23.5 37.1875 23.5 37.15 23.5C36.9625 23.5 36.8 23.4375 36.6875 23.3125C36.5375 23.1625 36.475 22.95 36.5125 22.725L36.7 21.425C36.7125 21.3625 36.75 21.275 36.7875 21.2375L38.9125 19.1125C38.95 19.2 38.9875 19.3 39.025 19.4C39.075 19.5 39.125 19.5875 39.175 19.675C39.2125 19.75 39.2625 19.825 39.3125 19.875C39.3625 19.95 39.4125 20.025 39.45 20.0625C39.475 20.1 39.4875 20.1125 39.5 20.125C39.6125 20.2625 39.7375 20.3875 39.85 20.475C39.875 20.5 39.9 20.525 39.9125 20.525C39.975 20.575 40.05 20.6375 40.1 20.675C40.175 20.725 40.2375 20.775 40.3125 20.8125C40.4 20.8625 40.5 20.9125 40.6 20.9625C40.7 21.0125 40.8 21.05 40.8875 21.075L38.7625 23.2125ZM41.75 20.225L41.35 20.625C41.325 20.6625 41.2875 20.675 41.25 20.675C41.2375 20.675 41.225 20.675 41.2125 20.675C40.3125 20.4125 39.6 19.7 39.3375 18.8C39.325 18.75 39.3375 18.7 39.375 18.6625L39.7875 18.25C40.4625 17.575 41.1 17.5875 41.7625 18.25C42.1 18.5875 42.2625 18.9125 42.2625 19.2375C42.25 19.5625 42.0875 19.8875 41.75 20.225Z" fill="#0BC1A0"/>
</svg>
