<svg width="14" height="15" viewBox="0 0 14 15" fill="none" xmlns="http://www.w3.org/2000/svg">
<path fill-rule="evenodd" clip-rule="evenodd" d="M4.41558 0.699951C4.68323 0.699951 4.9002 0.908313 4.9002 1.16534V3.0269C4.9002 3.28393 4.68323 3.49229 4.41558 3.49229C4.14793 3.49229 3.93096 3.28393 3.93096 3.0269V1.16534C3.93096 0.908313 4.14793 0.699951 4.41558 0.699951Z" fill="#A4A4A4"/>
<path fill-rule="evenodd" clip-rule="evenodd" d="M9.58481 0.699951C9.85246 0.699951 10.0694 0.908313 10.0694 1.16534V3.0269C10.0694 3.28393 9.85246 3.49229 9.58481 3.49229C9.31717 3.49229 9.1002 3.28393 9.1002 3.0269V1.16534C9.1002 0.908313 9.31717 0.699951 9.58481 0.699951Z" fill="#A4A4A4"/>
<path fill-rule="evenodd" clip-rule="evenodd" d="M1.02327 5.56482C1.02327 5.3078 1.24024 5.09943 1.50789 5.09943H12.4925C12.7601 5.09943 12.9771 5.3078 12.9771 5.56482C12.9771 5.82185 12.7601 6.03021 12.4925 6.03021H1.50789C1.24024 6.03021 1.02327 5.82185 1.02327 5.56482Z" fill="#A4A4A4"/>
<path fill-rule="evenodd" clip-rule="evenodd" d="M2.30724 3.26601C1.89323 3.69418 1.66943 4.33928 1.66943 5.19872V10.4731C1.66943 11.3326 1.89323 11.9777 2.30724 12.4058C2.71521 12.8278 3.37718 13.1103 4.41558 13.1103H9.58481C10.6232 13.1103 11.2852 12.8278 11.6931 12.4058C12.1072 11.9777 12.331 11.3326 12.331 10.4731V5.19872C12.331 4.33928 12.1072 3.69418 11.6931 3.26601C11.2852 2.84409 10.6232 2.56151 9.58481 2.56151H4.41558C3.37718 2.56151 2.71521 2.84409 2.30724 3.26601ZM1.597 2.63266C2.23902 1.96868 3.19244 1.63073 4.41558 1.63073H9.58481C10.8079 1.63073 11.7614 1.96868 12.4034 2.63266C13.0394 3.2904 13.3002 4.1966 13.3002 5.19872V10.4731C13.3002 11.4753 13.0394 12.3815 12.4034 13.0392C11.7614 13.7032 10.8079 14.0411 9.58481 14.0411H4.41558C3.19244 14.0411 2.23902 13.7032 1.597 13.0392C0.961005 12.3815 0.700195 11.4753 0.700195 10.4731V5.19872C0.700195 4.1966 0.961005 3.2904 1.597 2.63266Z" fill="#A4A4A4"/>
<path fill-rule="evenodd" clip-rule="evenodd" d="M8.74139 8.42543C8.74139 8.08273 9.03068 7.80491 9.38754 7.80491H9.39334C9.75021 7.80491 10.0395 8.08273 10.0395 8.42543C10.0395 8.76813 9.75021 9.04595 9.39334 9.04595H9.38754C9.03068 9.04595 8.74139 8.76813 8.74139 8.42543Z" fill="#A4A4A4"/>
<path fill-rule="evenodd" clip-rule="evenodd" d="M8.74139 10.287C8.74139 9.94429 9.03068 9.66647 9.38754 9.66647H9.39334C9.75021 9.66647 10.0395 9.94429 10.0395 10.287C10.0395 10.6297 9.75021 10.9075 9.39334 10.9075H9.38754C9.03068 10.9075 8.74139 10.6297 8.74139 10.287Z" fill="#A4A4A4"/>
<path fill-rule="evenodd" clip-rule="evenodd" d="M6.35112 8.42543C6.35112 8.08273 6.64042 7.80491 6.99728 7.80491H7.00308C7.35994 7.80491 7.64923 8.08273 7.64923 8.42543C7.64923 8.76813 7.35994 9.04595 7.00308 9.04595H6.99728C6.64042 9.04595 6.35112 8.76813 6.35112 8.42543Z" fill="#A4A4A4"/>
<path fill-rule="evenodd" clip-rule="evenodd" d="M6.35112 10.287C6.35112 9.94429 6.64042 9.66647 6.99728 9.66647H7.00308C7.35994 9.66647 7.64923 9.94429 7.64923 10.287C7.64923 10.6297 7.35994 10.9075 7.00308 10.9075H6.99728C6.64042 10.9075 6.35112 10.6297 6.35112 10.287Z" fill="#A4A4A4"/>
<path fill-rule="evenodd" clip-rule="evenodd" d="M3.9596 8.42543C3.9596 8.08273 4.24889 7.80491 4.60575 7.80491H4.61155C4.96842 7.80491 5.25771 8.08273 5.25771 8.42543C5.25771 8.76813 4.96842 9.04595 4.61155 9.04595H4.60575C4.24889 9.04595 3.9596 8.76813 3.9596 8.42543Z" fill="#A4A4A4"/>
<path fill-rule="evenodd" clip-rule="evenodd" d="M3.9596 10.287C3.9596 9.94429 4.24889 9.66647 4.60575 9.66647H4.61155C4.96842 9.66647 5.25771 9.94429 5.25771 10.287C5.25771 10.6297 4.96842 10.9075 4.61155 10.9075H4.60575C4.24889 10.9075 3.9596 10.6297 3.9596 10.287Z" fill="#A4A4A4"/>
</svg>
