<svg width="40" height="40" viewBox="0 0 40 40" fill="none" xmlns="http://www.w3.org/2000/svg">
<circle cx="20" cy="20" r="20" fill="#13262E"/>
<path d="M16.2506 28.7502C16.2506 29.8002 16.4131 30.8252 16.7131 31.7752C11.9131 30.1127 8.28811 25.7002 7.91311 20.5377C7.53811 15.0502 10.7006 9.92521 15.8131 7.77521C17.1381 7.22521 17.8131 7.62521 18.1006 7.91271C18.3756 8.18771 18.7631 8.85021 18.2131 10.1127C17.6506 11.4127 17.3756 12.7877 17.3756 14.2127C17.3881 16.7627 18.3881 19.1252 20.0131 20.9377C17.7256 22.7627 16.2506 25.5877 16.2506 28.7502Z" fill="#0BC1A0"/>
<path opacity="0.4" d="M31.513 27.15C29.038 30.5125 25.113 32.4875 20.9255 32.4875C20.7255 32.4875 20.5255 32.475 20.3255 32.4625C19.0755 32.4125 17.863 32.175 16.713 31.775C16.413 30.825 16.2505 29.8 16.2505 28.75C16.2505 25.5875 17.7255 22.7625 20.013 20.9375C21.8505 23 24.488 24.3375 27.4005 24.4625C28.188 24.5 28.9755 24.4375 29.7505 24.3C31.1505 24.05 31.713 24.575 31.913 24.9125C32.1255 25.25 32.3505 25.9875 31.513 27.15Z" fill="#0BC1A0"/>
</svg>
