<svg width="34" height="34" viewBox="0 0 34 34" fill="none" xmlns="http://www.w3.org/2000/svg">
<path opacity="0.4" d="M29.0417 14.4355H24.9476C21.5901 14.4355 18.8559 11.7013 18.8559 8.34384V4.24967C18.8559 3.47051 18.2184 2.83301 17.4392 2.83301H11.4326C7.06925 2.83301 3.54175 5.66634 3.54175 10.7238V23.2755C3.54175 28.333 7.06925 31.1663 11.4326 31.1663H22.5676C26.9309 31.1663 30.4584 28.333 30.4584 23.2755V15.8522C30.4584 15.073 29.8209 14.4355 29.0417 14.4355Z" fill="#0BC1A0"/>
<path d="M22.3833 3.13054C21.8025 2.54971 20.7966 2.94637 20.7966 3.75387V8.69804C20.7966 10.7664 22.5533 12.4805 24.6925 12.4805C26.0383 12.4947 27.9083 12.4947 29.5091 12.4947C30.3166 12.4947 30.7416 11.5455 30.175 10.9789C28.135 8.92471 24.48 5.22721 22.3833 3.13054Z" fill="#0BC1A0"/>
<path d="M19.125 19.4795H10.625C10.0442 19.4795 9.5625 18.9978 9.5625 18.417C9.5625 17.8362 10.0442 17.3545 10.625 17.3545H19.125C19.7058 17.3545 20.1875 17.8362 20.1875 18.417C20.1875 18.9978 19.7058 19.4795 19.125 19.4795Z" fill="#0BC1A0"/>
<path d="M16.2917 25.1455H10.625C10.0442 25.1455 9.5625 24.6638 9.5625 24.083C9.5625 23.5022 10.0442 23.0205 10.625 23.0205H16.2917C16.8725 23.0205 17.3542 23.5022 17.3542 24.083C17.3542 24.6638 16.8725 25.1455 16.2917 25.1455Z" fill="#0BC1A0"/>
</svg>
