<svg width="11" height="6" viewBox="0 0 11 6" fill="none" xmlns="http://www.w3.org/2000/svg">
<path d="M5.17605 4.13183L8.83305 0.474826C8.8996 0.401739 8.98015 0.342747 9.06991 0.301344C9.15968 0.25994 9.25683 0.236966 9.35563 0.233782C9.45443 0.230598 9.55287 0.247268 9.64511 0.282805C9.73735 0.318342 9.82153 0.372025 9.89266 0.440675C9.96378 0.509324 10.0204 0.591546 10.0592 0.682473C10.098 0.773399 10.1181 0.871182 10.1184 0.970033C10.1188 1.06888 10.0992 1.16679 10.061 1.25797C10.0228 1.34914 9.96673 1.43172 9.89605 1.50083L9.87805 1.51883L5.69905 5.69883C5.56046 5.83738 5.37252 5.91522 5.17655 5.91522C4.98058 5.91522 4.79263 5.83738 4.65405 5.69883L0.475048 1.51983C0.40525 1.45239 0.349418 1.37187 0.31074 1.28286C0.272061 1.19385 0.251293 1.09809 0.249621 1.00105C0.24795 0.904017 0.265408 0.807601 0.300998 0.71731C0.336588 0.62702 0.389614 0.544624 0.457048 0.474826C0.524482 0.405029 0.605003 0.349197 0.694014 0.310518C0.783025 0.271839 0.878783 0.251071 0.97582 0.2494C1.07286 0.247728 1.16927 0.265186 1.25956 0.300776C1.34985 0.336367 1.43225 0.389392 1.50205 0.456826L1.52005 0.474826L5.17605 4.13183Z" fill="#A4A4A4"/>
</svg>
