<svg width="40" height="40" viewBox="0 0 40 40" fill="none" xmlns="http://www.w3.org/2000/svg">
<rect width="40" height="40" rx="20" fill="#141521"/>
<path opacity="0.4" d="M29 30H11C10.59 30 10.25 29.66 10.25 29.25C10.25 28.84 10.59 28.5 11 28.5H29C29.41 28.5 29.75 28.84 29.75 29.25C29.75 29.66 29.41 30 29 30Z" fill="white"/>
<path opacity="0.4" d="M27.0201 11.4797C25.0801 9.53967 23.1801 9.48967 21.1901 11.4797L19.9801 12.6897C19.8801 12.7897 19.8401 12.9497 19.8801 13.0897C20.6401 15.7397 22.7601 17.8597 25.4101 18.6197C25.4501 18.6297 25.4901 18.6397 25.5301 18.6397C25.6401 18.6397 25.7401 18.5997 25.8201 18.5197L27.0201 17.3097C28.0101 16.3297 28.4901 15.3797 28.4901 14.4197C28.5001 13.4297 28.0201 12.4697 27.0201 11.4797Z" fill="white"/>
<path d="M23.6101 19.5298C23.3201 19.3898 23.0401 19.2498 22.7701 19.0898C22.5501 18.9598 22.3401 18.8198 22.1301 18.6698C21.9601 18.5598 21.7601 18.3998 21.5701 18.2398C21.5501 18.2298 21.4801 18.1698 21.4001 18.0898C21.0701 17.8098 20.7001 17.4498 20.3701 17.0498C20.3401 17.0298 20.2901 16.9598 20.2201 16.8698C20.1201 16.7498 19.9501 16.5498 19.8001 16.3198C19.6801 16.1698 19.5401 15.9498 19.4101 15.7298C19.2501 15.4598 19.1101 15.1898 18.9701 14.9098C18.8301 14.6098 18.7201 14.3198 18.6201 14.0498L12.3401 20.3298C12.2101 20.4598 12.0901 20.7098 12.0601 20.8798L11.5201 24.7098C11.4201 25.3898 11.6101 26.0298 12.0301 26.4598C12.3901 26.8098 12.8901 26.9998 13.4301 26.9998C13.5501 26.9998 13.6701 26.9898 13.7901 26.9698L17.6301 26.4298C17.8101 26.3998 18.0601 26.2798 18.1801 26.1498L24.4601 19.8698C24.1801 19.7698 23.9101 19.6598 23.6101 19.5298Z" fill="white"/>
</svg>
