<svg width="34" height="34" viewBox="0 0 34 34" fill="none" xmlns="http://www.w3.org/2000/svg">
<path opacity="0.4" d="M31.1666 11.0638V19.6913L28.8574 17.708C27.7524 16.7588 25.9674 16.7588 24.8624 17.708L18.9691 22.7655C17.8641 23.7147 16.0791 23.7147 14.9741 22.7655L14.4924 22.3688C13.4866 21.4905 11.8858 21.4055 10.7524 22.1705L3.78242 26.8455L3.62659 26.9588C3.10242 25.8255 2.83325 24.4797 2.83325 22.9355V11.0638C2.83325 5.90717 5.90742 2.83301 11.0641 2.83301H22.9358C28.0924 2.83301 31.1666 5.90717 31.1666 11.0638Z" fill="#0BC1A0"/>
<path d="M12.7501 14.7052C14.6122 14.7052 16.1218 13.1957 16.1218 11.3336C16.1218 9.47146 14.6122 7.96191 12.7501 7.96191C10.888 7.96191 9.37842 9.47146 9.37842 11.3336C9.37842 13.1957 10.888 14.7052 12.7501 14.7052Z" fill="#0BC1A0"/>
<path d="M31.1667 19.6913V22.9355C31.1667 28.0921 28.0925 31.1663 22.9359 31.1663H11.0642C7.45171 31.1663 4.84504 29.6505 3.62671 26.9588L3.78254 26.8455L10.7525 22.1705C11.8859 21.4055 13.4867 21.4905 14.4925 22.3688L14.9742 22.7655C16.0792 23.7146 17.8642 23.7146 18.9692 22.7655L24.8625 17.708C25.9675 16.7588 27.7525 16.7588 28.8575 17.708L31.1667 19.6913Z" fill="#0BC1A0"/>
</svg>
