<svg width="64" height="64" viewBox="0 0 64 64" fill="none" xmlns="http://www.w3.org/2000/svg">
<circle cx="32" cy="32" r="31.5" fill="white" stroke="#0BC1A0"/>
<circle cx="32" cy="32" r="28" fill="#0BC1A0"/>
<path d="M38.5878 43.6166V44.0274C36.4911 45.3732 33.9836 46.1666 31.292 46.1666C28.5578 46.1666 26.0078 45.3449 23.8828 43.9424V43.6166C23.8828 40.3157 27.1836 37.624 31.2353 37.624C35.3011 37.624 38.5878 40.3157 38.5878 43.6166Z" fill="white"/>
<path opacity="0.4" d="M44.7507 32.7083C44.7507 37.4542 42.2998 41.6192 38.5882 44.0275V43.6167C38.5882 40.3159 35.3015 37.6241 31.2356 37.6241C27.184 37.6241 23.8832 40.3159 23.8832 43.6167V43.9425C20.2423 41.5342 17.834 37.4117 17.834 32.7083C17.834 25.2708 23.8548 19.25 31.2923 19.25C33.1482 19.25 34.919 19.6183 36.534 20.2983C36.3498 20.865 36.2507 21.46 36.2507 22.0833C36.2507 23.1458 36.5482 24.1517 37.0723 25.0017C37.3557 25.4833 37.724 25.9225 38.149 26.2908C39.1407 27.1975 40.4582 27.75 41.9173 27.75C42.5407 27.75 43.1357 27.6508 43.6882 27.4525C44.3682 29.0675 44.7507 30.8525 44.7507 32.7083Z" fill="white"/>
<path d="M46.1242 18.3012C45.1042 17.1395 43.5883 16.417 41.9167 16.417C40.33 16.417 38.885 17.0687 37.8508 18.1312C37.2558 18.7404 36.8025 19.477 36.5333 20.2986C36.3492 20.8653 36.25 21.4603 36.25 22.0837C36.25 23.1462 36.5475 24.152 37.0717 25.002C37.355 25.4837 37.7233 25.9228 38.1483 26.2911C39.14 27.1978 40.4575 27.7503 41.9167 27.7503C42.54 27.7503 43.135 27.6511 43.6875 27.4528C44.9908 27.042 46.0817 26.1495 46.7617 25.002C47.0592 24.5203 47.2858 23.9678 47.4133 23.4011C47.5267 22.9761 47.5833 22.537 47.5833 22.0837C47.5833 20.6387 47.0308 19.307 46.1242 18.3012ZM44.0275 23.1178H42.9792V24.2228C42.9792 24.8037 42.4975 25.2853 41.9167 25.2853C41.3358 25.2853 40.8542 24.8037 40.8542 24.2228V23.1178H39.8058C39.225 23.1178 38.7433 22.6361 38.7433 22.0553C38.7433 21.4745 39.225 20.9928 39.8058 20.9928H40.8542V19.987C40.8542 19.4062 41.3358 18.9245 41.9167 18.9245C42.4975 18.9245 42.9792 19.4062 42.9792 19.987V20.9928H44.0275C44.6083 20.9928 45.09 21.4745 45.09 22.0553C45.09 22.6361 44.6225 23.1178 44.0275 23.1178Z" fill="white"/>
<path d="M31.2347 35.8679C33.4333 35.8679 35.2156 34.0856 35.2156 31.8871C35.2156 29.6885 33.4333 27.9062 31.2347 27.9062C29.0362 27.9062 27.2539 29.6885 27.2539 31.8871C27.2539 34.0856 29.0362 35.8679 31.2347 35.8679Z" fill="white"/>
</svg>
