<svg width="40" height="40" viewBox="0 0 40 40" fill="none" xmlns="http://www.w3.org/2000/svg">
<circle cx="20" cy="20" r="20" fill="#E6FFFB"/>
<path opacity="0.4" d="M20 28.75C24.8325 28.75 28.75 24.8325 28.75 20C28.75 15.1675 24.8325 11.25 20 11.25C15.1675 11.25 11.25 15.1675 11.25 20C11.25 24.8325 15.1675 28.75 20 28.75Z" fill="#0BC1A0"/>
<path d="M20 33.7C19.3125 33.7 18.75 33.1875 18.75 32.5V32.4C18.75 31.7125 19.3125 31.15 20 31.15C20.6875 31.15 21.25 31.7125 21.25 32.4C21.25 33.0875 20.6875 33.7 20 33.7ZM28.925 30.175C28.6 30.175 28.2875 30.05 28.0375 29.8125L27.875 29.65C27.3875 29.1625 27.3875 28.375 27.875 27.8875C28.3625 27.4 29.15 27.4 29.6375 27.8875L29.8 28.05C30.2875 28.5375 30.2875 29.325 29.8 29.8125C29.5625 30.05 29.25 30.175 28.925 30.175ZM11.075 30.175C10.75 30.175 10.4375 30.05 10.1875 29.8125C9.7 29.325 9.7 28.5375 10.1875 28.05L10.35 27.8875C10.8375 27.4 11.625 27.4 12.1125 27.8875C12.6 28.375 12.6 29.1625 12.1125 29.65L11.95 29.8125C11.7125 30.05 11.3875 30.175 11.075 30.175ZM32.5 21.25H32.4C31.7125 21.25 31.15 20.6875 31.15 20C31.15 19.3125 31.7125 18.75 32.4 18.75C33.0875 18.75 33.7 19.3125 33.7 20C33.7 20.6875 33.1875 21.25 32.5 21.25ZM7.6 21.25H7.5C6.8125 21.25 6.25 20.6875 6.25 20C6.25 19.3125 6.8125 18.75 7.5 18.75C8.1875 18.75 8.8 19.3125 8.8 20C8.8 20.6875 8.2875 21.25 7.6 21.25ZM28.7625 12.4875C28.4375 12.4875 28.125 12.3625 27.875 12.125C27.3875 11.6375 27.3875 10.85 27.875 10.3625L28.0375 10.2C28.525 9.7125 29.3125 9.7125 29.8 10.2C30.2875 10.6875 30.2875 11.475 29.8 11.9625L29.6375 12.125C29.4 12.3625 29.0875 12.4875 28.7625 12.4875ZM11.2375 12.4875C10.9125 12.4875 10.6 12.3625 10.35 12.125L10.1875 11.95C9.7 11.4625 9.7 10.675 10.1875 10.1875C10.675 9.7 11.4625 9.7 11.95 10.1875L12.1125 10.35C12.6 10.8375 12.6 11.625 12.1125 12.1125C11.875 12.3625 11.55 12.4875 11.2375 12.4875ZM20 8.8C19.3125 8.8 18.75 8.2875 18.75 7.6V7.5C18.75 6.8125 19.3125 6.25 20 6.25C20.6875 6.25 21.25 6.8125 21.25 7.5C21.25 8.1875 20.6875 8.8 20 8.8Z" fill="#0BC1A0"/>
</svg>
