<svg width="65" height="64" viewBox="0 0 65 64" fill="none" xmlns="http://www.w3.org/2000/svg">
<circle cx="32.9512" cy="32" r="31.5" fill="white" stroke="#0BC1A0"/>
<circle cx="32.9512" cy="32" r="28" fill="#0BC1A0"/>
<path opacity="0.4" d="M41.5 44.042H40.0833V43.6879C40.0833 42.1295 38.8083 40.8545 37.25 40.8545H34.0625V37.6104C33.7083 37.6529 33.3542 37.667 33 37.667C32.6458 37.667 32.2917 37.6529 31.9375 37.6104V40.8545H28.75C27.1917 40.8545 25.9167 42.1295 25.9167 43.6879V44.042H24.5C23.9192 44.042 23.4375 44.5237 23.4375 45.1045C23.4375 45.6854 23.9192 46.167 24.5 46.167H41.5C42.0808 46.167 42.5625 45.6854 42.5625 45.1045C42.5625 44.5237 42.0808 44.042 41.5 44.042Z" fill="white"/>
<path opacity="0.4" d="M23.8205 31.4897C22.8855 31.1355 22.0638 30.5547 21.4121 29.903C20.0946 28.4438 19.2305 26.7013 19.2305 24.6613C19.2305 22.6213 20.8313 21.0205 22.8713 21.0205H23.6646C23.2963 21.7713 23.0838 22.6072 23.0838 23.4997V27.7497C23.0838 29.0813 23.3388 30.3422 23.8205 31.4897Z" fill="white"/>
<path opacity="0.4" d="M46.7697 24.6613C46.7697 26.7013 45.9055 28.4438 44.588 29.903C43.9364 30.5547 43.1147 31.1355 42.1797 31.4897C42.6614 30.3422 42.9164 29.0813 42.9164 27.7497V23.4997C42.9164 22.6072 42.7039 21.7713 42.3355 21.0205H43.1289C45.1689 21.0205 46.7697 22.6213 46.7697 24.6613Z" fill="white"/>
<path d="M37.2507 17.833H28.7507C25.6198 17.833 23.084 20.3688 23.084 23.4997V27.7497C23.084 33.2322 27.5182 37.6663 33.0007 37.6663C38.4832 37.6663 42.9173 33.2322 42.9173 27.7497V23.4997C42.9173 20.3688 40.3815 17.833 37.2507 17.833ZM37.024 26.9705L36.1457 28.0472C36.004 28.203 35.9048 28.5147 35.919 28.7272L36.004 30.1155C36.0607 30.9655 35.4515 31.4047 34.6582 31.093L33.369 30.583C33.1707 30.5122 32.8307 30.5122 32.6323 30.583L31.3432 31.093C30.5498 31.4047 29.9407 30.9655 29.9973 30.1155L30.0823 28.7272C30.0965 28.5147 29.9973 28.203 29.8557 28.0472L28.9773 26.9705C28.4248 26.3188 28.6657 25.5963 29.4873 25.3838L30.8332 25.0438C31.0457 24.9872 31.3007 24.7888 31.414 24.6047L32.1648 23.443C32.6323 22.7205 33.369 22.7205 33.8365 23.443L34.5873 24.6047C34.7007 24.7888 34.9557 24.9872 35.1682 25.0438L36.514 25.3838C37.3356 25.5963 37.5765 26.3188 37.024 26.9705Z" fill="white"/>
<path opacity="0.4" d="M37.0226 26.9707L36.1443 28.0474C36.0026 28.2032 35.9035 28.5149 35.9176 28.7274L36.0026 30.1157C36.0593 30.9657 35.4501 31.4049 34.6568 31.0932L33.3676 30.5832C33.1693 30.5124 32.8293 30.5124 32.631 30.5832L31.3418 31.0932C30.5485 31.4049 29.9393 30.9657 29.996 30.1157L30.081 28.7274C30.0951 28.5149 29.996 28.2032 29.8543 28.0474L28.976 26.9707C28.4235 26.3191 28.6643 25.5966 29.486 25.3841L30.8318 25.0441C31.0443 24.9874 31.2993 24.7891 31.4126 24.6049L32.1635 23.4432C32.631 22.7207 33.3676 22.7207 33.8351 23.4432L34.586 24.6049C34.6993 24.7891 34.9543 24.9874 35.1668 25.0441L36.5126 25.3841C37.3343 25.5966 37.5751 26.3191 37.0226 26.9707Z" fill="white"/>
</svg>
