<svg width="7" height="10" viewBox="0 0 7 10" fill="none" xmlns="http://www.w3.org/2000/svg">
<path d="M4.24145 5.08225L0.584445 1.42525C0.511358 1.3587 0.452366 1.27815 0.410963 1.18839C0.369559 1.09863 0.346585 1.00147 0.343401 0.902668C0.340216 0.803867 0.356886 0.705433 0.392424 0.61319C0.427961 0.520946 0.481643 0.436771 0.550293 0.365645C0.618943 0.294519 0.701165 0.23789 0.792091 0.199109C0.883018 0.160328 0.980801 0.140182 1.07965 0.139866C1.1785 0.139549 1.27641 0.159068 1.36759 0.197267C1.45876 0.235465 1.54134 0.291568 1.61044 0.362252L1.62844 0.380253L5.80845 4.55925C5.947 4.69784 6.02484 4.88578 6.02484 5.08175C6.02484 5.27772 5.947 5.46567 5.80845 5.60425L1.62945 9.78325C1.56201 9.85305 1.48149 9.90888 1.39248 9.94756C1.30347 9.98624 1.20771 10.007 1.11067 10.0087C1.01364 10.0104 0.91722 9.99289 0.826929 9.9573C0.736639 9.92171 0.654243 9.86869 0.584445 9.80125C0.514648 9.73382 0.458816 9.6533 0.420137 9.56429C0.381458 9.47528 0.36069 9.37952 0.359019 9.28248C0.357347 9.18544 0.374805 9.08903 0.410395 8.99874C0.445986 8.90845 0.499012 8.82605 0.566445 8.75625L0.584445 8.73825L4.24145 5.08225Z" fill="#A4A4A4"/>
</svg>
