<svg width="13" height="13" viewBox="0 0 13 13" fill="none" xmlns="http://www.w3.org/2000/svg">
<path d="M0.948458 12.4421C0.990533 12.4421 1.03219 12.4337 1.07096 12.4174C1.10974 12.4011 1.14486 12.3771 1.17426 12.347C1.20366 12.3169 1.22674 12.2813 1.24214 12.2421C1.25754 12.2029 1.26495 12.1611 1.26394 12.119C1.26095 11.9071 1.32149 11.6991 1.43778 11.5219C1.55406 11.3446 1.72075 11.2063 1.91637 11.1246L4.85544 9.88793C5.08533 10.1899 5.382 10.4345 5.72223 10.6027C6.06246 10.7708 6.437 10.8579 6.8165 10.8571H6.83291C7.2091 10.855 7.5798 10.7667 7.91649 10.5989C8.25319 10.4311 8.5469 10.1883 8.77504 9.88919L11.7166 11.1259C11.9121 11.2075 12.0786 11.3456 12.1949 11.5226C12.3111 11.6996 12.3718 11.9073 12.3691 12.119C12.3686 12.1605 12.3762 12.2016 12.3916 12.2401C12.407 12.2785 12.4298 12.3136 12.4588 12.3432C12.4877 12.3729 12.5222 12.3965 12.5603 12.4129C12.5984 12.4292 12.6393 12.4378 12.6808 12.4383C12.7638 12.4393 12.8439 12.4076 12.9036 12.3499C12.9634 12.2923 12.9981 12.2134 13 12.1304C13.0047 11.7931 12.9082 11.4621 12.7231 11.1801C12.538 10.8981 12.2728 10.6779 11.9615 10.5479L8.97696 9.29229V8.51871C9.35038 7.9927 9.59031 7.38378 9.67607 6.74442C9.89694 6.55846 10.0748 6.32672 10.1972 6.06525C10.3197 5.80377 10.3838 5.51881 10.3853 5.23008C10.3861 5.10067 10.361 4.97241 10.3116 4.8528C10.2622 4.73319 10.1894 4.62463 10.0976 4.53349C9.99118 4.42619 9.86169 4.34461 9.71898 4.29498V3.57946C9.72369 3.17273 9.59908 2.77502 9.36311 2.44371C8.96462 1.87306 8.37434 1.46461 7.69987 1.29281V0.753963C7.69987 0.670291 7.66663 0.590046 7.60746 0.53088C7.5483 0.471715 7.46805 0.438477 7.38438 0.438477H6.75341C5.49146 0.438477 4.51724 1.43541 4.13992 2.36294C4.0133 2.68919 3.9495 3.03643 3.95189 3.38638L3.94179 4.28741C3.79381 4.33292 3.65854 4.41244 3.5468 4.51961C3.45136 4.61082 3.3755 4.72053 3.32387 4.84203C3.27223 4.96353 3.24589 5.09428 3.24646 5.2263C3.24696 5.52178 3.31338 5.81342 3.44087 6.07998C3.56837 6.34653 3.75372 6.58129 3.98344 6.76713C4.06767 7.38581 4.29826 7.97547 4.65605 8.48717V9.29229L1.67155 10.5479C1.36025 10.6779 1.09498 10.8981 0.909882 11.1801C0.724787 11.4621 0.628345 11.7931 0.632971 12.1304C0.633968 12.2134 0.667646 12.2927 0.726703 12.351C0.785761 12.4094 0.865438 12.4421 0.948458 12.4421ZM4.59169 6.55765C4.58655 6.51337 4.57209 6.47068 4.54925 6.4324C4.52641 6.39411 4.49571 6.36111 4.45919 6.33555C4.28022 6.21102 4.1339 6.04518 4.03263 5.85208C3.93136 5.65899 3.87812 5.44433 3.87743 5.2263C3.87699 5.17923 3.88617 5.13257 3.90439 5.08917C3.92262 5.04577 3.94952 5.00655 3.98344 4.97391C4.01674 4.94131 4.05622 4.91569 4.09956 4.89857C4.14291 4.88145 4.18924 4.87317 4.23583 4.87422C4.27799 4.87591 4.32006 4.86912 4.35956 4.85426C4.39905 4.8394 4.43516 4.81677 4.46576 4.78771C4.49635 4.75865 4.5208 4.72374 4.53766 4.68506C4.55453 4.64638 4.56346 4.60471 4.56393 4.56252L4.57655 3.39269C4.57573 3.12108 4.62626 2.85177 4.72546 2.59893C5.03211 1.86321 5.79433 1.06945 6.75972 1.06945H7.06889V1.55908C7.06878 1.63715 7.09762 1.71249 7.14983 1.77053C7.20205 1.82857 7.27392 1.86519 7.35157 1.87331C7.9144 1.93136 8.45703 2.27587 8.85202 2.81346C9.00988 3.03733 9.09252 3.30557 9.08801 3.57946V4.55999C9.08801 4.64366 9.12124 4.72391 9.18041 4.78307C9.23958 4.84224 9.31982 4.87548 9.40349 4.87548C9.45039 4.87545 9.49683 4.88468 9.54014 4.90266C9.58346 4.92063 9.62279 4.94699 9.65588 4.98022C9.6893 5.01305 9.71561 5.05239 9.73319 5.0958C9.75078 5.13922 9.75925 5.18578 9.7581 5.23261C9.75724 5.44618 9.70606 5.65653 9.60871 5.84663C9.51136 6.03672 9.37058 6.20119 9.1978 6.32671C9.16273 6.35261 9.13342 6.38549 9.1117 6.42329C9.08998 6.46108 9.07633 6.50296 9.0716 6.54629C9.00871 7.12621 8.79701 7.68002 8.45703 8.15401C8.38265 8.25212 8.34193 8.37162 8.34093 8.49474V9.40586C8.17694 9.65744 7.95283 9.86418 7.68888 10.0074C7.42492 10.1506 7.12943 10.2258 6.82912 10.2261C6.52601 10.2281 6.22709 10.1552 5.95894 10.0139C5.69079 9.87256 5.46171 9.66716 5.29207 9.41596V9.40965V8.4594C5.28946 8.33966 5.24879 8.22386 5.17598 8.12877C4.85342 7.66189 4.65258 7.12184 4.59169 6.55765Z" fill="white"/>
<path d="M12.4438 1.26631C12.4421 1.0464 12.3537 0.836036 12.1977 0.681001C12.0417 0.525966 11.8308 0.438803 11.6109 0.438477H10.9307C10.847 0.438477 10.7668 0.471715 10.7076 0.53088C10.6485 0.590046 10.6152 0.670291 10.6152 0.753963C10.6152 0.837635 10.6485 0.91788 10.7076 0.977046C10.7668 1.03621 10.847 1.06945 10.9307 1.06945H11.6109C11.6636 1.06943 11.7142 1.09001 11.7519 1.12679C11.7897 1.16357 11.8115 1.21364 11.8128 1.26631V1.9465C11.8128 2.03017 11.8461 2.11042 11.9052 2.16958C11.9644 2.22875 12.0446 2.26199 12.1283 2.26199C12.212 2.26199 12.2922 2.22875 12.3514 2.16958C12.4106 2.11042 12.4438 2.03017 12.4438 1.9465V1.26631Z" fill="white"/>
<path d="M2.70253 0.438477H2.02234C1.80242 0.438803 1.59152 0.525966 1.43554 0.681001C1.27956 0.836036 1.19112 1.0464 1.18945 1.26631V1.9465C1.18945 2.03017 1.22269 2.11042 1.28186 2.16958C1.34102 2.22875 1.42127 2.26199 1.50494 2.26199C1.58861 2.26199 1.66886 2.22875 1.72802 2.16958C1.78719 2.11042 1.82043 2.03017 1.82043 1.9465V1.26631C1.82174 1.21364 1.8436 1.16357 1.88132 1.12679C1.91904 1.09001 1.96965 1.06943 2.02234 1.06945H2.70253C2.7862 1.06945 2.86644 1.03621 2.92561 0.977046C2.98477 0.91788 3.01801 0.837635 3.01801 0.753963C3.01801 0.670291 2.98477 0.590046 2.92561 0.53088C2.86644 0.471715 2.7862 0.438477 2.70253 0.438477Z" fill="white"/>
<path d="M1.50494 7.29834C1.42127 7.29834 1.34102 7.33158 1.28186 7.39074C1.22269 7.44991 1.18945 7.53015 1.18945 7.61383V8.29402C1.18979 8.51481 1.27764 8.72646 1.43377 8.88258C1.58989 9.03871 1.80155 9.12657 2.02234 9.1269H2.70253C2.7862 9.1269 2.86644 9.09366 2.92561 9.0345C2.98477 8.97533 3.01801 8.89508 3.01801 8.81141C3.01801 8.72774 2.98477 8.6475 2.92561 8.58833C2.86644 8.52916 2.7862 8.49593 2.70253 8.49593H2.02234C1.96879 8.49593 1.91743 8.47465 1.87956 8.43679C1.8417 8.39892 1.82043 8.34757 1.82043 8.29402V7.61383C1.82043 7.53015 1.78719 7.44991 1.72802 7.39074C1.66886 7.33158 1.58861 7.29834 1.50494 7.29834Z" fill="white"/>
<path d="M12.1283 7.29834C12.0446 7.29834 11.9644 7.33158 11.9052 7.39074C11.8461 7.44991 11.8128 7.53015 11.8128 7.61383V8.29402C11.8128 8.34757 11.7915 8.39892 11.7537 8.43679C11.7158 8.47465 11.6645 8.49593 11.6109 8.49593H10.9307C10.847 8.49593 10.7668 8.52916 10.7076 8.58833C10.6485 8.6475 10.6152 8.72774 10.6152 8.81141C10.6152 8.89508 10.6485 8.97533 10.7076 9.0345C10.7668 9.09366 10.847 9.1269 10.9307 9.1269H11.6109C11.8317 9.12657 12.0434 9.03871 12.1995 8.88258C12.3556 8.72646 12.4435 8.51481 12.4438 8.29402V7.61383C12.4438 7.53015 12.4106 7.44991 12.3514 7.39074C12.2922 7.33158 12.212 7.29834 12.1283 7.29834Z" fill="white"/>
<path d="M5.82521 4.35697C5.86358 4.37263 5.90465 4.38059 5.94609 4.38038C5.98753 4.38017 6.02852 4.3718 6.06673 4.35575C6.10493 4.33969 6.13959 4.31627 6.16874 4.28681C6.19789 4.25736 6.22095 4.22245 6.23661 4.18408C6.27346 4.0962 6.33102 4.01853 6.4044 3.95772C6.47777 3.89691 6.56477 3.85476 6.65796 3.83487C6.75116 3.81497 6.84779 3.81793 6.9396 3.84347C7.0314 3.86902 7.11567 3.91641 7.18519 3.98159C7.25471 4.04676 7.30743 4.1278 7.33884 4.21777C7.37025 4.30774 7.37943 4.40397 7.36558 4.49826C7.35174 4.59254 7.31528 4.68208 7.25932 4.75922C7.20337 4.83636 7.12958 4.89881 7.04425 4.94125C6.87186 5.02435 6.72641 5.15441 6.62461 5.31648C6.52282 5.47854 6.46881 5.66604 6.46881 5.85742V6.08205C6.46881 6.16572 6.50204 6.24596 6.56121 6.30513C6.62037 6.36429 6.70062 6.39753 6.78429 6.39753C6.86796 6.39753 6.94821 6.36429 7.00737 6.30513C7.06654 6.24596 7.09978 6.16572 7.09978 6.08205V5.85363C7.10014 5.78021 7.12117 5.70836 7.16044 5.64632C7.19972 5.58428 7.25567 5.53455 7.32188 5.50281C7.551 5.39043 7.73917 5.20912 7.85997 4.98433C7.98077 4.75954 8.02814 4.50256 7.99542 4.24947C7.96271 3.99638 7.85155 3.7599 7.67756 3.57321C7.50357 3.38653 7.27548 3.25902 7.02532 3.2086C6.74655 3.15384 6.45743 3.19734 6.20711 3.3317C5.9568 3.46606 5.76075 3.68298 5.65233 3.94557C5.63666 3.98394 5.6287 4.02501 5.62891 4.06645C5.62912 4.10789 5.63749 4.14888 5.65355 4.18708C5.6696 4.22529 5.69302 4.25995 5.72248 4.2891C5.75193 4.31825 5.78684 4.34131 5.82521 4.35697Z" fill="white"/>
<path d="M6.78814 6.86279C6.70447 6.86279 6.62423 6.89603 6.56506 6.9552C6.5059 7.01436 6.47266 7.09461 6.47266 7.17828C6.47266 7.26195 6.5059 7.3422 6.56506 7.40136C6.62423 7.46053 6.70447 7.49377 6.78814 7.49377C6.87181 7.49377 6.95206 7.46053 7.01123 7.40136C7.07039 7.3422 7.10363 7.26195 7.10363 7.17828C7.10363 7.09461 7.07039 7.01436 7.01123 6.9552C6.95206 6.89603 6.87181 6.86279 6.78814 6.86279Z" fill="white"/>
</svg>
