<svg width="12" height="12" viewBox="0 0 12 12" fill="none" xmlns="http://www.w3.org/2000/svg">
<path d="M6 6C7.38071 6 8.5 4.88071 8.5 3.5C8.5 2.11929 7.38071 1 6 1C4.61929 1 3.5 2.11929 3.5 3.5C3.5 4.88071 4.61929 6 6 6Z" stroke="white" stroke-linecap="round" stroke-linejoin="round"/>
<path d="M9.60454 7.87001L7.83452 9.64003C7.76452 9.71003 7.69953 9.84001 7.68453 9.93501L7.58953 10.61C7.55453 10.855 7.72453 11.025 7.96953 10.99L8.64452 10.895C8.73952 10.88 8.87453 10.815 8.93953 10.745L10.7095 8.97502C11.0145 8.67002 11.1595 8.315 10.7095 7.865C10.2645 7.42 9.90954 7.56501 9.60454 7.87001Z" stroke="white" stroke-miterlimit="10" stroke-linecap="round" stroke-linejoin="round"/>
<path d="M9.34961 8.125C9.49961 8.665 9.91959 9.08499 10.4596 9.23499" stroke="white" stroke-miterlimit="10" stroke-linecap="round" stroke-linejoin="round"/>
<path d="M1.70508 11C1.70508 9.065 3.63009 7.5 6.00009 7.5C6.52009 7.5 7.02008 7.575 7.48508 7.715" stroke="white" stroke-linecap="round" stroke-linejoin="round"/>
</svg>
