<svg width="50" height="53" viewBox="0 0 50 53" fill="none" xmlns="http://www.w3.org/2000/svg">
<path d="M26.289 0H27.3206V0.193417L26.8048 0.515778L26.7403 0.773668L27.7719 0.709195L28.61 0.580251H29.3192L29.4482 0.644723L29.3837 0.83814L28.8679 1.1605L28.8035 1.48286L29.1903 1.41839L30.2218 1.22497H31.5758L32.285 1.41839V1.54734L31.2534 1.74075L30.6087 1.99864L30.4797 2.19206L31.6402 2.25653L32.2205 2.38547L32.7363 2.64336L32.8007 2.83678L32.2205 3.0302L32.0915 3.09467L32.285 3.22361L33.0586 3.41703L33.8323 3.73939L34.5415 4.12623L35.3152 4.70648L35.9599 5.15778L37.3138 5.86698L38.6032 6.70512L39.8282 7.60773L40.7308 8.31693L41.569 9.02612L42.5361 9.92873L43.3742 10.7669L43.9544 11.4761L44.4702 12.0563L45.1149 12.8945L45.8886 13.9905L46.6623 15.2155L47.5649 16.9562L48.2096 18.4391L48.7254 19.8575L49.1122 21.2114L49.4991 23.0811L49.757 24.9508L49.8859 26.756V28.5612L49.6925 31.0756L49.3701 33.0098L48.9188 34.815L48.3386 36.5558L47.7583 37.9097L47.1136 39.2636L46.4689 40.3597L46.1465 40.8754L45.7597 41.6491L45.1149 42.4872L44.5347 43.1964L43.8255 44.0346L42.9229 45.0017L41.8913 46.0332L41.1821 46.6135L40.2795 47.3227L39.4414 47.9674L38.3454 48.7411L36.798 49.6437L35.573 50.2884L34.0257 50.9331L31.8981 51.6423L30.3508 52.0291L28.4811 52.3515L27.1272 52.4804L25.6443 52.5449H24.2904L21.9694 52.416L20.2931 52.1581L18.8747 51.8357L17.0695 51.3199L15.3932 50.6752L13.7169 49.9016L12.4275 49.1924L11.0091 48.2897L9.97754 47.5161L9.26835 47.0003L8.43021 46.2911L7.78548 45.7109L6.30262 44.228L5.85132 43.7122L4.9487 42.6162L4.11056 41.4557L3.20795 39.9084L2.49876 38.5544L1.66062 36.5558L1.20931 35.2019L0.693532 33.2677L0.37117 31.4625L0.177754 29.7217L0.113281 28.7546V26.1758L0.306698 23.9837L0.693532 21.9851L1.20931 20.0509L1.78956 18.4391L2.49876 16.8917L3.20795 15.4734L4.04609 14.1194L4.88423 13.0234L5.59343 12.1208L6.36709 11.2182L7.14076 10.38L8.75257 8.76823L9.46176 8.18798L10.2354 7.54326L11.3959 6.70512L12.6209 5.93145L13.7814 5.28673L15.0709 4.64201L16.2958 3.99728L17.6497 3.41703L19.0681 2.96573L19.9707 2.25653L20.4865 1.8697L21.3891 1.35392L22.4207 0.967084L22.7431 1.03156L23.1944 1.09603L24.2259 0.580251L25.0641 0.257889L26.289 0Z" fill="white"/>
<path d="M15.2643 4.51172H15.3932V4.64066H16.2958L15.9735 4.89855L15.3287 5.28539L14.6195 5.93011H14.4906L14.3617 6.188L13.7814 6.83272L13.588 7.15508L13.8459 7.09061L13.7814 7.41297L13.3946 8.05769L13.0722 8.89583L12.8143 9.92739L12.7499 10.3142V10.9589L13.1367 10.6366L13.0722 11.0234L12.8788 11.6037L12.7499 12.6997V13.4734L12.9433 15.3431L13.2656 16.9549V17.5351L12.6854 17.7285L12.5564 18.5022L12.6209 19.6627L13.0077 20.9522L13.2656 21.9837L13.459 23.66L13.6525 24.3047L14.1038 24.9494L14.5551 25.2718H15.6511L15.9735 27.6573L16.2314 28.8822L16.6182 29.9138L17.134 30.8164L17.5853 31.4611V33.0085L17.4563 34.2334L17.2629 34.8782L16.9405 35.3939L16.4248 35.8453L15.3287 36.361L13.3946 37.1992L11.5249 37.9728L9.71965 38.7465L7.26971 39.7781L4.11056 41.1965L3.91715 41.132L3.14348 39.7781L2.49876 38.5531L1.66062 36.5545L1.20931 35.2005L0.693532 33.2664L0.37117 31.4611L0.177754 29.7204L0.113281 28.7533V26.1744L0.306698 23.9824L0.693532 21.9837L1.20931 20.0495L1.78956 18.4377L2.49876 16.8904L3.20795 15.472L4.04609 14.1181L4.88423 13.0221L5.59343 12.1194L6.36709 11.2168L7.14076 10.3787L8.75257 8.76689L9.46176 8.18664L10.2354 7.54192L11.3959 6.70378L12.6209 5.93011L13.7814 5.28539L15.0709 4.64066L15.2643 4.51172Z" fill="#0BC1A0"/>
<path d="M35.6377 5.02734L35.96 5.15629L37.3139 5.86548L38.6034 6.70362L39.8284 7.60624L40.731 8.31543L41.5691 9.02463L42.5362 9.92724L43.3743 10.7654L43.9546 11.4746L44.4704 12.0548L45.1151 12.893L45.8888 13.989L46.6624 15.214L47.565 16.9547L48.2098 18.4376L48.7255 19.856L49.1124 21.2099L49.4992 23.0796L49.7571 24.9493L49.886 26.7545V28.5597L49.6926 31.0742L49.3703 33.0083L48.919 34.8135L48.3387 36.5543L47.7584 37.9082L47.1137 39.2621L46.469 40.3582L46.1466 40.8739L46.0177 41.1318L44.7283 40.6161L42.4072 39.5845L35.1864 36.5543L34.0259 36.0385L33.3167 35.5872L32.9298 35.0714L32.6719 34.3622L32.543 33.2662L32.4785 31.5255L33.0588 30.6873L33.639 29.5913L33.9614 28.6242L34.1548 27.6571L34.4127 25.5295L34.4772 25.2716L35.2508 25.3361L35.7666 25.1427L35.96 24.9493H36.089L36.2179 24.6914L36.5403 24.1111L36.7337 23.273L36.8626 21.9836L37.185 20.7586L37.4429 19.9204L37.5718 19.2112V18.5665L37.4429 17.9218L37.1205 17.5994L36.6047 17.6639L36.4113 17.7284L36.3469 17.535L36.7982 16.0521L37.185 14.3114L37.4429 12.5706L37.5074 11.9904V11.0233L37.3139 9.66935L36.9916 8.63779L36.6047 7.86412L36.089 7.2194L35.5087 6.70362L35.6377 6.57468H36.5403L36.2179 5.92996L35.6377 5.09182V5.02734Z" fill="#0BC1A0"/>
<path d="M16.424 29.8516L16.6174 29.916L17.1332 30.8186L17.5845 31.4634V33.0107L17.4556 34.2357L17.2621 34.8804L16.9398 35.3962L16.424 35.8475L15.8438 35.9764V35.8475L16.3595 35.4607L16.8753 34.8804L17.1332 34.3002L17.1977 33.591L17.3911 33.0107V32.1081L17.0043 31.141L16.6174 30.4963L16.424 30.045V29.8516Z" fill="#0BC1A0"/>
<path d="M14.6839 4.83594V5.02935L13.9103 5.41619L12.8142 5.99644L12.2984 6.3188L11.2669 7.028L10.5577 7.54377L10.1064 7.86614H9.97744V7.99508L9.07483 8.70428L8.10775 9.60689L7.14066 10.574L7.01172 10.5095L8.75247 8.76875L9.46167 8.1885L10.2353 7.54377L11.3958 6.70563L12.6208 5.93197L13.7813 5.28724L14.6839 4.83594Z" fill="#0BC1A0"/>
<path d="M15.4591 25.3359H15.588V25.6583H15.717L15.9749 27.6569L16.2327 28.8819L16.4262 29.4622V29.7845L16.1683 29.4622L15.9104 28.753L15.8459 28.6885L15.717 27.7214L15.588 27.3991V26.6254L15.4591 26.0451L15.2657 25.6583L15.1367 25.4649L15.4591 25.3359Z" fill="#0BC1A0"/>
<path d="M34.1548 28.1094H34.2192V28.4962L34.0903 29.2699L33.8324 29.9146L33.3166 30.6238L33.1232 31.0106L32.9298 31.5264L32.6719 31.8488H32.543V31.4619L33.1877 30.4948L33.7679 29.2699L34.0258 28.3673H34.1548V28.1094Z" fill="#0BC1A0"/>
<path d="M16.4258 29.8516L16.6192 29.916L17.135 30.8186L17.5863 31.4634V33.0107L17.4573 33.3331H17.3929V32.1081L17.006 31.141L16.6192 30.4963L16.4258 30.045V29.8516Z" fill="#0BC1A0"/>
<path d="M39.8926 7.73438L40.1505 7.86332L41.0531 8.57251L41.8267 9.28171L42.3425 9.73302L43.3741 10.7646L43.9543 11.4738L44.4701 12.054L44.9214 12.6343L44.8569 12.7632L44.5991 12.5053V12.3764H44.4701L43.8254 11.5382L43.1162 10.7001L42.7938 10.3777L42.3425 9.99091L42.0846 9.66854L41.5689 9.21724L40.9241 8.63699L40.3439 8.18568L39.9571 7.92779L39.8926 7.73438Z" fill="#0BC1A0"/>
<path d="M35.96 5.21875L36.3468 5.34769L37.6362 6.05689L38.6033 6.70161L39.8283 7.60422L39.8928 7.73317L39.5704 7.60422L38.5389 6.83056L37.6362 6.25031L36.9915 5.86347L36.6047 5.67006L36.1534 5.54111L35.96 5.21875Z" fill="#0BC1A0"/>
<path d="M32.7363 34.168L32.8653 34.2324V34.6193L33.0587 34.5548L33.4455 35.1995L33.5745 35.264L33.7679 35.5864L33.9613 35.8442L33.5745 35.7798L33.1232 35.3929L32.8008 34.8127L32.7363 34.168Z" fill="#0BC1A0"/>
<path d="M15.8438 27.2695H15.9082L16.2306 28.8813L16.424 29.4616V29.784L16.1661 29.4616L15.9082 28.7524L15.8438 28.6879V27.2695Z" fill="#0BC1A0"/>
<path d="M34.4766 25.2734L35.2502 25.3379L35.766 25.2734L35.6371 25.5313L34.8634 25.7247L34.7989 25.7892H34.4766V25.2734Z" fill="#0BC1A0"/>
<path d="M36.6037 23.9219H36.7327L36.6037 24.6955L36.1524 25.2113L35.8301 25.2758L36.2169 24.6955L36.5393 24.1153L36.6037 23.9219Z" fill="#0BC1A0"/>
<path d="M15.4591 25.3359H15.588L15.717 26.2385V26.7543L15.588 26.6254L15.4591 26.0451L15.2657 25.6583L15.1367 25.4649L15.4591 25.3359Z" fill="#0BC1A0"/>
<path d="M13.5879 24.5L13.9103 24.6934L14.1681 25.0158L14.555 25.2737V25.4026H14.8773V25.4671L14.2971 25.4026V25.2737L13.9747 25.2092V25.0803H13.8458L13.5879 24.6934V24.5Z" fill="#0BC1A0"/>
<path d="M32.9943 31.0078L33.1232 31.0723L32.9298 31.5236L32.6719 31.846H32.543V31.4591L32.8653 31.1368L32.9943 31.0078Z" fill="#0BC1A0"/>
<path d="M44.9209 12.8281L45.1788 12.9571L45.888 13.9886L45.8235 14.1176L45.2433 13.3439L44.9209 12.8281Z" fill="#0BC1A0"/>
<path d="M16.168 28.8828L16.297 29.0762L16.4259 29.4631V29.7854L16.168 29.4631L16.0391 29.0762L16.168 28.8828Z" fill="#0BC1A0"/>
<path d="M22.6778 1.03125L23.0646 1.16019L22.8067 1.35361L22.4844 1.48256L22.6133 1.16019L22.6778 1.03125Z" fill="#0BC1A0"/>
</svg>
