<svg width="34" height="34" viewBox="0 0 34 34" fill="none" xmlns="http://www.w3.org/2000/svg">
<path opacity="0.4" d="M18.4167 4.60449H9.91667C5.07167 4.60449 3.1875 6.48866 3.1875 11.3337V22.667C3.1875 25.9253 4.95833 29.3962 9.91667 29.3962H18.4167C23.2617 29.3962 25.1458 27.512 25.1458 22.667V11.3337C25.1458 6.48866 23.2617 4.60449 18.4167 4.60449Z" fill="#0BC1A0"/>
<path d="M16.2918 16.1216C17.7627 16.1216 18.9551 14.9292 18.9551 13.4583C18.9551 11.9873 17.7627 10.7949 16.2918 10.7949C14.8208 10.7949 13.6284 11.9873 13.6284 13.4583C13.6284 14.9292 14.8208 16.1216 16.2918 16.1216Z" fill="#0BC1A0"/>
<path d="M30.6708 8.74046C30.0899 8.44296 28.8716 8.10296 27.2141 9.26463L25.1174 10.738C25.1316 10.9363 25.1458 11.1205 25.1458 11.333V22.6663C25.1458 22.8788 25.1174 23.063 25.1174 23.2613L27.2141 24.7346C28.0924 25.358 28.8574 25.5563 29.4666 25.5563C29.9908 25.5563 30.4016 25.4146 30.6708 25.273C31.2516 24.9755 32.2291 24.168 32.2291 22.1421V11.8713C32.2291 9.84546 31.2516 9.03796 30.6708 8.74046Z" fill="#0BC1A0"/>
</svg>
