<svg width="65" height="64" viewBox="0 0 65 64" fill="none" xmlns="http://www.w3.org/2000/svg">
<circle cx="32.9512" cy="32" r="31.5" fill="white" stroke="#0BC1A0"/>
<circle cx="32.9512" cy="32" r="28" fill="#0BC1A0"/>
<path opacity="0.4" d="M40.8335 26.0072C40.7343 25.993 40.6352 25.993 40.536 26.0072C38.3402 25.9363 36.5977 24.1372 36.5977 21.9272C36.5977 19.6747 38.4252 17.833 40.6918 17.833C42.9443 17.833 44.786 19.6605 44.786 21.9272C44.7718 24.1372 43.0293 25.9363 40.8335 26.0072Z" fill="white"/>
<path opacity="0.4" d="M45.4534 35.8246C43.8667 36.8871 41.6426 37.2837 39.5884 37.0146C40.1267 35.8529 40.4101 34.5638 40.4242 33.2038C40.4242 31.7871 40.1126 30.4413 39.5176 29.2654C41.6142 28.9821 43.8384 29.3787 45.4392 30.4412C47.6776 31.9146 47.6776 34.3371 45.4534 35.8246Z" fill="white"/>
<path opacity="0.4" d="M25.1224 26.0072C25.2216 25.993 25.3208 25.993 25.4199 26.0072C27.6158 25.9363 29.3583 24.1372 29.3583 21.9272C29.3583 19.6747 27.5308 17.833 25.2641 17.833C23.0116 17.833 21.1699 19.6605 21.1699 21.9272C21.1841 24.1372 22.9266 25.9363 25.1224 26.0072Z" fill="white"/>
<path opacity="0.4" d="M25.2791 33.204C25.2791 34.5782 25.5766 35.8815 26.1149 37.0574C24.1174 37.2699 22.0349 36.8449 20.5049 35.839C18.2666 34.3515 18.2666 31.929 20.5049 30.4415C22.0208 29.4215 24.1599 29.0107 26.1716 29.2374C25.5908 30.4274 25.2791 31.7732 25.2791 33.204Z" fill="white"/>
<path d="M33.1708 37.4825C33.0574 37.4683 32.9299 37.4683 32.8024 37.4825C30.1958 37.3975 28.1133 35.2583 28.1133 32.6233C28.1133 29.9317 30.2808 27.75 32.9866 27.75C35.6783 27.75 37.8599 29.9317 37.8599 32.6233C37.8599 35.2583 35.7916 37.3975 33.1708 37.4825Z" fill="white"/>
<path d="M28.5653 40.4152C26.4261 41.8461 26.4261 44.1977 28.5653 45.6144C31.002 47.2436 34.997 47.2436 37.4336 45.6144C39.5728 44.1836 39.5728 41.8319 37.4336 40.4152C35.0111 38.7861 31.0161 38.7861 28.5653 40.4152Z" fill="white"/>
</svg>
