<svg width="64" height="64" viewBox="0 0 64 64" fill="none" xmlns="http://www.w3.org/2000/svg">
<circle cx="32" cy="32" r="31.5" fill="white" stroke="#0BC1A0"/>
<circle cx="32" cy="32" r="28" fill="#0BC1A0"/>
<path d="M46.1673 39.9167V44.1667H17.834V39.9167C17.834 39.1375 18.4715 38.5 19.2507 38.5H44.7507C45.5298 38.5 46.1673 39.1375 46.1673 39.9167Z" fill="white" stroke="white" stroke-width="1.5" stroke-miterlimit="10" stroke-linecap="round" stroke-linejoin="round"/>
<path opacity="0.6" d="M26.3327 28.583H20.666V38.4997H26.3327V28.583Z" fill="white"/>
<path opacity="0.4" d="M32.0007 28.583H26.334V38.4997H32.0007V28.583Z" fill="white"/>
<path opacity="0.6" d="M37.6667 28.583H32V38.4997H37.6667V28.583Z" fill="white"/>
<path opacity="0.4" d="M43.3327 28.583H37.666V38.4997H43.3327V28.583Z" fill="white"/>
<path d="M47.5827 45.2295H16.416C15.8352 45.2295 15.3535 44.7478 15.3535 44.167C15.3535 43.5862 15.8352 43.1045 16.416 43.1045H47.5827C48.1635 43.1045 48.6452 43.5862 48.6452 44.167C48.6452 44.7478 48.1635 45.2295 47.5827 45.2295Z" fill="white"/>
<path d="M45.2748 21.1459L32.5248 16.0459C32.2415 15.9326 31.7598 15.9326 31.4765 16.0459L18.7265 21.1459C18.2307 21.3442 17.834 21.9251 17.834 22.4634V27.1667C17.834 27.9459 18.4715 28.5834 19.2507 28.5834H44.7507C45.5298 28.5834 46.1673 27.9459 46.1673 27.1667V22.4634C46.1673 21.9251 45.7706 21.3442 45.2748 21.1459ZM32.0007 25.0417C30.8248 25.0417 29.8757 24.0926 29.8757 22.9167C29.8757 21.7409 30.8248 20.7917 32.0007 20.7917C33.1765 20.7917 34.1257 21.7409 34.1257 22.9167C34.1257 24.0926 33.1765 25.0417 32.0007 25.0417Z" fill="white"/>
</svg>
