<svg width="18" height="15" viewBox="0 0 18 15" fill="none" xmlns="http://www.w3.org/2000/svg">
<path d="M12.441 12.9672C12.7132 12.8421 12.9889 12.7219 13.2597 12.5895C13.4506 12.4967 13.6355 12.3932 13.821 12.2887C13.9235 12.2318 13.9264 12.1877 13.8362 12.119C13.76 12.0576 13.6793 12.002 13.5948 11.9527C13.5519 11.9382 13.5051 11.9405 13.4638 11.9591C13.1096 12.0945 12.7613 12.248 12.4022 12.3692C10.9002 12.8784 9.30275 13.0427 7.72851 12.85C6.65442 12.7132 5.60657 12.4178 4.61925 11.9733C4.50691 11.9242 4.42302 11.9203 4.33521 12.0096C4.28507 12.0579 4.22999 12.1008 4.17087 12.1376C4.07766 12.1985 4.10562 12.2446 4.18362 12.2878C4.33373 12.3707 4.48091 12.4604 4.63544 12.533C4.94499 12.6802 5.25847 12.8166 5.58176 12.9633C5.57487 12.9906 5.565 13.0171 5.55232 13.0423C5.26828 13.5093 4.98227 13.9743 4.69872 14.4428C4.65506 14.515 4.6065 14.5262 4.52653 14.5002C2.96842 14.0005 1.49878 13.2583 0.171701 12.301C0.117809 12.2613 0.0815456 12.2022 0.0706429 12.1362C0.0397367 11.6456 0.000981149 11.155 0 10.6644C0.00470404 9.89717 0.0643806 9.13122 0.17857 8.37248C0.34798 7.20424 0.663946 6.06202 1.119 4.9728C1.53697 3.96222 2.06434 3.0105 2.65155 2.08822C2.71523 1.9851 2.81033 1.90514 2.92284 1.8601C3.80694 1.47671 4.72398 1.17426 5.6627 0.956464C5.89278 0.903482 6.12728 0.86767 6.35637 0.809292C6.46136 0.782801 6.50355 0.819104 6.54427 0.904954C6.66593 1.16398 6.79593 1.41859 6.91514 1.6781C6.95046 1.75463 6.98725 1.77621 7.07212 1.76346C7.99997 1.61592 8.94187 1.57723 9.8787 1.64817C10.2486 1.67712 10.6175 1.72471 10.9859 1.76886C11.0575 1.77769 11.084 1.75267 11.1145 1.69282C11.2391 1.42693 11.371 1.16398 11.4956 0.898087C11.5349 0.813708 11.5805 0.792612 11.6767 0.810763C12.8891 1.03631 14.0712 1.4023 15.199 1.90131C15.2535 1.92684 15.3004 1.96626 15.3349 2.01562C16.0962 3.09991 16.7068 4.28252 17.15 5.53107C17.463 6.42927 17.6897 7.35524 17.827 8.29644C17.9687 9.28726 18.0235 10.2886 17.9908 11.2889C17.983 11.5867 17.959 11.8845 17.9359 12.1818C17.9297 12.2277 17.9055 12.2694 17.8687 12.2976C16.5299 13.2522 15.053 13.9967 13.4893 14.5052C13.4118 14.5307 13.377 14.5052 13.3422 14.4478C13.0969 14.0489 12.8452 13.6516 12.5984 13.2522C12.5425 13.1605 12.4935 13.0624 12.441 12.9672ZM12.0313 6.5235C11.7321 6.5392 11.4559 6.60298 11.2082 6.75996C10.6249 7.12838 10.409 7.6999 10.4016 8.34795C10.396 8.61317 10.4482 8.87644 10.5545 9.11948C10.6608 9.36252 10.8187 9.57952 11.0173 9.75541C11.606 10.295 12.388 10.3279 12.9835 9.80447C13.3302 9.50173 13.5586 9.08611 13.6282 8.63118C13.6979 8.17625 13.6044 7.71133 13.3642 7.31872C13.0611 6.81785 12.6092 6.55245 12.0313 6.5235ZM6.00071 6.5235C5.49885 6.5235 4.95382 6.85415 4.68106 7.30842C4.29547 7.95304 4.3254 8.9857 4.85178 9.59548C5.44538 10.2823 6.36717 10.3681 7.05299 9.75296C7.73881 9.13778 7.81093 7.99621 7.3645 7.31333C7.04906 6.83306 6.60755 6.54558 6.00316 6.52399L6.00071 6.5235Z" fill="#A2A2A2"/>
</svg>
