<svg width="20" height="15" viewBox="0 0 20 15" fill="none" xmlns="http://www.w3.org/2000/svg">
<path d="M19.5 2.27679C19.25 1.33929 18.625 0.669643 17.75 0.401786C16.25 2.39483e-07 9.87499 0 9.87499 0C9.87499 0 3.62501 2.39483e-07 2.00001 0.401786C1.12501 0.669643 0.499996 1.33929 0.249996 2.27679C-3.81842e-06 4.01786 0 7.5 0 7.5C0 7.5 3.7998e-06 10.9821 0.375004 12.7232C0.625004 13.6607 1.25 14.3304 2.125 14.5982C3.625 15 10 15 10 15C10 15 16.25 15 17.875 14.5982C18.75 14.3304 19.375 13.6607 19.625 12.7232C20 10.9821 20 7.5 20 7.5C20 7.5 20 4.01786 19.5 2.27679ZM7.99999 10.7143V4.28572L13.25 7.5L7.99999 10.7143Z" fill="#A2A2A2"/>
</svg>
